<?xml version="1.0" encoding="UTF-8" standalone="no"?>
<!-- Created with Inkscape (http://www.inkscape.org/) -->

<svg
   width="215mm"
   height="215mm"
   viewBox="0 0 215 215"
   version="1.1"
   id="svg1"
   xml:space="preserve"
   inkscape:version="1.4 (86a8ad7, 2024-10-11)"
   sodipodi:docname="writereadssucceed-logo-tree6_path.svg"
   inkscape:export-filename="writereadssucceed-logo-tree3.png"
   inkscape:export-xdpi="96"
   inkscape:export-ydpi="96"
   xmlns:inkscape="http://www.inkscape.org/namespaces/inkscape"
   xmlns:sodipodi="http://sodipodi.sourceforge.net/DTD/sodipodi-0.dtd"
   xmlns="http://www.w3.org/2000/svg"
   xmlns:svg="http://www.w3.org/2000/svg"><sodipodi:namedview
     id="namedview1"
     pagecolor="#ffffff"
     bordercolor="#000000"
     borderopacity="0.25"
     inkscape:showpageshadow="2"
     inkscape:pageopacity="0.0"
     inkscape:pagecheckerboard="0"
     inkscape:deskcolor="#d1d1d1"
     inkscape:document-units="mm"
     inkscape:zoom="0.50835204"
     inkscape:cx="186.87837"
     inkscape:cy="689.48282"
     inkscape:window-width="1920"
     inkscape:window-height="1009"
     inkscape:window-x="-8"
     inkscape:window-y="-8"
     inkscape:window-maximized="1"
     inkscape:current-layer="layer1" /><defs
     id="defs1" /><g
     inkscape:label="Layer 1"
     inkscape:groupmode="layer"
     id="layer1"><path
       id="rect41"
       style="fill:#fef6e9;stroke-width:4.69878"
       d="M 52.386776,0.73605949 H 164.3719 c 27.7,0 50,22.29999951 50,49.99999951 V 164.10587 c 0,27.7 -22.3,50 -50,50 H 52.386776 c -27.7,0 -49.9999996,-22.3 -49.9999996,-50 V 50.736059 c 0,-27.7 22.2999996,-49.99999951 49.9999996,-49.99999951 z" /><path
       d="m 144.07371,72.878736 c -0.31974,3.19738 -0.15987,6.394762 1.11908,9.432276 -0.63948,-2.078298 -0.95922,-4.316467 -1.11908,-6.554633 v -2.557907 c 0.4796,4.476335 2.07829,9.11254 4.95594,12.949397 0,0 9.27241,-1.278952 11.51057,-14.388217 -0.15987,1.119084 -0.31974,2.238166 -0.47961,3.197382 1.27896,-4.156596 1.75856,-8.632931 1.27896,-12.789527 -0.63948,-5.595418 -2.0783,-11.030967 -3.35725,-16.466517 0.15987,0.15987 0.63947,-0.159868 0.63947,-0.479607 -0.15987,-0.639475 -0.63947,-0.639475 -1.11908,-0.319739 -0.15987,-0.639475 -0.31974,-1.278952 -0.47961,-1.758559 -0.79934,-2.877643 -9.75201,14.867824 -12.15005,22.061934 -0.79934,2.398037 -0.95921,5.11581 -0.79934,7.673717 z m -31.01461,-27.337614 0.15987,-0.159869 0.15987,0.159869 -0.15987,-0.159869 c 3.99673,-3.836859 6.07503,-10.071753 4.95595,-16.146778 -0.79935,-4.476335 -3.35726,-13.748741 -5.27569,-18.704683 0.31974,-0.6394759 0.47961,-1.119083 0.79935,-1.7585595 0.15987,0.6394765 0.31974,1.2789525 0.31974,1.4388215 0.63947,1.598691 1.43882,3.037513 1.91843,4.636204 0.95921,3.357252 1.75856,6.714502 2.5579,10.231621 0.79935,4.156596 1.27896,7.993455 0.31974,12.150051 -0.15987,0.959214 -1.43882,4.156596 -2.71777,6.394762 2.23816,-2.717773 3.67699,-5.915155 4.15659,-9.752013 0.31974,-4.316466 -1.43882,-8.63293 -2.39803,-12.789526 -0.95922,-3.676989 -1.43882,-7.673717 -2.71778,-11.1908369 -0.15987,-0.4796073 -0.79934,-2.8776435 -1.59869,-1.75856 v 0.1598691 c -0.31974,0.6394764 -0.47961,1.2789527 -0.79934,1.7585598 -0.79935,-1.9184289 -1.43883,-3.0375124 -1.59869,-2.3980362 -1.27896,3.1973812 -4.63621,13.2691342 -5.11582,16.7862542 -2.39803,16.146777 7.03424,21.102719 7.03424,21.102719 z M 81.405027,112.68614 c -5.915155,-4.1566 -14.068479,-5.11581 -20.78298,-5.59542 -0.15987,0 -0.15987,0 -0.15987,0.15987 -0.159868,0 -0.159868,0.15987 0,0.31974 0,0.15987 0.15987,0.31973 0.15987,0.31973 h 0.159869 l 0.159868,0.15987 c 0,-0.15987 -0.159868,-0.15987 -0.159868,-0.15987 5.27568,0.47961 14.068478,0.95922 19.983636,4.31647 -0.959216,-0.47961 -2.078298,-0.79934 -3.197382,-1.11908 -3.037512,-0.95922 -12.150052,-1.91843 -15.347432,-2.0783 -0.319738,0 -0.319738,0.31974 0,0.95921 -0.479609,-0.63947 -0.959216,-1.27895 -1.278954,-1.91843 0.319738,0.63948 0.959216,1.75856 0.959216,1.91843 0.319738,0.47961 0.799345,0.95922 1.43882,1.27895 1.119085,1.27896 2.717776,3.03752 4.316467,4.63621 1.119082,1.27895 2.238166,2.5579 3.517118,3.67699 l 1.91843,1.43882 c -1.91843,-1.27895 -3.517121,-3.19738 -5.11581,-4.79607 1.918428,1.91843 4.156596,3.83686 5.755287,5.11581 -0.15987,-0.15987 -0.319738,-0.15987 -0.639477,-0.31974 0.319739,0.15987 0.639477,0.31974 0.959214,0.63948 0.15987,0.15987 0.319738,0.15987 0.479609,0.31973 3.996725,2.87765 9.911883,3.51712 14.867824,1.75856 -0.15987,0.15987 0.959214,-6.7145 -7.993455,-11.03096 z M 104.58604,87.74656 c 1.27896,-3.037512 2.23817,-6.075026 3.03751,-8.952669 0,-0.159868 -0.15986,-0.319739 -0.31973,-0.479607 0,-0.159868 -0.15987,-0.319739 -0.47961,-0.159868 0,-0.639477 -0.63948,0.159868 -0.95921,0.319736 -2.71778,1.438823 -5.43555,3.037514 -7.673719,4.955944 -6.075026,4.955941 -11.510574,10.871097 -11.030967,19.983634 0,0.15987 0.15987,0.31974 0.319738,0.31974 0.479607,0.15987 0.959214,0.15987 1.438823,0.15987 v 0.31974 c 0,0 7.353978,1.75855 13.588875,-11.030972 0.4796,-0.959213 1.27895,-3.037511 2.07829,-5.435548 z m 1.75856,-9.272408 z M 93.39521,89.824858 c -3.197382,3.676989 -4.955944,8.952669 -4.636205,13.908612 H 88.11953 c -1.598691,-0.15987 -0.159871,-6.234895 0.159868,-7.353979 1.119084,-3.836858 4.156596,-6.234894 7.034239,-8.792799 2.078298,-1.758562 3.996725,-3.676989 6.075023,-5.27568 l 1.43882,-0.959216 c -3.357248,2.557907 -7.513843,6.394764 -9.43227,8.473062 z m 45.40282,0.479607 c -2.23817,0.639477 -4.1566,2.078298 -5.43555,4.156596 0,0 -0.15987,0.15987 -0.15987,0.319738 l 0.15987,-0.159868 c -0.95922,1.278953 -1.59869,2.877644 -1.91843,4.476335 0,0 4.95594,5.755284 13.10926,-0.479607 1.43883,-1.119084 4.31647,-4.316466 6.39477,-6.874371 h 0.4796 v 0.159868 c -4.6362,5.755287 -13.58887,15.347434 -20.62311,8.473064 -0.31974,-0.15987 -0.31974,-0.639479 -0.15987,-1.119086 -0.15987,0.319739 -0.31974,0.639477 -0.31974,1.119086 0,0.15987 -0.31973,0.15987 -0.15986,0.15987 6.7145,8.31319 16.94612,-2.557908 21.58232,-8.153327 0.15987,0.15987 0.47961,0.15987 0.63948,0 0.15987,-0.479607 -0.15987,-0.799346 -0.95922,-0.959214 0.47961,-0.639477 0.95922,-1.119084 1.27896,-1.598691 0.4796,-1.598691 -10.07175,-0.639475 -13.90861,0.479607 z m -16.14678,26.858005 c -0.63948,0.15987 -1.27895,0.47961 -1.91843,0.79935 -0.79935,0.15987 -1.43882,0.4796 -2.23817,0.79934 0.47961,-0.15987 0.95922,-0.31974 1.27896,-0.31974 -2.23817,1.5987 -3.99673,4.31647 -4.79608,7.35398 0,0 2.23817,2.55791 6.07503,2.39804 -2.55791,0.63947 -5.27568,0.31974 -7.67372,-2.0783 -0.63947,-0.63948 0.31974,-2.71777 1.27895,-4.31646 -0.79934,1.11908 -1.59869,2.5579 -2.07829,4.31646 0,0.15987 -0.47961,0.47961 -0.47961,0.63948 3.67699,4.47633 8.47306,3.35725 12.78953,0.4796 0.95921,-0.4796 2.07829,-1.11908 3.19738,-1.91842 1.91843,-1.43883 6.55463,-6.87438 7.83358,-8.79281 1.27896,-1.27895 -9.43227,-0.31973 -13.26913,0.63948 z M 103.7867,98.937395 c -0.15987,-0.319738 -0.47961,0 -0.79935,0.959216 -0.15987,-0.319738 -0.15987,-0.479609 -0.31974,-0.799345 0.15987,-0.159871 0.15987,-0.319739 0.15987,-0.479609 -0.95921,-1.438821 -3.197378,7.194113 -3.357248,7.673713 -1.59869,6.39477 -1.59869,12.15005 2.717778,17.42573 0,0 0.15986,0.47961 0.31974,0.47961 0.63947,-0.15987 1.11908,-0.47961 1.59869,-0.95921 0.15986,0.15987 0.31973,0.31973 0.31973,0.4796 0,0 5.75529,-2.07829 3.51712,-12.94939 -0.4796,-2.55791 -3.19738,-9.59215 -4.15659,-11.830315 z m -0.95922,23.820495 c -1.27895,0.79934 -2.71777,-2.0783 -3.197378,-3.03751 -1.438821,-2.87765 -1.11908,-6.2349 -0.47961,-9.27241 0.31974,-2.0783 0.31974,-4.31646 0.79935,-6.23489 0.159868,-0.47961 1.918428,-3.99673 2.238168,-4.955946 0.15986,0.319739 0.31974,0.799346 0.4796,1.119086 -0.95921,2.87764 -2.23816,8.95267 -2.5579,11.83031 -0.319738,3.35725 0.95921,7.35398 3.35725,10.23162 -0.15987,0.15987 -0.31974,0.31974 -0.63948,0.31974 z m 46.36204,-26.858006 c -2.0783,1.278952 -3.67699,3.517118 -4.63621,5.755286 -0.79934,1.11908 -1.43882,2.39804 -1.91843,3.99673 0.31974,-0.63948 0.79935,-1.43882 1.27896,-2.0783 l -0.47961,1.91843 c 0,0 4.95594,2.87764 11.67044,-5.27568 1.11909,-1.278955 3.19739,-4.636205 4.63621,-7.35398 0,0 0.15987,0 0.15987,-0.159868 -3.35726,5.915155 -9.59215,16.626388 -17.26587,13.748738 -0.15986,0 -0.31973,-0.15987 -0.15986,-0.47961 -0.15987,0.31974 -0.15987,0.63948 -0.31974,1.11909 -0.63948,0 -1.27896,0.15987 -1.75856,0.15987 -1.11909,0.15987 -2.23817,0.95921 -3.03751,1.75856 -0.47961,0.15987 -0.79935,0.47961 -1.27896,0.79934 0.31974,-0.15987 0.63948,-0.31973 0.79935,-0.31973 -0.47961,0.63947 -0.95922,1.43882 -1.11909,2.23816 0,0 2.71778,3.35725 7.51385,0.15987 -2.5579,2.23817 -5.75529,3.67699 -8.63293,0.95922 -0.47961,-0.47961 0.47961,-2.0783 0.79935,-2.71778 -0.79935,0.79935 -1.43883,1.75856 -1.75856,2.87765 0,0.15986 0,0.15986 0.15986,0.31973 3.83686,4.79608 9.59215,-0.63947 12.62966,-3.83685 h 0.15987 c 0,-0.15987 0,-0.15987 -0.15987,-0.31974 l 1.43882,-1.43882 c 0.63948,-0.31974 1.27896,-0.47961 1.91843,-0.79935 4.79608,-2.71777 7.83359,-9.112537 10.71123,-13.90861 0.15987,-0.15987 0,-0.319738 -0.15987,-0.479607 0,0 -0.15987,-0.15987 -0.31974,-0.15987 0.47961,-0.959214 0.95922,-1.758559 1.27896,-2.238166 0.4796,-1.119084 -8.7928,3.517118 -12.15005,5.755287 z m -26.3784,-27.497483 c -1.43882,0.639475 -1.43882,6.075026 -1.75856,7.353978 -0.79935,3.517119 -0.79935,6.554633 1.43882,9.272406 -0.63948,-1.119082 -1.11908,-3.357251 -1.27895,-3.836857 0,-0.159869 -0.15987,-0.479607 -0.15987,-0.639478 0.31974,1.758562 1.27895,3.357253 2.39804,4.316467 0,0 0.79934,-0.639478 1.59869,-2.078298 -0.15987,0.479607 -0.47961,1.119084 -0.79935,1.598691 0.63948,-0.799346 0.95921,-1.598691 1.11908,-2.398037 0.47961,-1.438821 0.79935,-3.517121 0.31974,-6.554632 -0.31974,-1.278953 -1.43882,-4.636203 -2.23816,-6.394765 0.15986,-0.159868 0.31973,-0.479606 0.15986,-0.639475 l -0.31974,0.319739 c -0.15986,-0.15987 -0.15986,-0.319739 -0.15986,-0.479609 0,-0.159868 -0.15987,0 -0.31974,0.15987 z m -21.26259,9.112538 c 0,0.159868 0,0.159868 0,0 0.15987,0.159868 0.95922,0 1.75856,-0.959214 2.87764,-2.717775 1.27895,-9.752015 0.47961,-12.789529 0,-0.159868 -0.31974,-0.159868 -0.47961,-0.159868 0,-0.159868 -0.31974,-0.319739 -0.31974,-0.319739 -1.27895,0.319739 -2.0783,4.316467 -2.5579,5.435551 -0.959218,2.557905 -0.959218,4.796071 0,7.034239 0,-0.319738 -0.15987,-0.479607 -0.15987,-0.799345 0.31974,1.119082 0.79934,1.918427 1.27895,2.557905 z m -1.27895,-7.513847 c 0,-0.15987 0.15987,-0.479609 0.4796,-0.799345 -0.15986,0.639475 -0.4796,1.278952 -0.4796,1.758559 -0.15987,-0.479607 -0.15987,-0.799345 0,-0.959214 z m 43.96399,-17.74547 c 0,0.319739 0,0.799346 0.15987,1.119085 0.15987,0.479606 0.31974,1.119084 0.47961,1.598691 -0.31974,-0.799346 -0.31974,-1.438821 -0.47961,-2.238167 0.15987,0.639476 0.47961,1.278953 0.95922,1.918428 0,0 4.15659,-1.119082 3.99673,-9.272406 0,-0.959216 -0.31974,-3.037513 -0.47961,-5.115811 0.31974,-0.799346 0.79935,-1.598691 0.63947,-1.75856 0.79935,5.115812 1.75857,14.228349 -3.51711,17.105993 -0.47961,0.159868 -0.79935,-0.15987 -0.95922,-0.639477 0.15987,0.639477 0.47961,1.119084 0.63948,1.758559 0,0.15987 0,-0.319737 0.15987,-0.479607 6.39476,-1.598691 4.6362,-12.949395 3.83686,-17.745468 0.15986,-0.159868 0.4796,-0.319738 0.4796,-0.319738 0,-0.159869 -0.63948,-0.319739 -0.63948,-0.319739 -0.31973,0 -0.63947,0.15987 -0.79934,0.479609 -0.15987,-0.799346 -0.15987,-1.278955 -0.31974,-1.758561 -0.31974,-1.119083 -3.35725,6.554632 -4.1566,9.592146 -0.63947,1.918427 -0.4796,4.156596 0,6.075023 z m -5.59541,-13.588871 c 0.4796,1.598691 1.27895,3.037513 2.71777,4.156595 0.15987,0.159871 0.15987,-0.639475 0.31974,-0.639475 -0.63948,-0.479607 -1.91843,-2.078298 -2.23817,-2.717775 0.47961,0.479607 0.79935,0.799346 1.27896,1.119084 0,0 3.19738,-3.037512 0.95921,-9.752014 -0.31974,-0.799346 -1.11908,-2.398037 -1.91843,-3.996728 0,-0.479607 0,-0.799344 -0.15987,-0.799344 0.15987,0.159869 0.31974,0 0.31974,-0.15987 1.91843,3.357251 4.47633,8.313192 3.83686,12.629658 0.95921,-4.156596 -1.75856,-9.432276 -3.67699,-12.789526 v -0.319739 l -0.15987,0.159869 c -0.15987,-0.159869 -0.15987,-0.159869 -0.15987,0.15987 l -0.15987,0.159868 v -0.319738 l -0.47961,0.479608 c -0.4796,-0.799345 -0.79934,-1.438822 -1.11908,-1.758561 -0.47961,-0.799345 -1.11908,7.034239 -0.95921,9.911883 0.15987,1.758561 0.79934,3.197382 1.59869,4.476335 z M 126.32824,26.67657 c -0.31974,-0.799346 -2.71778,5.435548 -3.19738,7.673716 -0.47961,2.238167 0.31974,4.636203 1.91843,6.234894 0.15986,0.479607 0.4796,0.799346 0.79934,1.278953 0,0 0.31974,0.319738 0.31974,0.159868 5.43555,-1.918428 3.35725,-10.071751 1.91843,-14.388218 0.15987,-0.159868 0.15987,-0.319736 0,-0.479606 0,0 -0.15987,0 -0.15987,0.15987 -0.15987,-0.319739 -0.95922,0.159868 -0.79935,0.479607 v 0.159868 c -0.15987,0.15987 -0.15987,0.319739 -0.31973,0.319739 0,-0.479607 -0.31974,-1.278953 -0.47961,-1.598691 z m 1.59869,0.959213 z m -0.47961,1.119085 c 1.43882,4.156596 3.35725,9.752014 -0.79934,12.309919 -0.47961,0.319739 -0.95922,0 -1.43883,-0.479607 0.63948,-0.319738 3.67699,-1.918429 3.03752,-7.513846 -0.15987,-0.799346 -0.47961,-2.398037 -0.95922,-3.996728 0.15987,0 0.15987,-0.159868 0.15987,-0.319738 z m -6.07502,-2.877644 0.15987,-0.159868 c 0.31973,0.319738 0.63947,0.479607 0.95921,0.799345 -0.31974,-0.15987 -0.63948,-0.479609 -0.95921,-0.799345 1.59869,-1.598691 2.23816,-3.83686 1.75855,-6.075026 -0.31973,-1.119084 -0.95921,-3.197382 -1.59869,-4.955941 0.15987,-0.479608 0.47961,-1.119084 0.63948,-1.598691 v -0.159869 c -0.15987,0.479607 -0.47961,0.959214 -0.63948,1.598691 -0.63947,-1.75856 -1.27895,-3.037513 -1.43882,-2.557906 -0.4796,1.278953 -1.75856,5.115811 -2.07829,6.554632 -0.63948,5.915157 3.19738,7.353978 3.19738,7.353978 z m 12.78952,8.952669 v -2.398036 c 0,-0.959214 -3.19738,4.316466 -4.15659,6.394764 -0.79935,1.918427 -0.79935,4.636203 0,6.554632 0,0 0.31973,0 0.63947,-0.15987 0,0.479607 0.15987,0.799346 0.31974,1.278952 4.79607,-0.479606 4.79607,-8.952667 4.79607,-12.629656 0,-0.319738 0,-0.479609 0,0 0,3.836858 -0.31973,10.711229 -4.47633,12.30992 -0.63948,0.159868 0,-0.479609 0,-1.119084 0.95921,-0.639478 2.23817,-2.238169 2.71778,-5.755287 0.15986,-0.639477 0.15986,-1.75856 0.15986,-3.037514 0.63948,-0.799344 1.27896,-1.758559 1.43882,-2.078298 0,0 -0.15986,0 -0.15986,-0.159868 -0.47961,0 -0.95922,0.319738 -1.27896,0.799345 z M 98.830762,22.999581 c 0.15986,0.15987 0.31973,0.479607 0.4796,0.639477 0.15987,0.159868 -0.15987,0.159868 0,0.159868 3.357248,-2.078298 3.836858,-5.27568 3.836858,-9.112537 0,-1.438822 1.11908,-6.3947638 0,-7.5138473 0,0 0,0.4796073 -0.15987,0.4796071 l -0.15987,-0.1598691 v 0.1598691 l -0.15987,0.1598691 c -0.15986,1.4388217 0.31974,6.0750251 0.31974,6.8743711 0,1.598691 -0.4796,2.877643 -0.79934,4.476334 -0.15987,0.479607 -1.91843,4.796074 -2.557908,3.836858 -0.15987,-0.159869 -0.15987,-0.319739 -0.31974,-0.479607 0.959218,-1.278953 1.758558,-3.037512 1.918428,-4.796073 0.15987,-1.75856 0,-5.115811 -0.15987,-7.513847 0.63948,-0.799345 1.11909,-1.7585597 1.59869,-2.3980361 0,-0.1598691 0,-0.3197382 0.15987,-0.3197382 -0.47961,0.7993453 -1.11908,1.5986908 -1.75856,2.5579053 -0.15987,-1.5986907 -0.31974,-2.5579051 -0.4796,-2.2381671 -0.799348,1.2789526 -3.197385,5.1158111 -3.676992,6.5546321 -2.398036,6.554633 0.799346,9.752015 0.799346,9.752015 0.319739,-0.319739 0.799348,-0.639477 1.119088,-1.119084 z m -7.194114,-1.119085 c 0.159871,0.159871 0.159871,0.319739 0.319739,0.319739 l 0.159868,0.15987 c 5.595419,-1.918429 3.517121,-9.911884 2.078298,-14.2283489 V 7.8120179 h -0.159868 -0.319739 c 0,-0.1598691 0,-0.4796073 -0.159868,-0.4796071 C 92.915601,7.4922799 92.276126,8.6113634 91.796519,9.8903161 91.636648,9.4107088 91.47678,8.9311016 91.31691,8.7712325 90.997173,7.9718872 88.599137,14.206782 88.11953,16.444948 c -0.479609,2.238168 0.319736,4.796073 1.918427,6.394764 0.159871,0 0.799346,-0.15987 1.598691,-0.959216 z m 1.75856,-6.554632 c -0.159869,-0.799344 -0.639475,-2.717774 -1.119082,-4.156595 0.479607,-0.959215 1.119082,-1.9184294 1.278952,-2.3980365 1.438821,4.1565965 3.197382,10.2316205 -0.959216,12.9493955 -0.319736,0.159868 -0.479607,0.159868 -0.639475,0 0.959214,-1.278952 1.91843,-3.197382 1.438821,-6.394764 z M 62.540475,58.010911 c -0.159868,-0.15987 -0.479607,-0.15987 -0.479607,0.159869 -1.278952,3.676989 -2.238166,7.833585 -2.398037,11.990181 0.319739,-4.316465 2.078298,-9.112538 2.877644,-11.670443 0,0.639476 1.598691,3.517119 1.598691,3.836858 0.479607,1.758559 1.278952,3.35725 1.598691,5.115809 0.319739,1.278955 0.319739,2.717776 0.159868,3.996728 v -0.639475 c -0.639475,-3.357253 -3.35725,-11.830313 -3.836857,-10.55136 -0.639475,2.078298 -2.238166,8.313192 -2.398037,10.391489 0,0.479607 -0.159868,1.119085 -0.159868,1.598692 v -2.238167 2.557905 c -0.15987,7.513846 3.836857,8.313192 3.836857,8.313192 1.438823,-1.918428 2.238169,-4.476335 2.557905,-6.714501 0.799346,-3.197382 0.479609,-6.714503 -0.479607,-10.231621 0.159871,-0.319739 -1.918427,-6.554633 -2.877643,-5.915156 z M 131.44405,29.554213 c 0.79934,0.799346 1.75856,1.438823 2.87764,2.078298 -0.95921,-0.479607 -1.59869,-0.959214 -2.23816,-1.758559 0.79934,0.479607 1.43882,0.799345 1.43882,0.799345 1.91843,-2.557905 2.39803,-6.234894 0.79934,-9.752014 -0.95921,-2.078298 -3.19738,-5.915156 -4.95594,-8.7928 0,-0.319738 0.15987,-0.639476 0.15987,-0.959214 0.63948,1.119083 1.59869,2.717774 1.75856,2.877643 0.95921,1.598691 1.75856,3.197382 2.5579,4.796073 0.95922,1.758559 1.91843,3.35725 2.39804,5.435548 0.31974,1.119084 -0.15987,7.833585 -1.59869,7.353978 0.15987,0 0.15987,0.15987 0.31974,0.15987 0.15987,0 0,0.319737 0,0.159869 3.83686,-5.11581 1.11908,-10.55136 -1.43882,-15.347432 -0.15987,-0.319738 -2.39804,-4.636204 -3.99673,-6.234895 0,-0.159869 -0.15987,-0.319738 -0.47961,-0.4796069 -0.31973,-0.3197382 -0.47961,-0.3197382 -0.63947,0 -0.15987,0.1598689 0,0.3197379 0.15986,0.4796069 0,0.159869 -0.15986,0.479608 -0.15986,0.639477 -0.95922,-1.4388221 -1.75856,-2.3980366 -1.75856,-1.9184295 -0.31974,1.9184295 -0.95922,7.9934545 -0.63948,10.0717525 0.47961,6.075026 3.35725,9.112538 5.43555,10.39149 z M 82.524111,35.3095 c 0.159868,0.15987 0.479607,0.319739 0.639477,0.319739 8.952667,-3.83686 4.955942,-18.544814 2.238167,-25.419185 -0.159869,-0.3197379 -0.319739,-0.159869 -0.319739,0.159869 2.717775,7.034241 5.915157,19.18429 -1.758559,24.140232 1.758559,-1.75856 3.836857,-5.435549 2.877643,-11.990181 -0.319739,-1.91843 -1.91843,-6.554633 -2.877643,-9.432276 0.639477,-1.119084 1.278952,-2.238168 1.119084,-2.238168 0.159868,0.319739 0.479607,0 0.319736,-0.319738 -0.319736,-0.6394759 -0.959214,0.639477 -1.598689,2.078298 -0.15987,-0.479607 -0.319738,-0.799345 -0.479609,-1.119083 -0.639475,-1.438822 -4.156596,9.592144 -4.796071,13.748742 -0.639477,3.996726 0.799346,8.153324 3.676989,10.711228 0,0.159869 0.479607,-0.15987 0.959214,-0.639477 z M 69.734585,47.459551 c 0.479607,-0.319738 0.799345,-0.639477 1.119084,-1.119084 4.476332,-3.35725 4.636203,-8.952669 3.996725,-14.388217 0,-0.479607 -0.799345,-5.595419 -1.598691,-7.513847 0.159871,-0.319738 -1.119082,-1.278952 -1.43882,-0.959215 -0.799346,1.438822 -1.75856,3.357252 -2.557905,5.43555 -0.959216,2.238166 -1.91843,4.636203 -2.238169,5.915155 -1.918427,9.112538 2.717776,12.629658 2.717776,12.629658 z M 73.251703,24.91801 c 0.159871,0.799346 0.799346,2.078298 0.799346,2.398037 0.319738,1.758559 0,3.836857 0.319738,5.595417 0.159871,2.238168 0.639478,4.476334 0.159871,6.714502 0,0.479607 -0.639477,1.75856 -1.278955,3.037512 0.479609,-1.278952 0.639478,-2.717773 0.479609,-4.156596 -0.15987,-2.557905 -0.959216,-8.313192 -1.758561,-11.190835 0.319739,-0.799346 0.799345,-1.598691 1.278952,-2.398037 z M 70.53393,69.681354 c 1.438821,-1.438821 2.238166,-3.357251 2.238166,-5.435549 0.479607,-1.438822 0.479607,-2.877643 0,-4.636205 -0.319738,-1.43882 -1.119084,-5.435548 -2.557904,-6.075023 -0.159869,0 0,0.319736 0,0.319736 v 0.159871 c -0.319739,0.319738 0.159868,0.639475 0.319738,0.479607 -0.15987,0.159868 1.918428,4.636203 2.078298,5.27568 0.319739,0.959214 0,2.078298 -0.15987,3.037512 -0.639475,-2.717774 -2.717773,-7.993454 -3.037512,-7.194108 -0.319739,0.959214 -1.119084,3.197382 -1.598691,4.955941 0.319739,-2.398036 1.278952,-4.955941 2.078298,-6.714503 0.15987,-0.319736 -0.319739,-0.639475 -0.479607,-0.319736 -1.119084,2.557905 -2.398037,6.394762 -2.078298,9.592144 -0.319739,5.27568 3.197382,6.554633 3.197382,6.554633 z M 65.577989,58.330648 c 0.639475,-1.119082 0.959214,-2.398035 1.278952,-3.517119 1.75856,-4.636205 0.479607,-8.63293 -1.91843,-13.109265 0.319739,0.799346 0.639478,1.598691 1.119085,2.398037 1.119084,2.238166 1.43882,4.316464 1.278952,7.034239 0,0.479607 0,1.119082 -0.159868,1.918428 0.159868,-1.918428 -0.159871,-3.676989 -0.799346,-5.275678 -1.119084,-2.398037 -4.156596,-7.513848 -5.755287,-9.432276 0.159869,-0.799346 0.319737,-1.598691 0.319737,-2.398037 h 0.479609 c 0,0.159869 1.278952,1.918428 1.918427,2.877644 -1.119082,-1.91843 -2.398036,-4.156596 -3.037511,-3.517121 -0.159871,0 -0.319739,0.15987 -0.319739,0.159868 -0.159868,0.639478 -0.159868,1.278955 -0.319739,2.0783 0,0 -0.159868,0 -0.159868,0.159869 -0.319738,2.238168 -0.799345,8.792798 -0.639477,10.871098 1.119084,9.592145 6.714503,9.752013 6.714503,9.752013 z m 64.107501,47.481122 c -0.95921,0.31974 -1.91843,0.79934 -2.55791,1.59869 -1.27895,0.4796 -2.23816,1.43882 -3.03751,3.03751 h 0.15987 c 3.51712,3.35725 8.47306,-0.95921 11.03097,-3.67699 0.31973,-0.31974 0.15987,-0.47961 -0.15987,-0.31974 l 1.43882,-1.43882 c 0.47961,-0.47961 -4.95594,0.15987 -6.87437,0.79935 z m -4.95594,4.31646 c -0.31974,-0.15987 0.63947,-0.79934 1.43882,-1.27895 -0.15987,0.15987 -0.15987,0.47961 -0.31974,0.63948 0,0 2.39804,2.07829 6.55463,-0.63948 -2.39803,1.91843 -5.27568,3.03751 -7.67371,1.27895 z m 23.66062,-22.701409 c -0.63947,0.159871 -2.87764,-3.996727 -3.19738,-4.955941 0.31974,0.959214 0.63948,1.758559 0.95921,2.717775 0.31974,0.639475 1.43883,3.357251 2.39804,3.357251 1.75856,-0.159871 3.35725,-0.959214 4.79607,-2.078298 -0.95921,0.639475 -2.0783,1.278952 -3.35725,1.598691 -0.47961,0.159868 -1.11908,-0.639478 -1.59869,-0.639478 z m 4.95594,-0.959213 c 3.83686,-2.557905 5.91516,-6.554633 6.87437,-11.350706 l -0.95921,2.877643 c -1.27895,3.197383 -3.35725,6.394765 -5.91516,8.473063 z M 118.01504,74.477427 c 2.23817,-2.557907 3.19739,-6.394764 3.51713,-10.55136 -0.15987,1.758559 -0.47961,3.35725 -0.95922,4.955941 -0.63948,1.91843 -1.43882,3.836857 -2.55791,5.595419 z m -3.03751,2.238166 c -2.0783,0.959214 -2.87764,-1.91843 -3.51712,-3.836857 -0.63947,-1.758562 -0.95921,-3.517121 -0.95921,-5.435551 0.47961,3.197382 1.75856,6.554633 3.51712,9.11254 0,0 8.15332,-1.598691 7.19411,-17.105993 -0.15987,-2.877643 -1.91843,-11.350706 -2.87765,-15.66717 l 0.31974,-0.639477 c 1.11909,5.115812 3.19738,13.429004 2.87765,20.782982 0.63947,-7.03424 -0.79935,-14.548088 -2.23817,-20.94285 0,-0.159871 -0.15987,-0.159871 -0.15987,-0.159871 -0.31974,-0.479606 -0.63948,-0.319736 -0.95921,0 0,-0.159868 0,-0.319736 -0.15988,-0.319736 -0.63947,-2.238168 -6.07502,11.990181 -7.35397,17.585599 -0.15987,0.799344 -0.31974,1.75856 -0.31974,2.717774 v 0.15987 c -0.63948,4.955941 0.79935,10.231619 3.19738,14.388217 0,0.159869 0.15987,0.159869 0.31974,0.159869 1.75856,-0.319739 3.19738,-1.438823 4.31647,-3.037512 -0.95922,0.959214 -2.0783,1.758559 -3.19739,2.238166 z M 100.74918,57.051696 C 99.630102,48.898372 93.555078,41.544394 88.918875,35.3095 c 0.319737,-0.159868 0.479607,-0.639475 0.319737,-0.799345 -0.799346,-0.799346 -1.278953,0.799345 -1.438821,1.598691 l -0.319739,-0.319739 c -1.438822,-1.598691 -0.639477,15.507302 0.319739,21.742195 0.959214,5.915158 4.636203,11.030968 9.272406,13.269136 0,0.159868 0.15987,0.159868 0.15987,0.159868 3.357253,-3.35725 3.996723,-9.272408 3.517113,-13.90861 z m -3.836852,-7.194108 c -1.278952,-2.717775 -5.755287,-9.11254 -8.313191,-12.46979 0,-0.639475 0,-1.758559 -0.159871,-1.91843 0.159871,0.159871 0.319739,0 0.319739,0 3.676989,4.955944 7.19411,10.391492 9.432276,16.306647 0.799341,2.238169 1.438821,4.636205 1.598691,7.19411 -0.47961,-2.717775 -1.27895,-5.755287 -2.877644,-9.112537 z m -11.99018,5.435548 c -0.799346,-6.874371 -3.83686,-13.588872 -7.03424,-19.504029 0.159868,-0.159868 0.319739,-0.479607 0.319737,-0.639475 -0.479607,-0.639477 -0.799344,0.319738 -0.959214,1.119082 0.15987,0 0.479607,-0.159868 0.639477,-0.479607 2.877644,5.595419 6.075026,12.629658 7.03424,19.504029 z M 74.530656,48.738504 c -0.319737,3.35725 -0.479607,7.034239 -0.319737,10.55136 v 0.959214 c 0.319737,6.234894 3.037512,11.670444 7.03424,13.90861 0,0 3.35725,-3.836857 3.676989,-11.350705 V 62.647114 C 85.082016,59.6096 84.602409,55.932611 83.323457,51.776015 82.364243,48.738504 78.527383,41.384526 76.768824,38.027275 c 0,-0.15987 0,-0.319738 0.159868,-0.479607 0,-0.15987 0.159871,-0.639477 0.159871,-1.278954 h -0.159871 c 0.159871,0.15987 -0.159868,0.959216 -0.319738,1.438823 -0.159869,-0.159869 -0.319737,-0.479607 -0.319737,-0.639478 -0.639477,-1.119082 -1.278952,4.955942 -1.758561,11.350706 0.15987,0.15987 0.15987,0.15987 0,0.319739 z m 10.55136,13.90861 c 0.319739,-2.398036 0.15987,-4.796073 -0.159868,-7.194109 0.159868,1.438822 0.319738,2.717775 0.319738,4.156595 0,0.799346 0,1.91843 -0.15987,3.037514 z M 113.85845,45.541122 c 0.63948,-0.159869 1.43882,-0.959214 2.23817,-2.238167 -0.63948,0.799344 -1.43883,1.598691 -2.23817,2.238167 z m 0,0.15987 c 0,0 -0.15987,0 0,0 0,-0.15987 0.15987,-0.15987 0.15987,-0.15987 -0.15987,0 -0.31974,0 -0.47961,-0.159869 0,0.159869 0.15987,0.319739 0.31974,0.319739 z M 113.37884,7.971887 c 0.15987,0 0.15987,0 0,0 0.15987,0 0,0 0,0 -0.15987,0.3197382 -0.15987,0.3197382 0,0 z m 0.47961,37.888973 c 0,0 0.15987,0 0,0 z m -37.409365,60.59038 c 0,0 2.238169,-4.95594 -0.799345,-10.711227 C 75.330001,94.780799 75.010265,93.821586 74.530656,92.86237 70.693798,85.82813 62.060868,81.991273 55.346367,79.433368 c -0.319738,-0.15987 -0.479609,0.479607 -0.15987,0.639475 5.43555,2.238169 13.429004,5.915158 17.585599,11.670445 -0.959213,-0.959216 -1.918427,-1.91843 -3.197382,-2.717775 -2.557905,-1.75856 -11.030967,-5.595419 -13.90861,-6.554633 h -0.159868 c -0.319739,-0.959214 -0.639478,-1.598691 -0.639478,-1.598691 0.319739,0 0.479609,-0.639475 0.159871,-0.639475 -2.078298,-0.479609 2.717773,11.510574 3.037511,12.469788 1.278953,3.037511 3.037514,6.394764 5.435551,8.632928 2.877643,3.67699 7.833585,5.75529 12.949394,5.11581 z M 59.98257,95.580145 c -0.319739,-0.639477 -0.639477,-1.438821 -0.799345,-2.238166 0.959213,2.078298 1.918429,3.996725 2.877643,5.435548 -0.799346,-0.959214 -1.598691,-2.078298 -2.078298,-3.197382 z m 68.74371,-2.398037 c -0.31974,-0.799345 -0.47961,-1.43882 -0.63948,-2.238166 0.15987,0.959214 0.31974,1.75856 0.63948,2.238166 z m 2.39803,4.316467 c 0.63948,-1.119084 1.43882,-2.238169 1.91843,-2.717776 -0.63948,0.639478 -1.27895,1.598692 -1.91843,2.717776 z m -0.63948,1.598691 c 0.15987,-0.639477 0.47961,-1.119084 0.79935,-1.598691 -0.47961,0.479607 -0.79935,1.119084 -0.79935,1.598691 z m -11.83031,19.663894 c -0.95921,0.31974 -1.91843,0.79935 -2.5579,1.59869 -0.15987,0.15987 -0.63948,0.79935 -1.11909,1.59869 0.95922,-1.43882 2.23817,-2.39803 3.67699,-3.19738 z m 11.67044,-47.481115 c -0.15986,0 -0.15986,0 0,0 -0.15986,0 -0.15986,0 0,0 -0.31973,0 0,0.159868 0,0 z m 3.67699,-7.03424 c 0.31974,-6.075025 -2.87764,-12.46979 -5.43555,-17.585599 -0.15986,-0.319739 -0.63947,-0.159871 -0.4796,0.159868 1.59869,3.35725 3.99673,8.473062 4.6362,13.269135 -0.15987,-1.119084 -0.47961,-2.238168 -0.79934,-3.51712 -0.63948,-1.91843 -2.71778,-6.554633 -3.99673,-9.272408 0.15987,0 0.15987,-0.159868 0,-0.319737 -0.15987,-0.15987 -0.15987,-0.15987 -0.31974,-0.15987 -0.15987,-0.319739 -0.31974,-0.799345 -0.47961,-0.959214 -0.4796,-0.799345 -0.95921,2.877644 -1.27895,6.874371 -0.15987,0.479607 -0.15987,0.959214 -0.15987,0.959214 -0.79934,6.554633 -0.31974,12.629658 4.47634,17.425731 2.23816,-1.438822 3.67698,-4.316466 3.83685,-6.874371 z m -6.55463,2.717773 c -0.31974,-0.479606 -0.47961,-1.119082 -0.63947,-1.758559 0.79934,1.91843 2.07829,3.676989 3.51711,4.955942 0,0 0.63948,-0.479607 1.11909,-1.438821 -0.31974,0.639475 -0.79935,1.119082 -1.27895,1.598691 -0.79935,1.119082 -2.39804,-2.557907 -2.71778,-3.357253 z m -22.38167,-7.993453 c 6.07503,-6.075025 0.15987,-16.626385 -3.51712,-21.902066 -0.15987,-0.319736 -0.63948,0.159871 -0.47961,0.479609 3.35725,4.955942 8.31319,13.429002 4.63621,19.663898 0.95921,-2.078298 1.59869,-5.755287 -0.63948,-11.030967 -0.63948,-1.598691 -2.87764,-4.955942 -4.31647,-7.03424 0,-0.479608 0,-0.959215 -0.15986,-0.959215 0.31973,0.319738 0.63947,-0.319739 0.31973,-0.479607 -0.31973,-0.319739 -0.4796,0.159868 -0.79934,0.799345 -0.159868,-0.159868 -0.319738,-0.479607 -0.479608,-0.479607 -0.79934,-0.959213 -0.95921,9.432276 -0.47961,13.269134 0.31974,3.197382 2.078298,6.075025 4.316468,7.513848 0.31974,0.319737 0.63948,0.479607 1.11908,0.799343 0.47961,-0.319736 0.47961,-0.479606 0.47961,-0.639475 z M 68.775369,78.474152 c 0,0.159871 0.15987,0.479609 0.15987,0.639478 0.159868,0.959213 0.159868,1.758559 0.159868,2.078298 0.319739,1.119084 0.639478,2.238166 1.119085,3.35725 0.159868,0.319739 0.319738,0.799346 0.319738,0.959216 1.119082,2.877643 3.836857,4.796071 6.714501,4.955941 0,0 1.598691,-2.557907 0.639477,-6.234896 -0.639477,-4.796071 -6.075025,-8.952667 -9.432276,-11.350703 0,0 0,-0.159871 -0.15987,-0.159871 h -0.159868 -0.159871 c -0.159868,0.159871 -0.319736,0.479609 -0.319736,0.639478 0,1.278952 0.639475,3.676989 1.119082,5.115809 z m 5.915157,0.799346 c -1.598691,-1.438821 -4.955941,-3.836857 -6.234894,-4.636203 h -0.15987 v -0.639477 c 2.078298,1.278954 4.636205,3.037514 6.394764,5.27568 z m 14.548086,0 c 0,0.319739 0.639477,0.319739 0.479607,-0.159868 -0.159869,-0.479607 -0.479607,-0.479607 -0.799344,-0.159869 -0.15987,0 -0.319738,0 -0.319738,0.159869 -1.278953,0.799345 -3.197382,3.037511 -3.357251,3.197382 -0.639477,0.799345 -1.438823,1.598691 -1.918429,2.398036 0.959213,-0.959216 2.557904,-1.598691 3.517118,-2.557907 0.159871,-0.159868 1.119084,-1.119082 1.758562,-1.918427 v 0.319738 c -1.598691,1.598689 -4.316467,4.955942 -5.435551,6.714501 -1.278952,2.078298 -1.598689,4.796073 -1.119082,7.513846 -1.119084,0 -0.319738,-1.43882 -0.479607,-2.398036 -0.15987,-1.918428 -0.15987,-3.836857 0.479607,-5.435548 -1.278952,2.398036 -1.758561,5.115811 -0.959216,8.473062 v 0.159868 c 0.319739,0 0.639478,0.15987 0.959216,0.15987 0,0.319737 0.159868,0.479607 0.159868,0.799344 0,0 4.636203,0.959216 6.554633,-7.03424 0.479607,-1.758559 0.959214,-7.353978 0.959214,-9.272405 0,-0.319739 -0.159869,-0.159871 -0.479607,0 -0.159868,-0.319739 0,-0.479607 0,-0.959216 0,0.15987 0,0.15987 0,0 z m -6.554633,6.075026 c -0.319736,0.479606 -0.639475,0.959213 -0.799345,1.598691 0.319738,-0.799346 0.799345,-1.438823 1.278954,-2.078298 z m 31.813951,25.419186 c 0.15986,0 0.15986,-0.79935 0.15986,-0.79935 l 0.15987,-0.15987 c -0.79934,-0.4796 -2.23816,-2.5579 -2.5579,-3.03751 -1.43882,-1.59869 -2.23817,-3.51712 -2.71778,-5.59542 -0.31973,-1.438819 0,-2.87764 -0.15987,-4.156592 0,-0.479609 -0.15986,-1.758562 -0.4796,-2.717775 0.15987,0.159868 0.31974,0.319738 0.4796,0.639475 0.31974,2.398036 0.95922,6.554632 1.5987,8.473062 0.63947,2.39804 2.23816,4.47633 4.31646,5.75529 -0.15987,0.31974 -0.31974,0.4796 -0.47961,0.79934 0.15987,0.15987 0.31974,0.15987 0.47961,0 0.15987,-0.15987 0.15987,-0.4796 0.31974,-0.63947 l 0.95921,0.4796 c 0,0 2.87765,-3.35725 -1.27895,-10.231617 -0.95921,-1.598691 -4.31646,-5.435551 -5.43555,-6.714503 -0.15987,-0.159868 -0.31974,0.15987 -0.15987,0.799345 l -0.4796,-0.479607 c 0.15986,-0.319738 0.31973,-0.639475 0.15986,-0.799345 l -0.15986,0.15987 c -0.15987,0 -0.63948,-0.319738 -0.79935,-0.319738 -1.11908,0.799345 0.95921,6.554632 1.11908,7.673716 0.47961,4.476329 1.11909,8.792799 4.95595,10.871099 z m 8.31319,-24.93958 c 0,0 0.15987,-0.159868 0,0 0.15987,-0.159868 0.15987,-0.159868 0,0 0,-0.159868 -0.15987,0 0,0 z m 0.15987,-0.159868 h 0.31973 c 0.47961,-0.319738 0.79935,-0.799345 0.95922,-1.278952 -0.31974,0.479607 -0.79934,0.959214 -1.27895,1.278952 z m -0.47961,-0.639477 c 0.15987,0.319739 0.31974,0.479609 0.47961,0.639477 v -0.15987 c -0.15987,-0.159868 -0.47961,-0.319737 -0.47961,-0.479607 z m -1.75856,15.986905 c 1.27895,-0.15986 2.0783,-0.63947 2.87764,-1.438817 1.11909,-0.799346 2.55791,-2.557905 2.71778,-6.234894 0,-1.438823 -0.63948,-5.435551 -0.95922,-6.714503 0,-0.159868 -0.15987,-0.159868 -0.4796,0.15987 -0.15987,-0.15987 -0.31974,-0.15987 -0.47961,-0.15987 -1.43882,0.15987 -3.51712,4.476334 -4.1566,5.595419 -1.59869,2.877643 -1.91843,6.394762 0,9.272405 -0.15987,0.15987 0.31974,-0.47961 0.47961,-0.47961 z m -0.15987,-6.394759 c -0.31974,1.75856 0,3.676989 1.11908,5.27568 -0.31973,0.159869 -0.4796,0.319739 -0.79934,0.319739 -0.63948,0.15987 -0.31974,-0.15987 -0.63948,-0.799348 -0.79934,-1.598691 -0.31974,-3.19738 0.31974,-4.796071 z m 15.02769,15.827039 c 0,0 0,0.15987 0,0 l 0.31974,-0.31974 c 0,0.15987 -0.15987,0.15987 -0.31974,0.31974 z m 11.03097,-0.63948 c -0.15987,0.31974 -0.15987,0.47961 0,0 z M 101.22879,77.514939 c -0.31974,-0.479607 -0.47961,-0.959214 -0.79934,-1.438823 0.31973,0.639477 0.4796,1.119084 0.79934,1.438823 z m 0,0.159868 h 0.15987 c -0.15987,0 -0.15987,0 -0.31974,-0.159868 0.15987,0 0.15987,0 0.15987,0.159868 0.15987,0 0,0 0,0 z m 12.9494,18.384945 c 0,0 0.15987,0.799345 0.31974,0.799345 1.43882,-0.479606 2.07829,-1.758559 2.5579,-3.197382 0.47961,-1.119082 0.95921,-2.877643 0.63948,-5.435548 -0.15987,-1.438821 -1.27895,-5.27568 -1.59869,-6.554633 0,-0.159868 -0.15987,0 -0.31974,0.159871 -0.31974,0 -0.95922,0.159868 -0.95922,0.479607 v 0.159868 c -0.95921,1.119084 -1.43882,3.676989 -1.75856,4.796073 -0.95921,3.357251 -0.63947,6.075026 1.11909,8.792799 z m 0.79934,-12.30992 c -0.4796,1.758562 -1.11908,4.316467 -1.27895,5.595419 -0.31974,2.078298 0.31974,4.476335 1.43882,6.075026 l -0.31974,0.319738 c -1.11908,0.959214 -1.27895,-2.0783 -1.59869,-2.717775 -0.4796,-1.598691 -0.79934,-3.197382 -0.4796,-4.796073 0.31973,-0.799346 1.59869,-3.037512 2.23816,-4.476335 z m -6.7145,-6.7145 c -1.27895,3.35725 -4.31646,12.309919 0.31974,14.707956 0.15987,0 0.15987,-0.479607 0.31974,-0.479607 0.15987,-0.159871 0.31974,-0.319739 0.4796,-0.639477 0.31974,0.159868 0.47961,0.319738 0.47961,0.319738 1.27896,-1.598691 2.0783,-4.156596 1.75856,-6.234894 -0.15987,-1.119084 -0.63947,-3.197382 -0.95921,-4.796073 -0.15987,-1.438823 -0.31974,-3.037512 -0.95922,-3.35725 -0.15987,0 -0.63947,0.319738 -0.79934,0.319738 v 0.159869 c -0.31974,-0.159869 -0.47961,-0.159869 -0.63948,0 z m -0.4796,5.915155 c 0,0.319739 -0.15988,0.479609 -0.15988,0.799345 -0.4796,3.197383 0.15988,5.115812 0.79935,6.075026 -1.43882,-1.758559 -1.27895,-4.316464 -0.63947,-6.874371 z m 28.13695,-42.045568 c -0.95921,-1.438823 -1.91843,9.592144 -1.59869,13.74874 v 0.959216 c 0,0.159868 0,0.479607 0.15987,0.639475 0.15987,1.278952 0.47961,2.557905 0.79935,3.676989 -0.15987,-0.479607 -0.15987,-1.119084 -0.31974,-1.598691 0.95921,2.717775 2.71777,5.115812 5.11581,6.874371 0,0 2.55791,-1.438823 2.87764,-5.595419 -0.15987,2.238169 -0.79934,4.316467 -2.71777,5.915158 -0.47961,0.319738 -0.79935,0.319738 -1.27896,0.159868 0.31974,0.319739 0.63948,0.639477 1.11909,0.959214 -1.11908,1.119084 -3.35725,3.836859 -5.59542,6.714503 -0.47961,0.479607 -0.79934,0.799345 -0.79934,0.959213 -3.99673,4.796074 -7.03424,10.231622 -5.59542,16.626386 -0.15987,-1.438823 -0.15987,-3.037514 0,-3.836859 0,-1.438821 0.4796,-2.717773 0.95921,-3.836857 -0.79934,3.197382 -0.47961,6.554632 0.79935,9.272407 0,0 4.47633,-0.479609 7.83358,-5.915157 -1.59869,3.35725 -3.99672,6.075026 -7.83358,7.034239 -0.47961,0.159871 -0.79935,0 -1.11908,-0.479607 0,0.159871 0.15986,0.319739 0.15986,0.479607 0,0.159871 -0.15986,0.639478 -0.15986,0.639478 3.03751,-0.159869 5.75528,-2.877644 7.67371,-5.435549 4.1566,-5.595418 5.11581,-13.90861 5.11581,-20.782981 0,-0.319739 -0.47961,-0.319739 -0.63948,-0.319739 v -1.438821 c 2.0783,-1.438823 3.03752,-4.316466 3.19739,-6.874371 0.15986,-6.075025 -4.1566,-12.150051 -7.03424,-17.105992 0.15987,-0.159869 0.31974,-0.319739 0.15987,-0.479607 -0.15987,-0.159869 -0.31974,-0.159869 -0.63948,0 -0.15987,-0.319739 -0.47961,-0.639478 -0.63948,-0.959214 z m 0.63948,21.902064 c 0.47961,0.639477 1.43882,2.398036 2.5579,2.877643 -1.75855,-1.758559 -2.87764,-3.676989 -3.67698,-5.755287 0.15986,1.119084 0.4796,2.078298 1.11908,2.877644 z m 5.11581,-20.623112 c 0.15987,0.159869 0.31974,0.159869 0.47961,0 0.95921,-1.119084 1.43882,-2.238168 1.59869,-3.51712 -0.31974,1.278952 -0.95922,2.557904 -2.0783,3.51712 z M 122.49138,12.60809 c -0.15987,0 -0.15987,-0.479607 -0.31974,-0.479607 0,0 0.15987,0.319738 0,0.319738 -0.31974,0.319739 -0.31974,0.319739 0,0 v 0.479608 c 0.31974,-0.159869 0.31974,-0.159869 0.31974,-0.319739 z m 0.15987,13.908611 c 0,0 -0.15987,0 0,0 -0.15987,0 0,0 0,0 z m 1.43882,-7.833585 c 0.31974,1.119083 0.63948,2.078298 0.63948,3.357251 0,0.799345 -0.95922,4.955941 -2.0783,4.476334 0.15987,0 0.15987,0.159869 0.31974,0.159869 0.15987,0 0.15987,0.319738 0.15987,0.159868 2.5579,-2.398035 2.5579,-5.11581 1.59869,-8.47306 -0.31974,-1.438823 -0.79935,-4.955942 -2.0783,-5.755288 0,0.15987 -0.15987,0.319739 -0.15987,0.479608 0.31974,1.598691 1.43882,5.27568 1.59869,5.595418 z m -1.43882,-6.075026 c 0.15987,-0.319738 0,-0.319738 0,0 0,0.15987 0,0 0,0 z m 12.94939,21.262589 z m -0.15986,-0.15987 c 0,0 -0.15987,0.15987 0,0 v 0.319739 c 0.15986,0 0,-0.319739 0,-0.319739 z m -4.47634,12.949397 c 0,-0.159871 0,-0.159871 0,0 h -0.15987 c -0.15987,-0.159871 0.15987,0 0.15987,0 z M 102.82748,7.3324108 c 0,-0.1598691 -0.15987,-0.3197382 -0.15987,-0.3197382 -0.31974,0.3197382 -0.15986,0.6394764 0.15987,0.3197382 0,0.1598691 0,0.1598691 0,0 z m 0,0 c 0,0 0.15987,0.1598691 0,0 0.31974,0 0.15987,-0.1598691 0,0 z m 2.39804,14.5480852 v 0.319739 c 0,-0.159868 0.15987,-0.319739 0,-0.319739 z m -1.91843,0 c 0,-0.959213 -3.19738,4.316467 -4.156598,6.394765 -0.4796,0.959214 -0.63947,1.918429 -0.63947,3.037511 -0.799348,-3.037511 -2.398039,-5.915155 -3.676992,-7.993453 0,-0.15987 0.159869,-0.319738 0,-0.479607 v -0.15987 c 0,0 -0.479606,0.15987 -0.639477,0.15987 -0.479607,0.319739 -0.639475,0.959214 -0.959214,1.918428 -0.159868,-0.319737 -0.479606,-0.639475 -0.479606,-0.959214 -0.479607,-0.799345 -1.119085,7.03424 -0.959214,9.911883 0.159868,2.717775 1.598689,5.27568 3.517118,6.394764 0,0 0.159869,-0.15987 0.479607,-0.639477 l 0.479607,0.479607 c 0.159871,0.15987 0.479609,0.479609 0.479609,0.319739 1.598692,-1.438821 2.078302,-3.357251 2.078302,-5.435549 0.15986,0 0.31973,0 0.79934,-0.319738 v 0.15987 c 0,0.159868 0.15987,-0.15987 0.31974,-0.319739 0,0 0.159868,0 0.159868,-0.15987 0.15987,0.15987 0.31974,0.319739 0.63947,0.319739 0.63948,-0.159869 1.27896,-0.639476 1.59869,-1.119085 -0.63947,0.479609 -1.27895,0.799346 -2.23816,0.959216 0.95921,-0.639477 2.23816,-2.238168 2.71777,-5.595418 0.47961,-0.799346 0.47961,-2.557905 0.47961,-3.996728 0.31974,-0.479607 0.79935,-0.959214 1.11908,-1.438821 0,3.357251 0.15987,7.833585 -1.75856,10.231622 2.71778,-2.238169 2.55791,-8.313192 2.55791,-11.350706 v -0.159868 c 0,-0.159871 0,-0.159871 -0.15987,-0.319739 -0.31974,-0.159868 -0.63948,0 -0.63948,0.159868 -0.31973,0.159871 -0.79934,0.639478 -1.11908,0.959216 z m -6.7145,17.425732 c 0,0.159868 -0.159868,0.159868 -0.319737,0 0.799344,-1.438823 1.75856,-4.156596 0.159869,-8.632931 -0.319739,-0.799345 -1.119085,-2.557905 -2.078298,-4.156596 0,-1.278952 0,-2.557907 -0.159871,-2.557907 0.159871,0.159871 0.479609,-0.159868 0.639477,-0.319736 2.557905,4.156596 5.59542,11.030967 1.75856,15.66717 z m 37.88897,-7.513847 c 0,0 -0.15987,-0.15987 -0.31974,-0.15987 0.15987,0 0.15987,0.15987 0.31974,0.15987 z M 57.584533,55.453005 c -0.479606,-2.717774 -1.119084,-5.595417 -2.078297,-8.313192 -0.159869,-0.479607 -1.278953,-1.438823 -1.75856,-0.639478 0,0.159871 0,0.319739 0.159868,0.479609 -2.238166,6.554633 -5.595416,14.228347 -4.796071,21.262587 0.159869,1.119084 0.479607,2.398036 0.959214,3.517121 1.119082,5.755287 4.316464,6.7145 4.316464,6.7145 2.078298,-3.037511 3.357253,-7.034239 3.517121,-10.871096 0.799346,-3.676989 0.479607,-7.833585 -0.319739,-12.150051 z m -7.513846,8.153323 c -0.15987,0.639477 -0.15987,1.438823 -0.15987,2.078298 0,-0.959214 0,-1.758559 0.15987,-2.557905 0.319739,-2.717775 1.119082,-5.595419 2.078298,-8.313192 -0.959214,3.357251 -1.91843,7.03424 -2.078298,8.792799 z m 3.836857,-14.068479 c 0.319739,-0.639477 0.479607,-1.438823 0.799346,-2.078298 0,0 0.15987,0 0.159868,-0.15987 -0.159868,0.319739 0.959216,3.996728 1.119084,4.955943 0.639478,2.557905 0.959216,5.11581 1.278953,7.673715 0.15987,0.959216 0.15987,1.91843 0.15987,2.877644 C 56.785188,58.17078 54.86676,51.13654 53.907544,49.537849 Z m 11.030967,-7.993455 c -0.319738,-0.799343 -0.799345,-1.758559 -1.119084,-2.398035 0,0 -0.159868,-0.15987 -0.319736,-0.479608 0.639475,1.119084 1.119082,2.238168 1.278952,2.398036 0,0.15987 0,0.319739 0.159868,0.479607 z M 91.47678,83.909703 c 0.159868,0 0.319739,0 0.479607,-0.159871 v 0.159871 c 0,0 2.717775,-0.319739 4.156596,-4.636205 0.799345,-2.398035 1.119084,-5.27568 1.278952,-7.194108 0,-0.15987 -0.159868,-0.15987 -0.159868,-0.319738 0,-0.159869 -0.479607,-0.639478 -0.479607,-0.639476 -1.119084,0 -2.557907,3.517119 -3.197382,4.476333 -1.758559,2.398036 -3.037512,4.636205 -2.078298,7.833587 0,-0.15987 -0.15987,0.479607 0,0.479607 z M 96.59259,72.07939 c 0,0.159869 0.15987,0.159869 0.319738,0.159869 v 0.15987 c -0.159868,0 -0.479606,0.319736 -0.799345,0.799345 0.319739,-0.479609 0.479607,-0.959215 0.479607,-1.119084 z m -4.955942,7.513847 c 0.159871,-1.119085 0.959214,-2.238167 1.598691,-3.197383 0.319739,-0.319736 1.438823,-1.598691 2.398037,-2.717773 -1.119084,1.438821 -2.398037,3.357251 -3.037514,4.476335 -0.799343,1.438821 -0.959214,3.35725 -0.639475,4.955941 -0.639477,0.159869 -0.479607,-3.197382 -0.319739,-3.51712 z m 32.453422,31.014603 c 0,0 0,-0.15987 0,0 z M 90.677435,69.361615 c 0,-0.319739 -0.159871,-0.319739 -0.159871,0 2e-6,0.319739 -0.159868,0.639477 -0.159868,0.959214 v -0.319737 c 0.159868,-0.959216 -5.595419,3.676989 -7.513846,5.755287 -1.278953,1.438821 -1.91843,3.357251 -1.758562,5.27568 -0.639475,-0.479609 -0.159868,-3.197382 0,-3.836859 0.479609,-1.758559 2.0783,-2.717773 3.357253,-3.836857 0.319736,-0.319739 5.755287,-3.676989 5.755287,-3.996728 0,0.319739 0,0.319739 0,0 -0.159871,-1.438821 -4.156596,2.078298 -4.476335,2.238168 -3.197382,2.398035 -6.234894,5.275678 -5.115812,9.911883 0,0.159868 0.159871,0.319739 0.319739,0.479607 h 0.479607 c 0,0.159868 0.15987,0.479607 0.15987,0.639475 0,0 4.796071,0.639478 7.353978,-5.595416 0.319737,-0.639478 0.639475,-2.078298 0.959214,-3.517121 0.319739,-1.438821 0.639477,-2.877644 0.799346,-4.156596 z"
       fill="#1ca538"
       id="path1-7"
       style="fill:#228b22;fill-opacity:1;stroke-width:0.206706" /><path
       d="m 115.45714,122.27828 c 4.31647,-8.31319 14.06848,-18.0652 14.22835,-22.541539 0,-0.799346 -15.66717,16.146779 -16.94612,20.143509 -3.35726,10.55136 -6.07503,7.35397 -6.39477,10.23162 -3.51712,-0.79935 -7.993448,-5.75529 -8.473058,-7.19411 -0.639475,-2.0783 -4.955941,-7.19411 -4.955941,-7.19411 -0.799346,-4.95594 0.959216,-16.466516 -1.918428,-2.39804 -7.353978,-8.47306 -9.592146,-16.626381 -9.432276,-13.748737 0.479607,5.595417 8.47306,14.388217 14.388218,27.977087 6.874365,15.98691 4.636205,55.31471 -5.915158,67.94436 5.755287,0 30.854733,0.31974 30.854733,0.31974 -11.51058,-7.19411 -13.26914,-58.19235 -5.43555,-73.53978 z"
       fill="#65320b"
       id="path2-6"
       style="fill:#8b4513;fill-opacity:1;stroke-width:0.206706" /><path
       id="rect140"
       style="fill:#fef6e9;stroke-width:4.96369"
       d="m 65.0243,135.99901 h 71.82523 v 50.48585 H 65.0243 Z" /><path
       style="font-stretch:ultra-expanded;font-size:28.0082px;font-family:'Wide Latin';-inkscape-font-specification:'Wide Latin Ultra-Expanded';fill:#d35400;stroke-width:2.80081"
       d="m 13.678238,176.16736 v -9.3543 q 2.502685,2.87193 6.878967,4.48569 4.389957,1.61375 9.682522,1.61375 5.566082,0 5.566082,-1.49067 0,-0.69747 -0.752173,-0.92996 -0.738497,-0.24616 -3.569404,-0.46498 l -4.075412,-0.31454 q -7.111457,-0.53336 -10.051771,-1.70949 -4.677151,-1.87359 -4.677151,-5.30624 0,-3.22751 3.131777,-5.06007 3.145452,-1.83257 8.656831,-1.83257 5.306241,0 9.518412,1.46332 l 0.779525,0.27351 5.237861,-1.61375 v 7.89098 q -7.343947,-4.78656 -15.645205,-4.78656 -5.005372,0 -5.005372,1.49068 0,0.69747 1.217153,1.05304 1.217154,0.35557 4.58142,0.62909 l 3.966005,0.31454 q 7.46703,0.60174 9.997067,1.80522 4.239522,2.02403 4.239522,5.41565 0,3.03604 -3.364266,4.84126 -3.35059,1.79154 -9.012404,1.79154 -6.07209,0 -12.445049,-2.01036 z m 57.725884,-14.12718 v 9.96971 l 5.292565,3.41897 h -13.07414 v -2.80355 q -2.571065,3.41897 -7.658492,3.41897 -3.049721,0 -5.224186,-1.23083 -2.174464,-1.23083 -2.174464,-2.96767 v -6.05841 l -5.292565,-3.43265 13.07414,-0.31454 v 7.4807 q 0,1.69581 0.670118,2.37961 0.683794,0.68379 2.352251,0.68379 1.873595,0 3.063397,-1.08039 1.189801,-1.0804 1.189801,-2.78988 v -2.92664 l -6.277228,-3.43265 z m 26.886778,6.74221 q 1.367588,1.16245 1.367588,2.36592 0,2.24285 -2.885611,3.62411 -2.88561,1.36759 -7.603788,1.36759 -5.114779,0 -8.848294,-2.03771 -3.719839,-2.05138 -3.719839,-4.86861 0,-3.14545 3.870274,-5.37462 3.88395,-2.22917 9.354301,-2.22917 3.856598,0 6.701181,1.20348 2.844582,1.1898 2.844582,2.80355 0,2.24285 -3.596756,2.24285 -0.970987,0 -2.297547,-0.2872 0.246165,-0.72482 0.246165,-1.20347 0,-0.94364 -1.121422,-1.55905 -1.107746,-0.62909 -2.776203,-0.62909 -4.772882,0 -4.772882,4.69082 0,4.30791 5.935332,4.30791 7.302919,0 7.302919,-4.41731 z m 24.5482,0 q 1.36759,1.16245 1.36759,2.36592 0,2.24285 -2.88561,3.62411 -2.88561,1.36759 -7.60379,1.36759 -5.11478,0 -8.84829,-2.03771 -3.71984,-2.05138 -3.71984,-4.86861 0,-3.14545 3.87027,-5.37462 3.88395,-2.22917 9.3543,-2.22917 3.8566,0 6.70118,1.20348 2.84459,1.1898 2.84459,2.80355 0,2.24285 -3.59676,2.24285 -0.97099,0 -2.29755,-0.2872 0.24617,-0.72482 0.24617,-1.20347 0,-0.94364 -1.12142,-1.55905 -1.10775,-0.62909 -2.77621,-0.62909 -4.77288,0 -4.77288,4.69082 0,4.30791 5.93533,4.30791 7.30292,0 7.30292,-4.41731 z m 26.06623,0.82055 H 134.067 q 0,3.61043 6.55075,3.61043 6.20884,0 8.16449,-2.35225 0.24617,0.56071 0.24617,0.91628 0,1.98301 -2.83091,3.18648 -2.81723,1.18981 -7.4807,1.18981 -5.82593,0 -9.42268,-1.96933 -3.58308,-1.96933 -3.58308,-5.16948 0,-3.10443 3.50102,-5.26522 3.50103,-2.16079 8.53375,-2.16079 4.55407,0 7.50806,2.13344 2.96766,2.11976 3.65146,5.88063 z m -6.72853,-2.33858 q 0,-3.10442 -3.93866,-3.10442 -1.73683,0 -2.91296,0.88893 -1.16245,0.88893 -1.16245,2.21549 z m 31.50922,2.33858 h -14.83833 q 0,3.61043 6.55075,3.61043 6.20885,0 8.1645,-2.35225 0.24616,0.56071 0.24616,0.91628 0,1.98301 -2.8309,3.18648 -2.81723,1.18981 -7.48071,1.18981 -5.82592,0 -9.42268,-1.96933 -3.58308,-1.96933 -3.58308,-5.16948 0,-3.10443 3.50103,-5.26522 3.50102,-2.16079 8.53374,-2.16079 4.55407,0 7.50806,2.13344 2.96767,2.11976 3.65146,5.88063 z m -6.72853,-2.33858 q 0,-3.10442 -3.93865,-3.10442 -1.73684,0 -2.91297,0.88893 -1.16245,0.88893 -1.16245,2.21549 z m 31.98787,-11.44671 v 16.19224 l 6.22253,3.41897 h -14.0041 v -2.48901 q -1.06672,1.76419 -2.48901,2.44799 -1.42229,0.67011 -4.04806,0.67011 -4.11644,0 -6.72854,-1.94197 -2.61209,-1.94198 -2.61209,-4.9917 0,-2.91296 2.89929,-5.1558 2.89928,-2.25652 6.64647,-2.25652 3.96601,0 6.33194,3.1728 v -5.33359 l -6.22253,-3.41897 z m -11.84331,8.64316 q -3.77454,0 -3.77454,4.51304 0,4.33525 3.55573,4.33525 3.97968,0 3.97968,-4.17114 0,-4.67715 -3.76087,-4.67715 z m 22.68829,5.94901 q 1.60008,0 2.84459,0.80687 1.25818,0.80688 1.25818,1.83257 0,1.03937 -1.25818,1.84624 -1.24451,0.80688 -2.84459,0.80688 -1.61375,0 -2.85826,-0.7932 -1.2445,-0.80688 -1.2445,-1.85992 0,-1.03937 1.2445,-1.83257 1.24451,-0.80687 2.85826,-0.80687 z"
       id="text41"
       transform="scale(0.96395885,1.0373887)"
       aria-label="Succeed." /><g
       id="text44"
       style="font-size:32.6781px;font-family:'Segoe UI';-inkscape-font-specification:'Segoe UI';fill:#228b22;stroke-width:2.72317"
       aria-label="Read."><path
         style="font-weight:bold;font-family:Serif;-inkscape-font-specification:'Serif Bold'"
         d="m 117.60207,158.43752 v -1.73194 h 1.37249 q 0.65356,0 1.14373,-0.32679 0.52285,-0.32678 0.52285,-1.6339 v -15.91424 q 0,-1.30712 -0.52285,-1.6339 -0.49017,-0.35946 -1.14373,-0.35946 h -1.37249 v -1.73194 h 10.52235 q 4.64029,0 6.79705,1.56855 2.15675,1.53587 2.15675,4.4769 0,1.73194 -0.65356,2.94103 -0.65356,1.20909 -1.66658,1.99336 -1.01302,0.78428 -2.12408,1.24177 l 3.8887,6.69901 q 0.84963,1.40516 1.60122,2.05872 0.7516,0.62089 1.66659,0.62089 h 0.13071 v 1.73194 h -1.07838 q -1.96069,0 -3.26781,-0.22875 -1.30712,-0.22875 -2.18943,-0.84963 -0.84963,-0.65356 -1.53587,-1.86265 l -3.8887,-7.18919 h -2.15675 v 6.43759 q 0,1.30712 0.49017,1.6339 0.52285,0.32679 1.17641,0.32679 h 1.40516 v 1.73194 z m 10.03218,-12.02555 q 2.25479,0 3.10442,-1.20909 0.84963,-1.20909 0.84963,-3.59459 0,-2.48353 -0.91498,-3.52923 -0.91499,-1.0457 -3.10442,-1.0457 h -1.76462 v 9.37861 z m 22.15578,12.35233 q -4.15012,0 -6.30688,-2.35283 -2.15675,-2.3855 -2.15675,-6.63365 0,-4.60761 2.12408,-6.92776 2.12407,-2.35282 5.98009,-2.35282 3.56191,0 5.58795,1.99336 2.05872,1.99337 2.05872,5.88206 v 1.66658 h -10.71841 q 0.098,3.26781 1.20909,4.77101 1.14373,1.50319 3.16977,1.50319 1.69926,0 2.87568,-0.7516 1.17641,-0.78427 1.73194,-1.89533 0.8823,0.49017 0.8823,1.60123 0,1.40516 -1.56854,2.45086 -1.56855,1.0457 -4.86904,1.0457 z m 2.28747,-10.81646 q 0,-2.51621 -0.58821,-3.92137 -0.58821,-1.40516 -1.99336,-1.40516 -1.37249,0 -2.18944,1.37248 -0.81695,1.33981 -0.88231,3.95405 z m 12.97318,10.81646 q -2.15676,0 -3.65995,-1.30713 -1.47052,-1.30712 -1.47052,-4.0194 0,-2.64693 1.82998,-3.92138 1.82997,-1.27444 5.48992,-1.40515 l 2.6796,-0.098 v -1.79729 q 0,-1.63391 -0.35946,-2.67961 -0.32678,-1.0457 -1.66658,-1.0457 -1.24177,0 -1.73194,1.01302 -0.45749,0.98035 -0.45749,2.51622 -2.18944,0 -3.30049,-0.49017 -1.11106,-0.49018 -1.11106,-1.69927 0,-1.20909 0.91499,-1.928 0.91499,-0.71892 2.45086,-1.0457 1.53587,-0.35946 3.36584,-0.35946 3.4312,0 5.13046,1.24177 1.73194,1.24176 1.73194,4.31351 v 8.33291 q 0,1.3398 0.42482,1.82997 0.42481,0.49018 1.53587,0.49018 h 0.13071 v 1.73194 h -6.07812 l -0.68624,-2.25479 h -0.29411 q -0.71892,0.88231 -1.37248,1.47051 -0.62088,0.55553 -1.43783,0.81695 -0.81696,0.29411 -2.05872,0.29411 z m 1.79729,-2.38551 q 1.40516,0 2.22211,-1.14373 0.84963,-1.14373 0.84963,-3.03906 v -2.45086 l -1.47051,0.098 q -1.96069,0.098 -2.71228,1.0457 -0.7516,0.91499 -0.7516,2.67961 0,2.81031 1.86265,2.81031 z m 19.34547,2.38551 q -3.20246,0 -4.9344,-2.15676 -1.73194,-2.18943 -1.73194,-6.89508 0,-4.73832 1.69926,-6.96043 1.73194,-2.22211 4.90172,-2.22211 1.82997,0 3.00638,0.75159 1.17642,0.71892 1.86266,1.86265 h 0.22874 q -0.13071,-0.91498 -0.19607,-2.05872 -0.0653,-1.14373 -0.0653,-1.928 v -1.7973 q 0,-1.3398 -0.78428,-1.66658 -0.78427,-0.35946 -1.86265,-0.35946 h -0.26142 v -1.73194 h 7.87542 v 20.81595 q 0,0.98034 0.35946,1.47051 0.39214,0.49017 1.01302,0.65357 0.62088,0.16339 1.3398,0.16339 h 0.13071 v 1.73194 h -6.33955 l -0.91498,-2.5489 h -0.29411 q -0.71892,1.30713 -1.928,2.0914 -1.17642,0.78428 -3.10442,0.78428 z m 1.40515,-2.45086 q 1.92801,0 2.64693,-1.63391 0.71892,-1.66658 0.71892,-5.03242 0,-3.23514 -0.71892,-4.96708 -0.71892,-1.73193 -2.64693,-1.73193 -1.6339,0 -2.35282,1.73193 -0.68624,1.73194 -0.68624,4.99975 0,3.33317 0.68624,4.99975 0.71892,1.63391 2.35282,1.63391 z"
         id="path140" /><path
         style="font-weight:bold;-inkscape-font-specification:'Segoe UI Bold'"
         d="m 203.60397,158.83642 q -1.24457,0 -2.07429,-0.7659 -0.82972,-0.76589 -0.82972,-1.88282 0,-1.14883 0.84568,-1.88282 0.86163,-0.73398 2.13812,-0.73398 1.29244,0 2.1062,0.74994 0.82972,0.73398 0.82972,1.86686 0,1.1648 -0.84568,1.91474 -0.82971,0.73398 -2.17003,0.73398 z"
         id="path141" /></g><path
       style="font-weight:bold;font-size:32.6781px;font-family:'Segoe Script';-inkscape-font-specification:'Segoe Script Bold';fill:#8b4513;stroke-width:2.72317"
       d="m 43.557738,134.39194 q 0,0.3989 -0.06383,0.98928 -0.04787,0.57441 -0.159561,1.29244 -0.09574,0.70207 -0.239341,1.51583 -0.143605,0.7978 -0.319122,1.65943 -0.366991,1.73922 -0.749937,3.27101 -0.382947,1.51583 -0.797806,2.63275 -0.414858,1.10097 -0.749936,2.09025 -0.335079,0.97332 -0.686113,1.78709 -0.07978,0.20743 -0.335078,0.7978 -0.255298,0.57442 -0.590376,1.34031 -0.335078,0.7659 -0.718025,1.64348 -0.382946,0.86163 -0.718024,1.62752 -0.335078,0.7659 -0.590376,1.34032 -0.239342,0.55846 -0.319122,0.74993 -0.06383,0.15957 -0.271254,0.33508 -0.207429,0.17552 -0.478683,0.31912 -0.271254,0.14361 -0.57442,0.23935 -0.28721,0.0798 -0.510595,0.0798 -0.478683,0 -0.925454,-0.20743 -0.430815,-0.22339 -0.829718,-0.60633 -0.382946,-0.38295 -0.718024,-0.9095 -0.335078,-0.52655 -0.590376,-1.1648 L 27.9048,146.08776 q -0.335078,0.76589 -0.797805,1.75517 -0.446771,0.97332 -0.957367,2.01047 -0.494639,1.02119 -1.005234,2.02643 -0.494639,1.00523 -0.925454,1.81899 -1.212664,2.31364 -2.265767,4.02094 v -0.016 q -1.132883,1.89878 -1.866864,1.89878 -0.94141,0 -1.563698,-0.60633 -0.606332,-0.59038 -1.037147,-1.59561 -0.430815,-1.00524 -0.765893,-2.29768 -0.319122,-1.29245 -0.702069,-2.68063 -1.22862,-4.43579 -2.552976,-10.88206 -0.03191,-0.1436 -0.175517,-0.6542 -0.143605,-0.51059 -0.351035,-1.3084 v 0.016 q -0.239341,-0.84568 -0.351034,-1.43605 -0.111693,-0.59038 -0.111693,-0.95737 0,-0.27125 0.127649,-0.55846 0.143605,-0.30317 0.366991,-0.54251 0.239341,-0.23934 0.542507,-0.3989 0.319122,-0.15956 0.670156,-0.15956 0.366991,0 0.733981,0.27125 0.366991,0.27125 0.718025,0.82972 0.622288,0.98928 0.989278,2.20194 0.127649,0.3989 0.271254,1.08501 0.159561,0.68612 0.366991,1.6754 0.223385,0.98927 0.510595,2.31363 0.303166,1.3084 0.702068,2.98379 0.366991,1.57966 0.622288,2.77636 0.255298,1.19671 0.446771,2.09025 0.191474,0.89355 0.335079,1.51583 0.143604,0.60634 0.287209,1.02119 0.797806,-1.35626 1.467962,-2.56893 0.670156,-1.21266 1.196708,-2.23385 0.526551,-1.02119 0.925454,-1.83495 0.398902,-0.81377 0.6542,-1.35627 0.414859,-0.86163 0.86163,-1.94665 0.446771,-1.10097 1.148839,-2.60084 0.09574,-0.19148 0.271254,-0.38295 0.175517,-0.19147 0.414859,-0.33508 0.239341,-0.15956 0.510595,-0.2553 0.28721,-0.0957 0.558464,-0.0957 0.462727,0 0.957366,0.52655 0.494639,0.51059 0.957366,1.51583 0.04787,0.11169 0.207429,0.54251 0.175517,0.41486 0.398903,1.00523 0.223385,0.59038 0.478683,1.27649 0.271254,0.68611 0.510595,1.32436 0.255298,0.63824 0.446771,1.16479 0.20743,0.5106 0.319122,0.76589 0.893542,2.09025 1.388181,3.33483 0.49464,1.22862 0.781849,1.61157 0.606332,-1.10097 1.164796,-2.37746 0.558464,-1.29245 1.053103,-2.64872 0.494639,-1.37222 0.925454,-2.7604 0.430815,-1.38818 0.781849,-2.68063 0.36699,-1.32435 0.606332,-2.63275 0.255298,-1.30841 0.414859,-2.53703 0.175517,-1.24457 0.271253,-2.3615 0.09574,-1.11693 0.143605,-2.07429 0.01596,-0.15956 0.159561,-0.3989 0.143605,-0.23935 0.382947,-0.46273 0.239341,-0.22339 0.526551,-0.38295 0.303166,-0.15956 0.606332,-0.15956 1.14884,0 1.547742,0.82972 0.351035,0.63824 0.351035,1.27649 z m 17.998486,10.40338 q -0.01596,0.5425 -0.20743,0.90949 -0.175517,0.36699 -0.462727,0.59038 -0.271253,0.20743 -0.622288,0.30317 -0.351034,0.0798 -0.702068,0.0798 -0.28721,0 -0.57442,-0.0798 -0.28721,-0.0798 -0.590376,-0.0798 -0.510595,0 -1.260532,0.31912 -0.733981,0.30316 -1.51583,0.7978 -0.781849,0.49464 -1.531786,1.10097 -0.749937,0.60634 -1.292444,1.19671 -0.303166,0.33508 -0.702069,0.81376 -0.398902,0.46273 -0.765893,0.97333 -0.351034,0.51059 -0.606332,1.02119 -0.239341,0.51059 -0.239341,0.92545 0,0.5106 0.09574,1.19671 0.111693,0.68611 0.111693,1.452 0,0.27126 -0.01596,0.5106 0,0.22338 -0.06382,0.44677 -0.03191,0.19147 -0.20743,0.43081 -0.159561,0.22339 -0.414859,0.43082 -0.255297,0.22338 -0.558463,0.36699 -0.303166,0.1436 -0.622288,0.1436 -0.526552,0 -0.893542,-0.38294 -0.36699,-0.38295 -0.590376,-1.06906 -0.207429,-0.68611 -0.303166,-1.61157 -0.09574,-0.92545 -0.09574,-1.99451 0,-0.0638 0,-0.43082 0.01596,-0.36699 0.01596,-0.7978 0.01596,-0.43082 0.03191,-0.82972 0.01596,-0.3989 0.01596,-0.51059 0,-0.0638 0.01596,-0.41486 0.03191,-0.35104 0.06382,-0.84568 0.04787,-0.51059 0.07978,-1.08501 0.04787,-0.59038 0.07978,-1.11693 0.04787,-0.52655 0.07978,-0.92545 0.03191,-0.41486 0.04787,-0.54251 0.01596,-0.0479 0.03191,-0.31912 0.03191,-0.28721 0.06382,-0.6542 0.04787,-0.36699 0.111693,-0.74994 0.06382,-0.38294 0.127649,-0.63824 0.06382,-0.22339 0.255297,-0.52655 0.20743,-0.30317 0.510596,-0.57442 0.319122,-0.28721 0.702068,-0.47869 0.382947,-0.20743 0.813761,-0.20743 0.510596,0 0.813762,0.15956 0.319122,0.15957 0.494639,0.39891 0.191473,0.22338 0.255298,0.49464 0.06382,0.25529 0.06382,0.46272 0,0.12765 -0.09574,0.57442 -0.09574,0.43082 -0.255297,0.95737 -0.191474,0.70207 -0.335078,1.64348 -0.143605,0.92545 -0.223386,1.78708 0.877586,-0.98928 1.88282,-1.99451 1.005235,-1.02119 2.09025,-1.83495 1.085015,-0.82972 2.217898,-1.34032 1.132884,-0.52655 2.265767,-0.52655 0.558464,0 1.005235,0.19148 0.446771,0.17551 0.749936,0.47868 0.319123,0.28721 0.478684,0.6542 0.175517,0.35103 0.175517,0.71802 v 0.0319 z m 9.573662,-10.03639 q 0,0.52655 -0.159561,1.00523 -0.159561,0.46273 -0.462727,0.87759 -0.606332,0.84567 -1.866864,0.84567 -0.446771,0 -0.909498,-0.0798 -0.462727,-0.0798 -0.829718,-0.22339 -0.36699,-0.1436 -0.606332,-0.36699 -0.239341,-0.22338 -0.239341,-0.51059 0,-0.49464 0.255298,-1.03715 0.255297,-0.55846 0.6542,-1.02119 0.414859,-0.47868 0.893542,-0.78185 0.494639,-0.31912 0.94141,-0.31912 0.558463,0 0.989278,0.0798 0.430815,0.0638 0.718025,0.23934 0.303166,0.17552 0.462727,0.49464 0.159561,0.31912 0.159561,0.79781 z m 9.924696,13.13187 q 0,0.36699 -0.287209,0.94141 -0.271254,0.55846 -0.765893,1.26053 -0.478683,0.68612 -1.14884,1.48392 -0.670156,0.78185 -1.452005,1.61157 -0.845674,0.90949 -1.834952,1.78708 -0.989279,0.87759 -2.106206,1.69135 -1.100971,0.7978 -2.17003,1.24457 -1.069059,0.43082 -2.026425,0.43082 -1.116927,0 -1.946645,-0.36699 -0.813761,-0.38295 -1.404137,-1.02119 -0.57442,-0.6542 -0.94141,-1.48392 -0.366991,-0.84567 -0.590376,-1.77113 -0.207429,-0.94141 -0.28721,-1.89877 -0.07978,-0.95737 -0.07978,-1.819 0,-0.33508 0.04787,-1.00523 0.04787,-0.67016 0.127649,-1.40414 0.09574,-0.74994 0.191473,-1.43605 0.111693,-0.70207 0.223385,-1.10097 0.239342,-0.78185 1.100972,-1.48392 0.829717,-0.67016 1.850908,-0.67016 1.037146,0 1.037146,1.24458 0,0.59038 -0.111692,1.26053 -0.09574,0.6542 -0.223386,1.29245 -0.207429,1.16479 -0.28721,2.1062 -0.07978,0.92546 -0.07978,1.64348 0,0.81376 0.09574,1.57966 0.09574,0.76589 0.271254,1.37222 0.191473,0.59038 0.462727,0.95737 0.28721,0.36699 0.670157,0.36699 0.478683,0 0.989278,-0.0798 0.510595,-0.0957 1.22862,-0.47869 1.372225,-0.74993 2.919967,-2.02642 0.542508,-0.44677 1.22862,-1.0531 0.702069,-0.62229 1.388181,-1.26054 0.686113,-0.6542 1.292444,-1.27649 0.606332,-0.62228 0.957367,-1.06905 0.04787,-0.0798 0.127649,-0.19148 0.09574,-0.12765 0.207429,-0.2553 0.111693,-0.12764 0.239341,-0.20742 0.143605,-0.0957 0.271254,-0.0957 0.255298,0 0.366991,0.0798 0.127648,0.0638 0.271253,0.43081 0.175517,0.39891 0.175517,0.67016 z m -2.122162,5.42508 q 0,-0.73399 0.07978,-1.46797 0.09574,-0.74993 0.223386,-1.46796 0.143605,-0.73398 0.303166,-1.42009 0.159561,-0.68611 0.28721,-1.3084 0.175517,-0.82972 0.319122,-1.48392 0.143605,-0.6542 0.175517,-1.21266 -0.239342,0.0479 -0.542508,0.0957 -0.28721,0.0319 -0.590376,0.0798 -0.303165,0.0319 -0.590375,0.0479 -0.28721,0.016 -0.478683,0.016 -0.49464,0 -0.86163,-0.0638 -0.351034,-0.0798 -0.590376,-0.27125 -0.239341,-0.20743 -0.351034,-0.55846 -0.111693,-0.36699 -0.111693,-0.92546 0,-0.35103 0.159561,-0.59037 0.175517,-0.23934 0.446771,-0.38295 0.28721,-0.1436 0.622288,-0.19147 0.351034,-0.0638 0.686113,-0.0638 0.127648,0 0.494639,-0.0319 0.36699,-0.0479 0.781849,-0.0957 0.414859,-0.0479 0.813761,-0.0957 0.398903,-0.0479 0.590376,-0.0638 0.127649,0 0.239342,-0.19147 0.127648,-0.19147 0.223385,-0.44677 0.111693,-0.27125 0.191473,-0.54251 0.07978,-0.28721 0.111693,-0.47868 0.07978,-0.43082 0.223385,-1.0531 0.159561,-0.62229 0.335079,-1.27649 0.191473,-0.6542 0.382946,-1.24458 0.207429,-0.60633 0.398903,-0.95737 0.255297,-0.49463 0.558463,-0.74993 0.303166,-0.2553 0.909498,-0.2553 0.845674,0 1.22862,0.3989 0.398903,0.39891 0.398903,1.22862 0,0.38295 -0.175517,0.98928 -0.159561,0.60633 -0.366991,1.3084 -0.207429,0.68611 -0.398902,1.40414 -0.175517,0.70207 -0.191474,1.26053 0.319123,0 0.925454,-0.0638 0.606332,-0.0638 1.276489,-0.14361 0.670156,-0.0957 1.276488,-0.19147 0.622288,-0.0957 0.94141,-0.15956 0.670157,-0.14361 1.021191,-0.20743 0.36699,-0.0798 0.6542,-0.14361 0.303166,-0.0638 0.638244,-0.1436 0.351035,-0.0957 0.973323,-0.27126 0.239341,0.19148 0.382946,0.30317 0.143605,0.11169 0.207429,0.19147 0.07978,0.0638 0.09574,0.12765 0.03191,0.0638 0.03191,0.14361 0,0.62229 -0.574419,1.14884 -0.57442,0.51059 -1.452006,0.9095 -0.877586,0.3989 -1.914732,0.68611 -1.021191,0.27125 -1.930689,0.43081 -0.670156,0.1117 -1.212664,0.19148 -0.526551,0.0798 -0.925454,0.15956 -0.398902,0.0638 -0.6542,0.15956 -0.255298,0.0798 -0.382947,0.20743 -0.207429,0.71802 -0.478683,1.72326 -0.255297,0.98927 -0.494639,2.09025 -0.239341,1.10097 -0.398903,2.23385 -0.159561,1.11693 -0.159561,2.09025 0,1.10097 0.430815,1.64348 0.430815,0.54251 1.212664,0.54251 0.718025,0 1.404137,-0.0957 0.702069,-0.11169 1.452006,-0.38295 0.765893,-0.28721 1.611566,-0.76589 0.86163,-0.47868 1.914733,-1.22862 0.28721,-0.22339 0.590375,-0.49464 0.319123,-0.27125 0.638245,-0.51059 0.319122,-0.2553 0.6542,-0.41486 0.335078,-0.17552 0.686112,-0.17552 0.319122,0 0.49464,0.15956 0.191473,0.14361 0.191473,0.46273 0,0.23934 -0.159561,0.59037 -0.159561,0.33508 -0.446771,0.71803 -0.28721,0.38294 -0.686113,0.7978 -0.382946,0.39891 -0.861629,0.7659 -0.925454,0.73398 -1.946645,1.40413 -1.005234,0.6542 -2.058337,1.14884 -1.037147,0.49464 -2.09025,0.78185 -1.053103,0.28721 -2.090249,0.28721 -1.276489,0 -2.170031,-0.38294 -0.893541,-0.39891 -1.467961,-1.05311 -0.558464,-0.6542 -0.829718,-1.48392 -0.255297,-0.84567 -0.255297,-1.72325 z m 21.74817,-9.22263 q 0,-0.2553 -0.0957,-0.41486 -0.0957,-0.17552 -0.22338,-0.27125 -0.1117,-0.0957 -0.23934,-0.12765 -0.1117,-0.0479 -0.159566,-0.0479 -0.718024,0 -1.324356,0.55846 -0.606332,0.54251 -1.085015,1.40414 -0.478683,0.86163 -0.845674,1.89878 -0.351034,1.03714 -0.590376,2.01046 0.957367,-0.73398 1.787084,-1.35626 0.829717,-0.62229 1.436049,-1.21267 0.622288,-0.59037 0.973324,-1.18075 0.36699,-0.59038 0.36699,-1.26053 z m 7.73871,6.11119 q 0,0.59037 -0.46273,1.34031 -0.46272,0.74994 -1.24457,1.5637 -0.86163,0.87758 -1.89878,1.64348 -1.02119,0.74993 -2.13812,1.3084 -1.10097,0.5425 -2.24981,0.86163 -1.148838,0.30316 -2.233853,0.30316 -1.340313,0 -2.393416,-0.41486 -1.037147,-0.43081 -1.771127,-1.24457 -0.718025,-0.82972 -1.100971,-2.05834 -0.382947,-1.22862 -0.382947,-2.82423 0,-0.95737 0.175517,-1.94665 0.191473,-0.98927 0.542508,-1.9626 0.351034,-0.98928 0.877585,-1.89877 0.526552,-0.92546 1.196708,-1.73922 0.430815,-0.51059 0.973323,-1.02119 0.558463,-0.52655 1.22862,-0.94141 0.670156,-0.41486 1.467961,-0.67016 0.813761,-0.27125 1.755172,-0.27125 0.76589,0 1.35627,0.28721 0.60633,0.27125 1.02119,0.70207 0.41486,0.43081 0.63824,0.97332 0.22339,0.54251 0.22339,1.06906 0,1.24458 -0.54251,2.32959 -0.52655,1.06906 -1.48392,2.05834 -0.95736,0.97332 -2.313632,1.91473 -1.340312,0.94141 -2.967835,1.93069 -0.07978,0.0319 -0.255298,0.1436 -0.159561,0.1117 -0.159561,0.14361 0.01596,0.31912 0.159561,0.68611 0.143605,0.36699 0.446771,0.68611 0.303166,0.31913 0.765893,0.54251 0.478683,0.20743 1.132884,0.20743 1.005234,0 2.026427,-0.27125 1.02119,-0.28721 2.01047,-0.81376 0.98928,-0.52655 1.93069,-1.27649 0.94141,-0.74994 1.78708,-1.69135 0.31912,-0.36699 0.62229,-0.52655 0.31912,-0.15956 0.59037,-0.15956 0.27126,0 0.46273,0.22338 0.20743,0.22339 0.20743,0.81377 z m 8.90351,4.21241 q 0,0.35103 -0.15956,1.10097 -0.0479,0.22338 -0.33508,0.55846 -0.28721,0.33508 -0.84568,0.78185 -0.51059,0.41486 -0.94141,0.62229 -0.41485,0.20743 -0.70206,0.20743 -0.60634,0 -0.97333,-0.12765 -0.36699,-0.14361 -0.57442,-0.41486 -0.19147,-0.28721 -0.25529,-0.73398 -0.0638,-0.44677 -0.0638,-1.06906 0,-0.44677 0,-0.74994 0.016,-0.30316 0.0638,-0.52655 0.1436,-1.10097 2.79231,-1.10097 0.63825,0 1.00524,0.15956 0.38295,0.15956 0.68611,0.5106 0.30317,0.30316 0.30317,0.78185 z"
       id="text46"
       aria-label="Write." /><g
       style="fill:#d35400;fill-opacity:1;stroke:none"
       id="g8"
       transform="matrix(0.08320025,0,0,0.08320025,13.243976,18.209756)"><path
         d="m 509.807,159.545 c 0.016,-0.026 0.036,-0.047 0.052,-0.073 0.033,-0.053 0.058,-0.108 0.09,-0.162 0.078,-0.131 0.153,-0.263 0.222,-0.399 0.047,-0.091 0.09,-0.183 0.132,-0.275 0.06,-0.129 0.116,-0.259 0.169,-0.391 0.042,-0.105 0.08,-0.211 0.116,-0.317 0.041,-0.121 0.081,-0.242 0.116,-0.366 0.035,-0.122 0.066,-0.244 0.094,-0.367 0.026,-0.111 0.05,-0.223 0.071,-0.336 0.025,-0.138 0.046,-0.275 0.063,-0.413 0.013,-0.103 0.026,-0.207 0.034,-0.312 0.013,-0.149 0.019,-0.298 0.023,-0.447 0.002,-0.064 0.01,-0.126 0.01,-0.19 0,-0.038 -0.005,-0.076 -0.006,-0.114 -0.002,-0.141 -0.011,-0.282 -0.021,-0.423 -0.008,-0.114 -0.015,-0.228 -0.029,-0.341 -0.014,-0.116 -0.034,-0.231 -0.053,-0.346 -0.022,-0.132 -0.043,-0.265 -0.071,-0.394 -0.021,-0.094 -0.048,-0.187 -0.072,-0.28 -0.038,-0.144 -0.075,-0.288 -0.12,-0.428 -0.028,-0.086 -0.062,-0.17 -0.093,-0.255 -0.052,-0.141 -0.102,-0.281 -0.162,-0.418 -0.041,-0.095 -0.089,-0.186 -0.135,-0.279 -0.059,-0.12 -0.115,-0.241 -0.18,-0.358 -0.062,-0.112 -0.131,-0.219 -0.199,-0.328 -0.058,-0.093 -0.113,-0.187 -0.175,-0.276 -0.082,-0.119 -0.172,-0.234 -0.261,-0.349 -0.058,-0.075 -0.113,-0.151 -0.174,-0.224 -0.093,-0.111 -0.193,-0.216 -0.293,-0.322 -0.068,-0.072 -0.134,-0.146 -0.205,-0.216 -0.093,-0.091 -0.192,-0.177 -0.29,-0.264 -0.09,-0.08 -0.18,-0.16 -0.274,-0.235 -0.086,-0.069 -0.176,-0.133 -0.265,-0.198 -0.117,-0.086 -0.234,-0.169 -0.356,-0.248 -0.031,-0.02 -0.059,-0.044 -0.091,-0.063 l -64,-40 c -0.044,-0.027 -0.089,-0.048 -0.133,-0.074 -0.089,-0.053 -0.176,-0.107 -0.267,-0.156 -0.056,-0.03 -0.112,-0.058 -0.168,-0.086 -0.09,-0.046 -0.181,-0.088 -0.273,-0.13 -0.073,-0.034 -0.145,-0.069 -0.22,-0.101 -0.052,-0.022 -0.104,-0.041 -0.156,-0.061 -0.122,-0.048 -0.244,-0.092 -0.367,-0.133 -0.045,-0.015 -0.087,-0.035 -0.133,-0.049 -0.014,-0.004 -0.028,-0.007 -0.041,-0.011 -0.044,-0.013 -0.088,-0.024 -0.132,-0.037 -0.143,-0.042 -0.286,-0.077 -0.43,-0.11 -0.055,-0.012 -0.109,-0.029 -0.164,-0.04 -0.036,-0.007 -0.072,-0.01 -0.108,-0.017 -0.146,-0.027 -0.292,-0.049 -0.439,-0.068 -0.105,-0.013 -0.21,-0.026 -0.316,-0.035 -0.129,-0.011 -0.257,-0.017 -0.386,-0.021 -0.123,-0.004 -0.246,-0.007 -0.368,-0.005 -0.112,0.002 -0.223,0.008 -0.335,0.015 -0.044,0.003 -0.088,0.003 -0.132,0.006 -0.029,0.002 -0.058,10e-4 -0.087,0.004 -0.061,0.006 -0.121,0.017 -0.181,0.024 -0.103,0.012 -0.206,0.028 -0.309,0.044 -0.034,0.005 -0.068,0.009 -0.101,0.015 -0.046,0.008 -0.092,0.011 -0.137,0.02 -0.056,0.011 -0.11,0.027 -0.165,0.039 -0.103,0.022 -0.205,0.049 -0.308,0.075 -0.128,0.033 -0.255,0.067 -0.38,0.107 -0.11,0.035 -0.218,0.074 -0.326,0.114 -0.08,0.029 -0.161,0.054 -0.239,0.086 -0.033,0.013 -0.065,0.031 -0.098,0.045 -0.117,0.049 -0.231,0.104 -0.345,0.159 -0.078,0.038 -0.158,0.073 -0.235,0.113 -0.008,0.004 -0.017,0.007 -0.025,0.012 l -114.566,61.102 -68.1,-83.234 c -0.003,-0.004 -0.007,-0.007 -0.01,-0.011 -0.021,-0.026 -0.043,-0.051 -0.065,-0.077 -0.053,-0.063 -0.111,-0.12 -0.166,-0.181 -0.106,-0.118 -0.212,-0.237 -0.326,-0.348 -0.066,-0.065 -0.139,-0.124 -0.208,-0.186 -0.109,-0.099 -0.216,-0.199 -0.331,-0.292 -0.109,-0.087 -0.225,-0.166 -0.338,-0.248 -0.009,-0.006 -0.017,-0.013 -0.026,-0.019 -0.075,-0.053 -0.147,-0.111 -0.224,-0.162 -0.115,-0.076 -0.238,-0.142 -0.358,-0.212 -0.091,-0.053 -0.18,-0.11 -0.273,-0.159 -0.112,-0.059 -0.23,-0.108 -0.346,-0.161 -0.107,-0.049 -0.212,-0.103 -0.321,-0.147 -0.104,-0.042 -0.212,-0.075 -0.319,-0.112 -0.127,-0.045 -0.253,-0.092 -0.382,-0.13 -0.016,-0.005 -0.032,-0.012 -0.048,-0.016 -0.114,-0.033 -0.228,-0.053 -0.342,-0.08 -0.103,-0.024 -0.205,-0.052 -0.31,-0.072 -0.044,-0.008 -0.087,-0.018 -0.131,-0.026 L 24.818,44.114 c -0.074,-0.013 -0.147,-0.017 -0.221,-0.028 -0.135,-0.02 -0.269,-0.039 -0.404,-0.052 -0.124,-0.012 -0.246,-0.018 -0.369,-0.023 -0.117,-0.005 -0.234,-0.009 -0.351,-0.009 -0.134,0 -0.267,0.005 -0.4,0.013 -0.108,0.006 -0.217,0.014 -0.325,0.024 -0.134,0.013 -0.267,0.031 -0.399,0.052 -0.11,0.017 -0.219,0.036 -0.328,0.057 -0.126,0.025 -0.25,0.054 -0.374,0.086 -0.115,0.029 -0.23,0.061 -0.344,0.096 -0.115,0.035 -0.227,0.073 -0.34,0.114 -0.119,0.043 -0.236,0.088 -0.353,0.137 -0.108,0.045 -0.213,0.094 -0.319,0.144 -0.114,0.054 -0.227,0.11 -0.339,0.17 -0.109,0.059 -0.215,0.121 -0.32,0.185 -0.101,0.061 -0.202,0.123 -0.301,0.189 -0.116,0.078 -0.228,0.16 -0.339,0.244 -0.058,0.044 -0.12,0.082 -0.177,0.128 -0.027,0.021 -0.049,0.045 -0.076,0.067 -0.112,0.092 -0.219,0.19 -0.326,0.289 -0.077,0.071 -0.156,0.141 -0.23,0.215 -0.096,0.096 -0.185,0.198 -0.276,0.299 -0.075,0.084 -0.152,0.166 -0.222,0.252 -0.08,0.098 -0.154,0.202 -0.229,0.305 -0.07,0.095 -0.142,0.189 -0.207,0.286 -0.068,0.103 -0.129,0.21 -0.192,0.317 -0.062,0.104 -0.126,0.206 -0.182,0.312 -0.056,0.106 -0.105,0.217 -0.156,0.326 -0.053,0.113 -0.108,0.225 -0.155,0.34 -0.044,0.106 -0.08,0.216 -0.119,0.325 -0.044,0.124 -0.09,0.248 -0.127,0.374 -0.031,0.104 -0.056,0.212 -0.083,0.319 -0.034,0.136 -0.068,0.271 -0.094,0.408 -0.007,0.035 -0.018,0.069 -0.024,0.104 -0.014,0.076 -0.018,0.151 -0.029,0.227 -0.019,0.132 -0.038,0.264 -0.05,0.397 -0.012,0.124 -0.018,0.247 -0.023,0.37 -0.005,0.118 -0.009,0.236 -0.009,0.354 0,0.132 0.006,0.263 0.013,0.394 0.006,0.111 0.014,0.221 0.025,0.332 0.013,0.132 0.031,0.262 0.051,0.392 0.017,0.112 0.037,0.224 0.059,0.335 0.025,0.124 0.053,0.246 0.085,0.368 0.03,0.117 0.062,0.233 0.097,0.349 0.035,0.113 0.073,0.225 0.113,0.336 0.043,0.119 0.088,0.238 0.137,0.355 0.045,0.107 0.093,0.213 0.143,0.318 0.054,0.114 0.11,0.227 0.17,0.339 0.058,0.109 0.121,0.214 0.184,0.32 0.061,0.102 0.123,0.203 0.19,0.302 0.077,0.115 0.159,0.226 0.242,0.336 0.044,0.059 0.082,0.121 0.129,0.179 l 47.852,59.815 H 7.5 c -0.068,0 -0.133,0.008 -0.2,0.01 -0.138,0.004 -0.276,0.01 -0.414,0.021 -0.121,0.01 -0.241,0.024 -0.36,0.039 -0.117,0.015 -0.234,0.033 -0.35,0.053 -0.132,0.023 -0.262,0.051 -0.391,0.081 -0.104,0.024 -0.207,0.051 -0.31,0.08 -0.133,0.037 -0.263,0.077 -0.393,0.122 -0.101,0.034 -0.201,0.071 -0.301,0.11 -0.123,0.048 -0.244,0.098 -0.363,0.152 -0.106,0.048 -0.211,0.099 -0.315,0.152 -0.107,0.055 -0.213,0.111 -0.317,0.171 -0.111,0.063 -0.22,0.13 -0.328,0.199 -0.093,0.06 -0.184,0.121 -0.274,0.184 -0.11,0.077 -0.217,0.158 -0.323,0.242 -0.086,0.068 -0.169,0.137 -0.251,0.208 -0.099,0.086 -0.197,0.174 -0.292,0.265 -0.087,0.083 -0.17,0.168 -0.253,0.255 -0.082,0.086 -0.162,0.174 -0.24,0.265 -0.091,0.106 -0.178,0.215 -0.263,0.326 -0.041,0.053 -0.085,0.1 -0.125,0.154 -0.023,0.032 -0.041,0.065 -0.063,0.097 -0.086,0.122 -0.165,0.247 -0.244,0.373 -0.053,0.086 -0.108,0.172 -0.157,0.259 -0.069,0.123 -0.132,0.249 -0.195,0.376 -0.048,0.097 -0.097,0.194 -0.141,0.292 -0.052,0.118 -0.097,0.239 -0.143,0.36 -0.042,0.111 -0.086,0.222 -0.123,0.335 -0.036,0.111 -0.066,0.225 -0.097,0.339 -0.035,0.126 -0.07,0.252 -0.097,0.379 -0.023,0.105 -0.039,0.212 -0.058,0.318 -0.024,0.139 -0.048,0.278 -0.064,0.418 -0.012,0.101 -0.018,0.203 -0.025,0.306 -0.011,0.147 -0.02,0.295 -0.022,0.442 C 0.005,123.419 0,123.457 0,123.497 c 0,0.068 0.008,0.133 0.01,0.2 0.004,0.138 0.009,0.276 0.021,0.414 0.01,0.121 0.024,0.24 0.039,0.36 0.015,0.118 0.033,0.235 0.054,0.351 0.023,0.131 0.051,0.261 0.081,0.39 0.025,0.105 0.051,0.209 0.08,0.312 0.037,0.132 0.077,0.261 0.121,0.39 0.035,0.103 0.072,0.204 0.112,0.305 0.047,0.121 0.097,0.241 0.15,0.359 0.049,0.108 0.101,0.215 0.154,0.321 0.054,0.105 0.109,0.209 0.167,0.311 0.064,0.113 0.133,0.224 0.203,0.334 0.058,0.091 0.118,0.181 0.18,0.269 0.078,0.111 0.16,0.22 0.245,0.327 0.067,0.084 0.135,0.167 0.205,0.248 0.086,0.1 0.175,0.198 0.268,0.294 0.082,0.086 0.167,0.169 0.254,0.251 0.087,0.082 0.174,0.163 0.266,0.242 0.106,0.091 0.215,0.177 0.325,0.262 0.053,0.041 0.1,0.085 0.155,0.125 l 172.304,125.312 -31.29,203.386 c -0.004,0.024 -0.007,0.048 -0.011,0.073 l -0.004,0.024 c -0.005,0.031 -0.005,0.061 -0.009,0.092 -0.03,0.213 -0.054,0.426 -0.066,0.638 -0.005,0.084 -0.002,0.166 -0.004,0.249 -0.003,0.159 -0.007,0.318 -0.001,0.476 0.005,0.124 0.019,0.245 0.03,0.367 0.011,0.116 0.018,0.232 0.034,0.347 0.02,0.143 0.049,0.284 0.077,0.425 0.019,0.094 0.034,0.189 0.057,0.282 0.034,0.144 0.077,0.284 0.119,0.425 0.027,0.091 0.052,0.182 0.083,0.272 0.045,0.13 0.097,0.257 0.149,0.385 0.04,0.099 0.078,0.199 0.123,0.296 0.05,0.109 0.106,0.215 0.161,0.321 0.058,0.112 0.114,0.224 0.177,0.333 0.051,0.088 0.108,0.172 0.162,0.258 0.076,0.12 0.152,0.24 0.236,0.356 0.053,0.073 0.11,0.143 0.165,0.214 0.093,0.12 0.186,0.239 0.287,0.354 0.06,0.068 0.125,0.132 0.187,0.199 0.102,0.108 0.203,0.216 0.312,0.318 0.081,0.076 0.168,0.147 0.253,0.22 0.096,0.083 0.191,0.167 0.292,0.245 0.123,0.096 0.253,0.183 0.383,0.271 0.071,0.048 0.138,0.099 0.21,0.144 0.181,0.114 0.369,0.218 0.561,0.317 0.027,0.014 0.051,0.03 0.078,0.044 0.003,0.001 0.006,0.002 0.009,0.004 0.253,0.126 0.514,0.238 0.783,0.336 0.067,0.024 0.135,0.041 0.202,0.063 0.184,0.061 0.37,0.119 0.561,0.166 0.126,0.031 0.252,0.053 0.378,0.078 0.094,0.018 0.185,0.043 0.281,0.058 0.032,0.005 0.063,0.003 0.095,0.007 0.347,0.049 0.694,0.082 1.04,0.082 0.004,0 0.008,-0.001 0.011,-0.001 0.001,0 0.003,0 0.004,0 0.31,0 0.615,-0.026 0.918,-0.064 0.06,-0.008 0.119,-0.015 0.179,-0.024 0.619,-0.092 1.217,-0.261 1.783,-0.498 0.055,-0.023 0.109,-0.045 0.163,-0.069 0.274,-0.122 0.541,-0.258 0.798,-0.412 0.047,-0.028 0.091,-0.06 0.137,-0.089 0.216,-0.136 0.424,-0.283 0.625,-0.439 0.06,-0.046 0.12,-0.091 0.178,-0.139 0.223,-0.185 0.435,-0.384 0.636,-0.595 0.05,-0.053 0.098,-0.108 0.147,-0.162 0.202,-0.224 0.394,-0.458 0.569,-0.706 0.005,-0.008 0.012,-0.015 0.017,-0.022 0.189,-0.272 0.356,-0.56 0.509,-0.858 0.012,-0.024 0.029,-0.045 0.041,-0.069 L 212.99,353.289 394.491,274.376 c 0.049,-0.021 0.093,-0.048 0.141,-0.07 0.145,-0.067 0.288,-0.137 0.429,-0.213 0.013,-0.007 0.027,-0.013 0.041,-0.02 0.023,-0.012 0.046,-0.021 0.069,-0.034 0.052,-0.029 0.1,-0.064 0.152,-0.094 0.113,-0.067 0.225,-0.137 0.334,-0.21 0.072,-0.048 0.145,-0.093 0.215,-0.143 0.027,-0.019 0.052,-0.041 0.079,-0.061 0.082,-0.06 0.162,-0.123 0.241,-0.187 0.019,-0.015 0.041,-0.025 0.06,-0.041 0.019,-0.016 0.036,-0.034 0.055,-0.05 0.07,-0.058 0.137,-0.117 0.204,-0.178 0.066,-0.06 0.13,-0.122 0.194,-0.183 0.004,-0.004 0.008,-0.007 0.012,-0.011 0.028,-0.027 0.058,-0.05 0.086,-0.078 0.021,-0.021 0.04,-0.043 0.061,-0.064 0.05,-0.052 0.099,-0.104 0.148,-0.157 0.062,-0.068 0.121,-0.138 0.181,-0.208 0.058,-0.067 0.118,-0.133 0.173,-0.202 0.032,-0.04 0.062,-0.08 0.093,-0.12 0.025,-0.032 0.05,-0.064 0.074,-0.096 0.026,-0.036 0.049,-0.074 0.075,-0.11 0.008,-0.011 0.015,-0.023 0.023,-0.034 0.058,-0.082 0.118,-0.163 0.172,-0.247 0.017,-0.027 0.034,-0.053 0.051,-0.08 0.058,-0.093 0.111,-0.189 0.165,-0.284 0.051,-0.09 0.104,-0.178 0.151,-0.269 0.002,-0.004 0.005,-0.008 0.007,-0.013 0.007,-0.014 0.014,-0.028 0.021,-0.042 0.054,-0.107 0.102,-0.219 0.151,-0.329 0.04,-0.09 0.083,-0.179 0.119,-0.271 0.006,-0.015 0.013,-0.03 0.019,-0.045 0.046,-0.118 0.084,-0.239 0.124,-0.36 0.006,-0.017 0.012,-0.034 0.018,-0.051 0.007,-0.022 0.019,-0.042 0.026,-0.064 l 0.03,-0.096 c 10e-4,-0.002 10e-4,-0.004 0.002,-0.006 l 33.681,-106.656 h 71.113 c 0.005,0 0.01,0.001 0.014,0.001 0.017,0 0.034,-0.003 0.051,-0.003 0.277,-0.002 0.549,-0.02 0.818,-0.051 0.076,-0.009 0.151,-0.023 0.226,-0.034 0.218,-0.032 0.432,-0.071 0.643,-0.121 0.078,-0.018 0.155,-0.039 0.232,-0.06 0.216,-0.058 0.427,-0.126 0.634,-0.203 0.065,-0.024 0.131,-0.046 0.196,-0.072 0.269,-0.108 0.532,-0.227 0.785,-0.364 0.006,-0.003 0.012,-0.008 0.018,-0.011 0.239,-0.131 0.468,-0.277 0.691,-0.433 0.084,-0.059 0.165,-0.122 0.246,-0.184 0.149,-0.113 0.293,-0.231 0.432,-0.354 0.08,-0.071 0.16,-0.141 0.237,-0.216 0.185,-0.178 0.361,-0.364 0.526,-0.56 0.019,-0.022 0.039,-0.041 0.058,-0.063 0.188,-0.232 0.358,-0.476 0.519,-0.726 z m -82.993,-28.782 -38.29,121.253 -57.435,-70.199 z M 41.816,62.386 l 195.301,34.875 -55.8,139.5 z M 374.591,258.674 194.256,244.802 249.744,106.083 Z M 212.629,337.089 193.3,259.773 360.818,272.659 Z m -13.078,9.535 -33.364,66.728 19.065,-123.924 z M 142.792,212.618 30.564,130.997 h 46.932 z m 300.944,-85.629 33.613,21.008 h -40.247 z"
         id="path1-6"
         style="fill:#d35400;fill-opacity:1;stroke:none;stroke-opacity:1" /></g><g
       style="fill:#d35400;fill-opacity:1;stroke:none;stroke-opacity:1"
       id="g47"
       transform="matrix(-0.08320025,0,0,0.08320025,194.40673,18.209756)"><path
         d="m 509.807,159.545 c 0.016,-0.026 0.036,-0.047 0.052,-0.073 0.033,-0.053 0.058,-0.108 0.09,-0.162 0.078,-0.131 0.153,-0.263 0.222,-0.399 0.047,-0.091 0.09,-0.183 0.132,-0.275 0.06,-0.129 0.116,-0.259 0.169,-0.391 0.042,-0.105 0.08,-0.211 0.116,-0.317 0.041,-0.121 0.081,-0.242 0.116,-0.366 0.035,-0.122 0.066,-0.244 0.094,-0.367 0.026,-0.111 0.05,-0.223 0.071,-0.336 0.025,-0.138 0.046,-0.275 0.063,-0.413 0.013,-0.103 0.026,-0.207 0.034,-0.312 0.013,-0.149 0.019,-0.298 0.023,-0.447 0.002,-0.064 0.01,-0.126 0.01,-0.19 0,-0.038 -0.005,-0.076 -0.006,-0.114 -0.002,-0.141 -0.011,-0.282 -0.021,-0.423 -0.008,-0.114 -0.015,-0.228 -0.029,-0.341 -0.014,-0.116 -0.034,-0.231 -0.053,-0.346 -0.022,-0.132 -0.043,-0.265 -0.071,-0.394 -0.021,-0.094 -0.048,-0.187 -0.072,-0.28 -0.038,-0.144 -0.075,-0.288 -0.12,-0.428 -0.028,-0.086 -0.062,-0.17 -0.093,-0.255 -0.052,-0.141 -0.102,-0.281 -0.162,-0.418 -0.041,-0.095 -0.089,-0.186 -0.135,-0.279 -0.059,-0.12 -0.115,-0.241 -0.18,-0.358 -0.062,-0.112 -0.131,-0.219 -0.199,-0.328 -0.058,-0.093 -0.113,-0.187 -0.175,-0.276 -0.082,-0.119 -0.172,-0.234 -0.261,-0.349 -0.058,-0.075 -0.113,-0.151 -0.174,-0.224 -0.093,-0.111 -0.193,-0.216 -0.293,-0.322 -0.068,-0.072 -0.134,-0.146 -0.205,-0.216 -0.093,-0.091 -0.192,-0.177 -0.29,-0.264 -0.09,-0.08 -0.18,-0.16 -0.274,-0.235 -0.086,-0.069 -0.176,-0.133 -0.265,-0.198 -0.117,-0.086 -0.234,-0.169 -0.356,-0.248 -0.031,-0.02 -0.059,-0.044 -0.091,-0.063 l -64,-40 c -0.044,-0.027 -0.089,-0.048 -0.133,-0.074 -0.089,-0.053 -0.176,-0.107 -0.267,-0.156 -0.056,-0.03 -0.112,-0.058 -0.168,-0.086 -0.09,-0.046 -0.181,-0.088 -0.273,-0.13 -0.073,-0.034 -0.145,-0.069 -0.22,-0.101 -0.052,-0.022 -0.104,-0.041 -0.156,-0.061 -0.122,-0.048 -0.244,-0.092 -0.367,-0.133 -0.045,-0.015 -0.087,-0.035 -0.133,-0.049 -0.014,-0.004 -0.028,-0.007 -0.041,-0.011 -0.044,-0.013 -0.088,-0.024 -0.132,-0.037 -0.143,-0.042 -0.286,-0.077 -0.43,-0.11 -0.055,-0.012 -0.109,-0.029 -0.164,-0.04 -0.036,-0.007 -0.072,-0.01 -0.108,-0.017 -0.146,-0.027 -0.292,-0.049 -0.439,-0.068 -0.105,-0.013 -0.21,-0.026 -0.316,-0.035 -0.129,-0.011 -0.257,-0.017 -0.386,-0.021 -0.123,-0.004 -0.246,-0.007 -0.368,-0.005 -0.112,0.002 -0.223,0.008 -0.335,0.015 -0.044,0.003 -0.088,0.003 -0.132,0.006 -0.029,0.002 -0.058,10e-4 -0.087,0.004 -0.061,0.006 -0.121,0.017 -0.181,0.024 -0.103,0.012 -0.206,0.028 -0.309,0.044 -0.034,0.005 -0.068,0.009 -0.101,0.015 -0.046,0.008 -0.092,0.011 -0.137,0.02 -0.056,0.011 -0.11,0.027 -0.165,0.039 -0.103,0.022 -0.205,0.049 -0.308,0.075 -0.128,0.033 -0.255,0.067 -0.38,0.107 -0.11,0.035 -0.218,0.074 -0.326,0.114 -0.08,0.029 -0.161,0.054 -0.239,0.086 -0.033,0.013 -0.065,0.031 -0.098,0.045 -0.117,0.049 -0.231,0.104 -0.345,0.159 -0.078,0.038 -0.158,0.073 -0.235,0.113 -0.008,0.004 -0.017,0.007 -0.025,0.012 l -114.566,61.102 -68.1,-83.234 c -0.003,-0.004 -0.007,-0.007 -0.01,-0.011 -0.021,-0.026 -0.043,-0.051 -0.065,-0.077 -0.053,-0.063 -0.111,-0.12 -0.166,-0.181 -0.106,-0.118 -0.212,-0.237 -0.326,-0.348 -0.066,-0.065 -0.139,-0.124 -0.208,-0.186 -0.109,-0.099 -0.216,-0.199 -0.331,-0.292 -0.109,-0.087 -0.225,-0.166 -0.338,-0.248 -0.009,-0.006 -0.017,-0.013 -0.026,-0.019 -0.075,-0.053 -0.147,-0.111 -0.224,-0.162 -0.115,-0.076 -0.238,-0.142 -0.358,-0.212 -0.091,-0.053 -0.18,-0.11 -0.273,-0.159 -0.112,-0.059 -0.23,-0.108 -0.346,-0.161 -0.107,-0.049 -0.212,-0.103 -0.321,-0.147 -0.104,-0.042 -0.212,-0.075 -0.319,-0.112 -0.127,-0.045 -0.253,-0.092 -0.382,-0.13 -0.016,-0.005 -0.032,-0.012 -0.048,-0.016 -0.114,-0.033 -0.228,-0.053 -0.342,-0.08 -0.103,-0.024 -0.205,-0.052 -0.31,-0.072 -0.044,-0.008 -0.087,-0.018 -0.131,-0.026 L 24.818,44.114 c -0.074,-0.013 -0.147,-0.017 -0.221,-0.028 -0.135,-0.02 -0.269,-0.039 -0.404,-0.052 -0.124,-0.012 -0.246,-0.018 -0.369,-0.023 -0.117,-0.005 -0.234,-0.009 -0.351,-0.009 -0.134,0 -0.267,0.005 -0.4,0.013 -0.108,0.006 -0.217,0.014 -0.325,0.024 -0.134,0.013 -0.267,0.031 -0.399,0.052 -0.11,0.017 -0.219,0.036 -0.328,0.057 -0.126,0.025 -0.25,0.054 -0.374,0.086 -0.115,0.029 -0.23,0.061 -0.344,0.096 -0.115,0.035 -0.227,0.073 -0.34,0.114 -0.119,0.043 -0.236,0.088 -0.353,0.137 -0.108,0.045 -0.213,0.094 -0.319,0.144 -0.114,0.054 -0.227,0.11 -0.339,0.17 -0.109,0.059 -0.215,0.121 -0.32,0.185 -0.101,0.061 -0.202,0.123 -0.301,0.189 -0.116,0.078 -0.228,0.16 -0.339,0.244 -0.058,0.044 -0.12,0.082 -0.177,0.128 -0.027,0.021 -0.049,0.045 -0.076,0.067 -0.112,0.092 -0.219,0.19 -0.326,0.289 -0.077,0.071 -0.156,0.141 -0.23,0.215 -0.096,0.096 -0.185,0.198 -0.276,0.299 -0.075,0.084 -0.152,0.166 -0.222,0.252 -0.08,0.098 -0.154,0.202 -0.229,0.305 -0.07,0.095 -0.142,0.189 -0.207,0.286 -0.068,0.103 -0.129,0.21 -0.192,0.317 -0.062,0.104 -0.126,0.206 -0.182,0.312 -0.056,0.106 -0.105,0.217 -0.156,0.326 -0.053,0.113 -0.108,0.225 -0.155,0.34 -0.044,0.106 -0.08,0.216 -0.119,0.325 -0.044,0.124 -0.09,0.248 -0.127,0.374 -0.031,0.104 -0.056,0.212 -0.083,0.319 -0.034,0.136 -0.068,0.271 -0.094,0.408 -0.007,0.035 -0.018,0.069 -0.024,0.104 -0.014,0.076 -0.018,0.151 -0.029,0.227 -0.019,0.132 -0.038,0.264 -0.05,0.397 -0.012,0.124 -0.018,0.247 -0.023,0.37 -0.005,0.118 -0.009,0.236 -0.009,0.354 0,0.132 0.006,0.263 0.013,0.394 0.006,0.111 0.014,0.221 0.025,0.332 0.013,0.132 0.031,0.262 0.051,0.392 0.017,0.112 0.037,0.224 0.059,0.335 0.025,0.124 0.053,0.246 0.085,0.368 0.03,0.117 0.062,0.233 0.097,0.349 0.035,0.113 0.073,0.225 0.113,0.336 0.043,0.119 0.088,0.238 0.137,0.355 0.045,0.107 0.093,0.213 0.143,0.318 0.054,0.114 0.11,0.227 0.17,0.339 0.058,0.109 0.121,0.214 0.184,0.32 0.061,0.102 0.123,0.203 0.19,0.302 0.077,0.115 0.159,0.226 0.242,0.336 0.044,0.059 0.082,0.121 0.129,0.179 l 47.852,59.815 H 7.5 c -0.068,0 -0.133,0.008 -0.2,0.01 -0.138,0.004 -0.276,0.01 -0.414,0.021 -0.121,0.01 -0.241,0.024 -0.36,0.039 -0.117,0.015 -0.234,0.033 -0.35,0.053 -0.132,0.023 -0.262,0.051 -0.391,0.081 -0.104,0.024 -0.207,0.051 -0.31,0.08 -0.133,0.037 -0.263,0.077 -0.393,0.122 -0.101,0.034 -0.201,0.071 -0.301,0.11 -0.123,0.048 -0.244,0.098 -0.363,0.152 -0.106,0.048 -0.211,0.099 -0.315,0.152 -0.107,0.055 -0.213,0.111 -0.317,0.171 -0.111,0.063 -0.22,0.13 -0.328,0.199 -0.093,0.06 -0.184,0.121 -0.274,0.184 -0.11,0.077 -0.217,0.158 -0.323,0.242 -0.086,0.068 -0.169,0.137 -0.251,0.208 -0.099,0.086 -0.197,0.174 -0.292,0.265 -0.087,0.083 -0.17,0.168 -0.253,0.255 -0.082,0.086 -0.162,0.174 -0.24,0.265 -0.091,0.106 -0.178,0.215 -0.263,0.326 -0.041,0.053 -0.085,0.1 -0.125,0.154 -0.023,0.032 -0.041,0.065 -0.063,0.097 -0.086,0.122 -0.165,0.247 -0.244,0.373 -0.053,0.086 -0.108,0.172 -0.157,0.259 -0.069,0.123 -0.132,0.249 -0.195,0.376 -0.048,0.097 -0.097,0.194 -0.141,0.292 -0.052,0.118 -0.097,0.239 -0.143,0.36 -0.042,0.111 -0.086,0.222 -0.123,0.335 -0.036,0.111 -0.066,0.225 -0.097,0.339 -0.035,0.126 -0.07,0.252 -0.097,0.379 -0.023,0.105 -0.039,0.212 -0.058,0.318 -0.024,0.139 -0.048,0.278 -0.064,0.418 -0.012,0.101 -0.018,0.203 -0.025,0.306 -0.011,0.147 -0.02,0.295 -0.022,0.442 C 0.005,123.419 0,123.457 0,123.497 c 0,0.068 0.008,0.133 0.01,0.2 0.004,0.138 0.009,0.276 0.021,0.414 0.01,0.121 0.024,0.24 0.039,0.36 0.015,0.118 0.033,0.235 0.054,0.351 0.023,0.131 0.051,0.261 0.081,0.39 0.025,0.105 0.051,0.209 0.08,0.312 0.037,0.132 0.077,0.261 0.121,0.39 0.035,0.103 0.072,0.204 0.112,0.305 0.047,0.121 0.097,0.241 0.15,0.359 0.049,0.108 0.101,0.215 0.154,0.321 0.054,0.105 0.109,0.209 0.167,0.311 0.064,0.113 0.133,0.224 0.203,0.334 0.058,0.091 0.118,0.181 0.18,0.269 0.078,0.111 0.16,0.22 0.245,0.327 0.067,0.084 0.135,0.167 0.205,0.248 0.086,0.1 0.175,0.198 0.268,0.294 0.082,0.086 0.167,0.169 0.254,0.251 0.087,0.082 0.174,0.163 0.266,0.242 0.106,0.091 0.215,0.177 0.325,0.262 0.053,0.041 0.1,0.085 0.155,0.125 l 172.304,125.312 -31.29,203.386 c -0.004,0.024 -0.007,0.048 -0.011,0.073 l -0.004,0.024 c -0.005,0.031 -0.005,0.061 -0.009,0.092 -0.03,0.213 -0.054,0.426 -0.066,0.638 -0.005,0.084 -0.002,0.166 -0.004,0.249 -0.003,0.159 -0.007,0.318 -0.001,0.476 0.005,0.124 0.019,0.245 0.03,0.367 0.011,0.116 0.018,0.232 0.034,0.347 0.02,0.143 0.049,0.284 0.077,0.425 0.019,0.094 0.034,0.189 0.057,0.282 0.034,0.144 0.077,0.284 0.119,0.425 0.027,0.091 0.052,0.182 0.083,0.272 0.045,0.13 0.097,0.257 0.149,0.385 0.04,0.099 0.078,0.199 0.123,0.296 0.05,0.109 0.106,0.215 0.161,0.321 0.058,0.112 0.114,0.224 0.177,0.333 0.051,0.088 0.108,0.172 0.162,0.258 0.076,0.12 0.152,0.24 0.236,0.356 0.053,0.073 0.11,0.143 0.165,0.214 0.093,0.12 0.186,0.239 0.287,0.354 0.06,0.068 0.125,0.132 0.187,0.199 0.102,0.108 0.203,0.216 0.312,0.318 0.081,0.076 0.168,0.147 0.253,0.22 0.096,0.083 0.191,0.167 0.292,0.245 0.123,0.096 0.253,0.183 0.383,0.271 0.071,0.048 0.138,0.099 0.21,0.144 0.181,0.114 0.369,0.218 0.561,0.317 0.027,0.014 0.051,0.03 0.078,0.044 0.003,0.001 0.006,0.002 0.009,0.004 0.253,0.126 0.514,0.238 0.783,0.336 0.067,0.024 0.135,0.041 0.202,0.063 0.184,0.061 0.37,0.119 0.561,0.166 0.126,0.031 0.252,0.053 0.378,0.078 0.094,0.018 0.185,0.043 0.281,0.058 0.032,0.005 0.063,0.003 0.095,0.007 0.347,0.049 0.694,0.082 1.04,0.082 0.004,0 0.008,-0.001 0.011,-0.001 0.001,0 0.003,0 0.004,0 0.31,0 0.615,-0.026 0.918,-0.064 0.06,-0.008 0.119,-0.015 0.179,-0.024 0.619,-0.092 1.217,-0.261 1.783,-0.498 0.055,-0.023 0.109,-0.045 0.163,-0.069 0.274,-0.122 0.541,-0.258 0.798,-0.412 0.047,-0.028 0.091,-0.06 0.137,-0.089 0.216,-0.136 0.424,-0.283 0.625,-0.439 0.06,-0.046 0.12,-0.091 0.178,-0.139 0.223,-0.185 0.435,-0.384 0.636,-0.595 0.05,-0.053 0.098,-0.108 0.147,-0.162 0.202,-0.224 0.394,-0.458 0.569,-0.706 0.005,-0.008 0.012,-0.015 0.017,-0.022 0.189,-0.272 0.356,-0.56 0.509,-0.858 0.012,-0.024 0.029,-0.045 0.041,-0.069 L 212.99,353.289 394.491,274.376 c 0.049,-0.021 0.093,-0.048 0.141,-0.07 0.145,-0.067 0.288,-0.137 0.429,-0.213 0.013,-0.007 0.027,-0.013 0.041,-0.02 0.023,-0.012 0.046,-0.021 0.069,-0.034 0.052,-0.029 0.1,-0.064 0.152,-0.094 0.113,-0.067 0.225,-0.137 0.334,-0.21 0.072,-0.048 0.145,-0.093 0.215,-0.143 0.027,-0.019 0.052,-0.041 0.079,-0.061 0.082,-0.06 0.162,-0.123 0.241,-0.187 0.019,-0.015 0.041,-0.025 0.06,-0.041 0.019,-0.016 0.036,-0.034 0.055,-0.05 0.07,-0.058 0.137,-0.117 0.204,-0.178 0.066,-0.06 0.13,-0.122 0.194,-0.183 0.004,-0.004 0.008,-0.007 0.012,-0.011 0.028,-0.027 0.058,-0.05 0.086,-0.078 0.021,-0.021 0.04,-0.043 0.061,-0.064 0.05,-0.052 0.099,-0.104 0.148,-0.157 0.062,-0.068 0.121,-0.138 0.181,-0.208 0.058,-0.067 0.118,-0.133 0.173,-0.202 0.032,-0.04 0.062,-0.08 0.093,-0.12 0.025,-0.032 0.05,-0.064 0.074,-0.096 0.026,-0.036 0.049,-0.074 0.075,-0.11 0.008,-0.011 0.015,-0.023 0.023,-0.034 0.058,-0.082 0.118,-0.163 0.172,-0.247 0.017,-0.027 0.034,-0.053 0.051,-0.08 0.058,-0.093 0.111,-0.189 0.165,-0.284 0.051,-0.09 0.104,-0.178 0.151,-0.269 0.002,-0.004 0.005,-0.008 0.007,-0.013 0.007,-0.014 0.014,-0.028 0.021,-0.042 0.054,-0.107 0.102,-0.219 0.151,-0.329 0.04,-0.09 0.083,-0.179 0.119,-0.271 0.006,-0.015 0.013,-0.03 0.019,-0.045 0.046,-0.118 0.084,-0.239 0.124,-0.36 0.006,-0.017 0.012,-0.034 0.018,-0.051 0.007,-0.022 0.019,-0.042 0.026,-0.064 l 0.03,-0.096 c 10e-4,-0.002 10e-4,-0.004 0.002,-0.006 l 33.681,-106.656 h 71.113 c 0.005,0 0.01,0.001 0.014,0.001 0.017,0 0.034,-0.003 0.051,-0.003 0.277,-0.002 0.549,-0.02 0.818,-0.051 0.076,-0.009 0.151,-0.023 0.226,-0.034 0.218,-0.032 0.432,-0.071 0.643,-0.121 0.078,-0.018 0.155,-0.039 0.232,-0.06 0.216,-0.058 0.427,-0.126 0.634,-0.203 0.065,-0.024 0.131,-0.046 0.196,-0.072 0.269,-0.108 0.532,-0.227 0.785,-0.364 0.006,-0.003 0.012,-0.008 0.018,-0.011 0.239,-0.131 0.468,-0.277 0.691,-0.433 0.084,-0.059 0.165,-0.122 0.246,-0.184 0.149,-0.113 0.293,-0.231 0.432,-0.354 0.08,-0.071 0.16,-0.141 0.237,-0.216 0.185,-0.178 0.361,-0.364 0.526,-0.56 0.019,-0.022 0.039,-0.041 0.058,-0.063 0.188,-0.232 0.358,-0.476 0.519,-0.726 z m -82.993,-28.782 -38.29,121.253 -57.435,-70.199 z M 41.816,62.386 l 195.301,34.875 -55.8,139.5 z M 374.591,258.674 194.256,244.802 249.744,106.083 Z M 212.629,337.089 193.3,259.773 360.818,272.659 Z m -13.078,9.535 -33.364,66.728 19.065,-123.924 z M 142.792,212.618 30.564,130.997 h 46.932 z m 300.944,-85.629 33.613,21.008 h -40.247 z"
         id="path46"
         style="fill:#d35400;fill-opacity:1;stroke:none;stroke-opacity:1" /></g><path
       id="path135"
       style="fill:#fef6e9;fill-opacity:1;stroke:none;stroke-width:5.065;stroke-dasharray:none;stroke-opacity:1"
       d="m 48.863742,97.994439 v -9.500712 a 66.072037,13.504302 0 0 0 59.073388,7.50962 66.072037,13.504302 0 0 0 59.07392,-7.464661 v 9.110038 a 91.342949,19.777962 0 0 1 -60.11468,4.888596 91.342949,19.777962 0 0 1 -58.032628,-4.542881 z" /><path
       id="path136"
       style="fill:#fef6e9;fill-opacity:1;stroke:none;stroke-width:5.065;stroke-dasharray:none;stroke-opacity:1"
       d="m 48.863742,93.231936 v -9.500712 a 66.072037,13.504302 0 0 0 59.073388,7.50962 66.072037,13.504302 0 0 0 59.07392,-7.464661 v 9.110038 a 91.342949,19.777962 0 0 1 -60.11468,4.888591 91.342949,19.777962 0 0 1 -58.032628,-4.542876 z" /><path
       id="path14"
       style="fill:#d35400;fill-opacity:1;stroke:none;stroke-width:5.065;stroke-dasharray:none;stroke-opacity:1"
       d="M 46.322237,64.917485 A 91.342949,19.777962 0 0 0 13.011609,80.15273 91.342949,19.777962 0 0 0 104.35487,99.930851 91.342949,19.777962 0 0 0 195.69762,80.15273 91.342949,19.777962 0 0 0 164.46955,65.2632 v 9.110038 a 66.072037,13.504302 0 0 1 6.99802,6.039942 66.072037,13.504302 0 0 1 -66.07194,13.504085 66.072037,13.504302 0 0 1 -66.071932,-13.504085 66.072037,13.504302 0 0 1 6.998539,-5.994983 z" /></g></svg>
