<?xml version="1.0" encoding="UTF-8" standalone="no"?>
<svg
   viewBox="0 0 400 300"
   version="1.1"
   id="svg22"
   sodipodi:docname="writereadssucceed-logo-tree.svg"
   inkscape:version="1.4 (86a8ad7, 2024-10-11)"
   xmlns:inkscape="http://www.inkscape.org/namespaces/inkscape"
   xmlns:sodipodi="http://sodipodi.sourceforge.net/DTD/sodipodi-0.dtd"
   xmlns="http://www.w3.org/2000/svg"
   xmlns:svg="http://www.w3.org/2000/svg">
  <defs
     id="defs22" />
  <sodipodi:namedview
     id="namedview22"
     pagecolor="#ffffff"
     bordercolor="#000000"
     borderopacity="0.25"
     inkscape:showpageshadow="2"
     inkscape:pageopacity="0.0"
     inkscape:pagecheckerboard="0"
     inkscape:deskcolor="#d1d1d1"
     inkscape:zoom="2.69"
     inkscape:cx="199.81413"
     inkscape:cy="150"
     inkscape:window-width="1920"
     inkscape:window-height="1009"
     inkscape:window-x="-8"
     inkscape:window-y="342"
     inkscape:window-maximized="1"
     inkscape:current-layer="svg22" />
  <!-- Background circle -->
  <circle
     cx="200"
     cy="150"
     r="130"
     fill="#f4f9ff"
     id="circle1"
     style="fill:#f5fff4;fill-opacity:1" />
  <g
     transform="rotate(-5,2207.8525,-1888.2569)"
     id="g13">
    <rect
       x="-15"
       y="-10"
       width="30"
       height="20"
       fill="#5c8fd6"
       rx="2"
       ry="2"
       id="rect10" />
    <line
       x1="-10"
       y1="-5"
       x2="10"
       y2="-5"
       stroke="#ffffff"
       stroke-width="2"
       id="line11" />
    <line
       x1="-10"
       y1="0"
       x2="10"
       y2="0"
       stroke="#ffffff"
       stroke-width="2"
       id="line12" />
    <line
       x1="-10"
       y1="5"
       x2="5"
       y2="5"
       stroke="#ffffff"
       stroke-width="2"
       id="line13" />
    <!-- String connecting to branch -->
    <path
       d="M 0,-10 V -20"
       stroke="#666666"
       stroke-width="1"
       id="path13" />
  </g>
  <!-- Tree trunk -->
  <path
     d="M190 210 L210 210 L208 140 L192 140 Z"
     fill="#8B4513"
     id="path1" />
  <!-- Tree branches -->
  <path
     d="M200 140 L160 120 M200 140 L150 150 M200 140 L170 170 M200 140 L240 120 M200 140 L250 150 M200 140 L230 170"
     stroke="#8B4513"
     stroke-width="8"
     stroke-linecap="round"
     id="path2" />
  <!-- Tree foliage -->
  <path
     d="M200 120 C230 90, 250 70, 200 40 C150 70, 170 90, 200 120 Z"
     fill="#4a6fa5"
     id="path3"
     style="fill:#67a54a;fill-opacity:1" />
  <path
     d="M220 110 C260 100, 280 85, 240 60 C200 80, 190 100, 220 110 Z"
     fill="#5c8fd6"
     id="path4"
     style="fill:#97d65c;fill-opacity:1" />
  <path
     d="M180 110 C140 100, 120 85, 160 60 C200 80, 210 100, 180 110 Z"
     fill="#5c8fd6"
     id="path5"
     style="fill:#97d65c;fill-opacity:1" />
  <!-- Book 1 (hanging left) -->
  <!-- Book 2 (hanging right) -->
  <g
     transform="rotate(10,-847.21724,1413.1965)"
     id="g10">
    <rect
       x="-15"
       y="-10"
       width="30"
       height="20"
       fill="#4a6fa5"
       rx="2"
       ry="2"
       id="rect7" />
    <line
       x1="-10"
       y1="-5"
       x2="10"
       y2="-5"
       stroke="#ffffff"
       stroke-width="2"
       id="line8" />
    <line
       x1="-10"
       y1="0"
       x2="10"
       y2="0"
       stroke="#ffffff"
       stroke-width="2"
       id="line9" />
    <line
       x1="-10"
       y1="5"
       x2="5"
       y2="5"
       stroke="#ffffff"
       stroke-width="2"
       id="line10" />
    <!-- String connecting to branch -->
    <path
       d="M 0,-10 V -20"
       stroke="#666666"
       stroke-width="1"
       id="path10" />
  </g>
  <!-- Book 3 (hanging lower left) -->
  <!-- Book 4 (hanging middle) -->
  <g
     transform="translate(159.8513,144.2751)"
     id="g16">
    <rect
       x="-15"
       y="-10"
       width="30"
       height="20"
       fill="#f5a742"
       rx="2"
       ry="2"
       id="rect13" />
    <line
       x1="-10"
       y1="-5"
       x2="10"
       y2="-5"
       stroke="#ffffff"
       stroke-width="2"
       id="line14" />
    <line
       x1="-10"
       y1="0"
       x2="10"
       y2="0"
       stroke="#ffffff"
       stroke-width="2"
       id="line15" />
    <line
       x1="-10"
       y1="5"
       x2="5"
       y2="5"
       stroke="#ffffff"
       stroke-width="2"
       id="line16" />
    <!-- String connecting to branch -->
    <path
       d="M 0,-10 V -20"
       stroke="#666666"
       stroke-width="1"
       id="path16" />
  </g>
  <!-- Book 5 (hanging lower right) -->
  <g
     transform="rotate(5,-1630.1301,2356.1054)"
     id="g19">
    <rect
       x="-15"
       y="-10"
       width="30"
       height="20"
       fill="#4a6fa5"
       rx="2"
       ry="2"
       id="rect16" />
    <line
       x1="-10"
       y1="-5"
       x2="10"
       y2="-5"
       stroke="#ffffff"
       stroke-width="2"
       id="line17" />
    <line
       x1="-10"
       y1="0"
       x2="10"
       y2="0"
       stroke="#ffffff"
       stroke-width="2"
       id="line18" />
    <line
       x1="-10"
       y1="5"
       x2="5"
       y2="5"
       stroke="#ffffff"
       stroke-width="2"
       id="line19" />
    <!-- String connecting to branch -->
  </g>
  <!-- Text elements -->
  <text
     x="85"
     y="240"
     font-family="Arial, sans-serif"
     font-weight="bold"
     font-size="28"
     fill="#4a6fa5"
     id="text19"
     style="fill:#4aa54e;fill-opacity:1">Write</text>
  <text
     x="157"
     y="240"
     font-family="Arial, sans-serif"
     font-weight="bold"
     font-size="28"
     fill="#5c8fd6"
     id="text20"
     style="fill:#d65c65;fill-opacity:1">Read</text>
  <text
     x="230"
     y="240"
     font-family="Arial, sans-serif"
     font-weight="bold"
     font-size="28"
     fill="#f5a742"
     id="text21">Succeed</text>
  <!-- Small tagline -->
  <text
     x="105"
     y="262"
     font-family="Arial, sans-serif"
     font-style="italic"
     font-size="12"
     fill="#666"
     id="text22">Literacy Intervention for Young Learners</text>
  <g
     transform="rotate(-15,670.28503,-860.44527)"
     id="g7">
    <rect
       x="-15"
       y="-10"
       width="30"
       height="20"
       fill="#f5a742"
       rx="2"
       ry="2"
       id="rect5" />
    <line
       x1="-10"
       y1="-5"
       x2="10"
       y2="-5"
       stroke="#ffffff"
       stroke-width="2"
       id="line5" />
    <line
       x1="-10"
       y1="0"
       x2="10"
       y2="0"
       stroke="#ffffff"
       stroke-width="2"
       id="line6" />
    <line
       x1="-10"
       y1="5"
       x2="5"
       y2="5"
       stroke="#ffffff"
       stroke-width="2"
       id="line7" />
    <!-- String connecting to branch -->
    <path
       d="M 0,-10 V -20"
       stroke="#666666"
       stroke-width="1"
       id="path7" />
  </g>
</svg>
