<?xml version="1.0" encoding="UTF-8" standalone="no"?>
<!-- Created with Inkscape (http://www.inkscape.org/) -->

<svg
   width="94mm"
   height="28mm"
   viewBox="0 0 94 28"
   version="1.1"
   id="svg1"
   inkscape:version="1.4 (86a8ad7, 2024-10-11)"
   sodipodi:docname="WRS_Name.svg"
   xmlns:inkscape="http://www.inkscape.org/namespaces/inkscape"
   xmlns:sodipodi="http://sodipodi.sourceforge.net/DTD/sodipodi-0.dtd"
   xmlns="http://www.w3.org/2000/svg"
   xmlns:svg="http://www.w3.org/2000/svg">
  <sodipodi:namedview
     id="namedview1"
     pagecolor="#ffffff"
     bordercolor="#000000"
     borderopacity="0.25"
     inkscape:showpageshadow="2"
     inkscape:pageopacity="0.0"
     inkscape:pagecheckerboard="0"
     inkscape:deskcolor="#d1d1d1"
     inkscape:document-units="mm"
     inkscape:zoom="0.71891835"
     inkscape:cx="397.12437"
     inkscape:cy="561.25984"
     inkscape:window-width="1920"
     inkscape:window-height="1009"
     inkscape:window-x="-8"
     inkscape:window-y="342"
     inkscape:window-maximized="1"
     inkscape:current-layer="layer1" />
  <defs
     id="defs1" />
  <g
     inkscape:label="Layer 1"
     inkscape:groupmode="layer"
     id="layer1">
    <path
       d="M 21.426695,9.8299796 Q 20.03798,12.43768 18.402381,12.43768 q -0.856375,0 -1.373286,-0.62492 -0.516911,-0.63264 -0.516911,-1.66646 0,-1.2035504 0.856375,-3.6569504 0.86409,-2.4534 0.86409,-3.47179 0,-0.45519 -0.262313,-0.75608 -0.254598,-0.30089 -0.640352,-0.30089 -0.594062,0 -1.180409,0.72522 -0.586346,0.72522 -0.586346,1.4813 0,0.57863 0.524626,1.20355 0.216022,0.26231 0.216022,0.36261 0,0.11573 -0.331749,0.51691 -0.331748,0.40119 -0.570916,0.40119 -0.254598,0 -0.578632,-0.37033 -0.324033,-0.37032 -0.324033,-1.10326 0,-1.48901 1.041536,-2.70799 1.049252,-1.21899 2.314527,-1.21899 0.948956,0 1.604738,0.78694 0.655782,0.78694 0.655782,1.95963 0,1.23442 -0.794654,3.49494 -0.786939,2.25281 -0.786939,3.0166004 0,0.36261 0.185163,0.57863 0.185162,0.20831 0.493765,0.20831 0.671213,0 1.33471,-1.09554 0.663498,-1.0955504 1.211269,-3.1400504 l 0.725218,-2.71571 q 0.42433,-1.60473 0.948956,-2.80057 0.05401,-0.13116 0.717503,-0.2006 0.671213,-0.0771 0.972102,-0.0771 0.300888,0 0.300888,0.12345 l -1.411861,5.38513 q -0.609492,2.36853 -0.609492,3.4640704 0,0.47834 0.200592,0.76379 0.200592,0.27775 0.540056,0.27775 0.501481,0 1.365571,-0.8178 0.871805,-0.8255204 1.465867,-2.0985104 0.594061,-1.2807 0.594061,-2.61541 0,-1.42729 -0.694358,-2.83915 -0.192877,-0.4089 -0.192877,-0.5092 0,-0.33175 0.632637,-0.73293 0.640353,-0.40119 0.918096,-0.40119 0.262313,0 0.524626,0.70208 0.270028,0.69435 0.270028,1.45815 0,2.02907 -0.948956,4.15843 -0.948956,2.12165 -2.360817,3.4872204 -1.411861,1.36557 -2.553694,1.36557 -0.810084,0 -1.288419,-0.64807 Q 21.40355,11.13388 21.426695,9.8300296 Z M 35.090116,10.5552 q -1.936487,1.89791 -2.985739,1.89791 -0.470621,0 -0.794654,-0.39347 -0.324034,-0.40118 -0.324034,-0.98753 0,-1.0878304 1.164978,-2.9163004 -0.570916,0.29317 -1.249844,0.4089 -0.501481,0.92581 -1.573878,1.9904904 H 29.149498 V 9.8608396 q 0.601777,-0.62492 1.087827,-1.34242 -0.663497,-0.29318 -0.663497,-0.87181 0,-0.59406 0.401184,-1.26527 0.4089,-0.67893 1.118688,-0.67893 0.601777,0 0.601777,0.61721 0,0.48605 -0.347179,1.38871 1.280705,-0.13887 2.237376,-1.95963 l 0.702073,-0.0309 -0.717504,1.97506 q -0.447475,1.24985 -0.578631,1.70504 -0.131157,0.44747 -0.131157,0.7946504 0,0.32403 0.146587,0.51691 0.154302,0.19288 0.4089,0.19288 0.277743,0 0.532341,-0.18516 0.254598,-0.19288 1.141833,-1.0492604 z m 3.641518,-7.8539604 q 0,1.85162 -1.36557,1.85162 -0.663494,0 -1.134115,-0.40118 0.447475,-0.67893 0.694358,-1.52759 0.609497,0.37804 0.979817,0.37804 0.41661,0 0.82551,-0.30089 z m 0.15431,7.8539604 q -1.80533,1.89791 -2.700285,1.89791 -0.493766,0 -0.83323,-0.50148 -0.339464,-0.5092 -0.339464,-1.27299 0,-1.6433104 1.110973,-4.5519004 l 1.959636,-0.4089 h 0.0926 l -0.77151,2.41482 q -0.478338,1.49673 -0.478338,2.1370804 0,0.2546 0.108011,0.41662 0.115727,0.1543 0.285457,0.1543 0.30089,0 0.60178,-0.21602 0.3086,-0.22374 0.96439,-0.9566804 z m 4.44388,0 q -0.9721,0.96439 -1.68188,1.42729 -0.70979,0.45519 -1.35014,0.45519 -0.6635,0 -1.08012,-0.55549 -0.4089,-0.5632 -0.4089,-1.47358 0,-0.8023704 0.38576,-2.1216504 l 0.33946,-1.16497 -0.59406,0.0309 0.24688,-1.21127 0.73294,-0.0309 0.72522,-2.40711 2.06764,-0.42433 -0.78694,2.68485 1.0724,-0.0617 -0.2546,1.18812 -1.19584,0.0926 -0.51691,1.72818 q -0.26231,0.90267 -0.26231,1.4350104 0,0.36261 0.17744,0.59406 0.18517,0.22374 0.47062,0.22374 0.39347,0 0.77923,-0.24688 0.38575,-0.2546 1.13411,-1.0492604 z m 5.76318,0 q -0.97982,0.96439 -1.75904,1.42729 -0.77922,0.45519 -1.72047,0.45519 -1.04925,0 -1.69732,-0.67121 -0.64035,-0.67121 -0.64035,-1.7667604 0,-1.6356 1.13412,-2.95488 1.13412,-1.32699 2.51512,-1.32699 0.7175,0 1.14955,0.37032 0.43204,0.37033 0.43204,0.9721 0,1.59703 -3.39464,2.59227 0.30861,1.5044504 1.61246,1.5044504 0.50919,0 0.9721,-0.27003 0.4629,-0.27774 1.39643,-1.2189904 z m -4.04271,-1.4272904 q 1.97507,-0.55549 1.97507,-2.05221 0,-0.74065 -0.54006,-0.74065 -0.5092,0 -0.9721,0.77922 -0.46291,0.77151 -0.46291,2.01364 z"
       id="text26135"
       style="font-weight:bold;font-size:15.8005px;font-family:'Script MT Bold';-inkscape-font-specification:'Script MT Bold,  Bold';display:inline;fill:#ffc14b;stroke-width:0.0373241"
       aria-label="Write" />
    <path
       style="font-size:15.1176px;font-family:'MS Reference Sans Serif';-inkscape-font-specification:'MS Reference Sans Serif';display:inline;fill:#e74c3c;stroke-width:0.035711"
       d="m 61.426794,12.13827 h -1.89708 l -3.67606,-4.3699304 h -2.05947 V 12.13827 h -1.46157 V 1.1470096 h 3.07815 q 0.99652,0 1.66086,0.13287 0.66435,0.12548 1.19583,0.45766 0.59791,0.37646 0.93009,0.95223 0.33955,0.56839 0.33955,1.4468 0,1.18845 -0.59791,1.99304 -0.59791,0.79722 -1.64611,1.20321 z m -3.4177,-7.8983604 q 0,-0.47242 -0.16977,-0.83412 -0.1624,-0.36908 -0.54625,-0.62006 -0.31741,-0.21407 -0.75292,-0.29526 -0.43552,-0.0886 -1.02605,-0.0886 h -1.71992 v 4.14848 h 1.47632 q 0.69388,0 1.21059,-0.11811 0.51672,-0.12549 0.87842,-0.45766 0.33217,-0.31003 0.48719,-0.70864 0.16239,-0.40599 0.16239,-1.02605 z m 11.25701,3.91966 h -6.07509 q 0,0.76031 0.22883,1.32869 0.22883,0.5610104 0.62744,0.9227104 0.38384,0.35432 0.90794,0.53147 0.53148,0.17716 1.1663,0.17716 0.8415,0 1.69039,-0.33217 0.85627,-0.33956 1.21797,-0.66435 h 0.0738 v 1.51324 q -0.70126,0.29526 -1.43204,0.49457 -0.73078,0.1993 -1.53538,0.1993 -2.0521,0 -3.20363,-1.10724 -1.15154,-1.11463 -1.15154,-3.1593504 0,-2.02256 1.09987,-3.21101 1.10724,-1.18844 2.90836,-1.18844 1.66825,0 2.56881,0.97437 0.90795,0.97438 0.90795,2.76812 z m -1.35084,-1.06296 q -0.007,-1.09248 -0.55363,-1.6904 -0.53886,-0.59791 -1.6461,-0.59791 -1.11463,0 -1.77898,0.65697 -0.65696,0.65696 -0.74554,1.63134 z m 9.86187,5.0416604 h -1.38037 v -0.87841 q -0.18454,0.12548 -0.50195,0.35431 -0.31003,0.22145 -0.6053,0.35432 -0.34693,0.16978 -0.79721,0.28051 -0.45028,0.1181 -1.05558,0.1181 -1.11463,0 -1.8897,-0.73816 -0.77507,-0.73817 -0.77507,-1.8823204 0,-0.93747 0.39861,-1.51324 0.40599,-0.58315 1.15153,-0.91532 0.75293,-0.33217 1.80851,-0.45028 1.05557,-0.11811 2.26616,-0.17716 v -0.21407 q 0,-0.47242 -0.16978,-0.78245 -0.16239,-0.31003 -0.47242,-0.48719 -0.29527,-0.16978 -0.70864,-0.22883 -0.41337,-0.0591 -0.86365,-0.0591 -0.54624,0 -1.21797,0.14763 -0.67173,0.14025 -1.38775,0.41337 h -0.0738 v -1.40989 q 0.40599,-0.11073 1.17368,-0.2436 0.76769,-0.13287 1.51324,-0.13287 0.87103,0 1.51324,0.14764 0.64958,0.14025 1.12201,0.48718 0.46504,0.33956 0.70863,0.87842 0.2436,0.53886 0.2436,1.33608 z m -1.38037,-2.02995 V 7.8126296 q -0.63482,0.0369 -1.49847,0.11072 -0.85627,0.0738 -1.35822,0.21407 -0.59792,0.16978 -0.967,0.53148 -0.36908,0.35432 -0.36908,0.98176 0,0.7086404 0.42813,1.0703404 0.42814,0.35431 1.30655,0.35431 0.73079,0 1.33608,-0.2805 0.6053,-0.28788 1.12201,-0.68649 z m 10.74029,2.02995 h -1.38775 v -0.86365 q -0.59791,0.51671 -1.2475,0.8046 -0.64958,0.28788 -1.40989,0.28788 -1.47633,0 -2.34736,-1.13677 -0.86366,-1.13677 -0.86366,-3.1519604 0,-1.04819 0.29527,-1.86756 0.30265,-0.81936 0.81198,-1.39513 0.50195,-0.561 1.1663,-0.85627 0.67173,-0.29526 1.38775,-0.29526 0.64958,0 1.15153,0.14025 0.50196,0.13287 1.05558,0.42075 V 0.65243959 h 1.38775 z m -1.38775,-2.02995 V 5.3766896 q -0.56101,-0.25098 -1.0039,-0.34694 -0.4429,-0.096 -0.967,-0.096 -1.1663,0 -1.81588,0.81198 -0.64959,0.81198 -0.64959,2.30307 0,1.46895 0.50195,2.2366404 0.50196,0.76031 1.6092,0.76031 0.59053,0 1.19583,-0.25836 0.60529,-0.26574 1.12939,-0.67911 z"
       id="text26136"
       aria-label="Read" />
    <path
       style="font-weight:bold;font-size:23.561px;font-family:'Segoe Print';-inkscape-font-specification:'Segoe Print Bold';display:inline;fill:#3498db;stroke-width:0.055656"
       d="m 12.703997,13.69866 q 0,-1.13894 -0.586724,-1.5761 -0.586724,-0.44868 -1.72566,-0.44868 -1.9442415,0 -3.6123795,0.95487 -1.656632,0.94336 -1.656632,2.0823 0,0.72477 0.621237,1.24247 0.632742,0.50619 3.244239,1.26548 2.7380455,0.79381 4.0610515,1.74867 1.334509,0.94336 1.334509,2.27787 0,2.22035 -3.382292,4.07256 -3.3822915,1.8407 -7.0291845,1.8407 -1.184953,0 -1.898224,-0.49469 -0.713273,-0.49469 -0.713273,-1.21946 0,-0.57522 0.322123,-1.06991 0.322124,-0.49469 0.770794,-0.49469 0.276105,0 0.506193,0.092 1.207962,0.5177 2.254862,0.5177 1.794685,0 4.026538,-1.00088 2.2433565,-1.01239 2.2433565,-1.97876 0,-0.40265 -0.563715,-0.77079 -0.552211,-0.37965 -2.2663655,-0.94336 -2.496454,-0.81681 -3.761937,-1.34602 -1.253979,-0.5292 -1.90973,-1.38052 -0.644246,-0.86283 -0.644246,-2.0708 0,-2.15132 2.507958,-4.00352 2.507958,-1.8522104 5.8902495,-1.8522104 1.944243,0 3.060169,0.77079 1.127431,0.7708004 1.127431,1.7601704 0,2.02478 -2.220348,2.02478 z m 12.217667,8.15661 q -1.104422,2.01327 -2.56548,3.19823 -1.449554,1.18495 -2.945125,1.18495 -0.885838,0 -1.794686,-0.93186 -0.897342,-0.93185 -0.897342,-2.86459 0,-1.36902 0.690263,-4.13008 0.598229,-2.27787 0.598229,-3.46282 0.460176,-0.96637 1.438049,-0.96637 0.667255,0 1.058404,0.44867 0.402654,0.43717 0.402654,0.88584 0,0.81681 -0.575219,2.32389 -0.333628,0.89734 -0.724777,2.54247 -0.379645,1.63362 -0.379645,2.0938 0,1.53008 0.632741,1.53008 1.000883,0 2.703533,-1.92123 1.702651,-1.92124 2.220348,-3.93451 0.517698,-1.96725 0.920352,-2.57698 0.402654,-0.60973 1.138935,-0.60973 1.196457,0 1.196457,1.33451 0,0.19557 -0.195575,0.7823 -0.678759,2.03627 -0.678759,4.59025 0,2.99114 1.012387,3.57787 0.333627,0.19557 0.333627,0.48318 0,0.41416 -0.586724,0.7823 -0.586724,0.36814 -1.115926,0.36814 -0.908847,0 -1.403536,-1.27699 -0.483185,-1.28849 -0.483185,-3.45132 z m 9.617675,4.84335 q -1.898225,0 -2.887603,-1.03539 -0.989378,-1.0354 -0.989378,-2.8761 0,-2.89911 2.358401,-6.26989 2.358401,-3.37079 4.624765,-3.37079 1.09292,0 1.86371,1.09291 0.7708,1.08142 0.7708,2.25487 0,1.10442 -0.41416,1.49557 -0.40265,0.37964 -0.7823,0.37964 -1.11593,0 -1.3,-1.54159 -0.13805,-1.12743 -0.56371,-1.12743 -0.897344,0 -2.369906,2.55398 -1.472563,2.55397 -1.472563,4.47521 0,1.55309 1.679642,1.55309 1.852207,0 3.738927,-1.3115 0.88584,-0.63274 1.40354,-0.63274 0.63274,0 0.63274,0.63274 0,0.88584 -2.03628,2.31238 -2.024772,1.41504 -4.256625,1.41504 z m 11.895545,0 q -1.89823,0 -2.88761,-1.03539 -0.98937,-1.0354 -0.98937,-2.8761 0,-2.89911 2.3584,-6.26989 2.3584,-3.37079 4.62477,-3.37079 1.09291,0 1.86371,1.09291 0.77079,1.08142 0.77079,2.25487 0,1.10442 -0.41416,1.49557 -0.40265,0.37964 -0.78229,0.37964 -1.11593,0 -1.3,-1.54159 -0.13805,-1.12743 -0.56372,-1.12743 -0.89734,0 -2.3699,2.55398 -1.47256,2.55397 -1.47256,4.47521 0,1.55309 1.67964,1.55309 1.85221,0 3.73893,-1.3115 0.88583,-0.63274 1.40353,-0.63274 0.63274,0 0.63274,0.63274 0,0.88584 -2.03627,2.31238 -2.02478,1.41504 -4.25663,1.41504 z m 18.79818,-4.59025 q 0,1.19646 -2.01327,2.8646 -2.01327,1.65663 -4.54423,1.65663 -1.94424,0 -3.06017,-1.21947 -1.11593,-1.23097 -1.11593,-3.4168 0,-3.22123 2.27787,-6.03981 2.27787,-2.81858 4.86636,-2.81858 1.28849,0 2.07079,0.81682 0.7823,0.81681 0.7823,1.94424 0,2.00176 -1.92123,3.81946 -1.92124,1.80619 -4.92388,2.49645 -0.34514,0.0805 -0.34514,0.41416 0,0.55221 0.48319,1.0584 0.49469,0.49469 1.3115,0.49469 2.31238,0 4.59025,-2.38141 0.43717,-0.46017 0.85133,-0.46017 0.69026,0 0.69026,0.77079 z m -7.71945,-2.03628 q 1.8177,-0.36814 3.19823,-1.55309 1.39203,-1.18495 1.39203,-2.15132 0,-0.37965 -0.21859,-0.63274 -0.20708,-0.2646 -0.5407,-0.2646 -1.00088,0 -2.22035,1.47256 -1.21947,1.47256 -1.61062,3.12919 z m 19.92561,2.03628 q 0,1.19646 -2.01326,2.8646 -2.01327,1.65663 -4.54424,1.65663 -1.94424,0 -3.06017,-1.21947 -1.11593,-1.23097 -1.11593,-3.4168 0,-3.22123 2.27787,-6.03981 2.27787,-2.81858 4.86636,-2.81858 1.2885,0 2.07079,0.81682 0.7823,0.81681 0.7823,1.94424 0,2.00176 -1.92123,3.81946 -1.92123,1.80619 -4.92388,2.49645 -0.34513,0.0805 -0.34513,0.41416 0,0.55221 0.48318,1.0584 0.49469,0.49469 1.3115,0.49469 2.31239,0 4.59026,-2.38141 0.43716,-0.46017 0.85132,-0.46017 0.69026,0 0.69026,0.77079 z m -7.71944,-2.03628 q 1.81769,-0.36814 3.19822,-1.55309 1.39203,-1.18495 1.39203,-2.15132 0,-0.37965 -0.21858,-0.63274 -0.20708,-0.2646 -0.54071,-0.2646 -1.00088,0 -2.22035,1.47256 -1.21947,1.47256 -1.61061,3.12919 z m 17.76278,2.15132 q -2.97964,4.22212 -5.99379,4.22212 -1.21947,0 -1.96725,-0.95487 -0.74779,-0.96637 -0.74779,-2.45043 0,-3.00265 2.45044,-5.97078 2.46194,-2.96814 4.9814,-2.96814 1.44956,0 2.05929,0.75929 0.86283,-3.77344 1.02389,-4.7168 0.34513,-1.7486704 0.57522,-2.3238904 0.23009,-0.57522 0.70177,-0.88584 0.47168,-0.32212 0.81681,-0.32212 0.58672,0 0.89734,0.48319 0.31061,0.48318 0.31061,1.21946 0,0.32212 -0.50618,1.8522104 -0.82832,2.48495 -1.54159,6.00529 -0.70177,3.52035 -0.70177,5.60264 0,1.99026 0.87433,1.99026 0.44868,0 0.95487,-0.24159 0.50619,-0.23009 0.71326,-0.23009 0.56372,0 0.56372,0.65575 0,0.79381 -1.15043,1.58761 -1.13894,0.7823 -2.16283,0.7823 -1.10442,0 -1.70265,-1.18495 -0.59823,-1.18496 -0.44867,-2.91062 z m -1.27699,-5.90175 q -1.50707,0 -3.1522,2.30088 -1.63363,2.30088 -1.63363,4.21061 0,1.11592 0.82832,1.11592 1.40354,0 3.34778,-2.49645 1.94424,-2.49645 1.94424,-3.94601 0,-0.43716 -0.36814,-0.8053 -0.36814,-0.37965 -0.96637,-0.37965 z"
       id="text26137"
       aria-label="Succeed" />
  </g>
</svg>
