<?xml version="1.0" encoding="UTF-8" standalone="no"?>
<!-- Created with Inkscape (http://www.inkscape.org/) -->

<svg
   width="89mm"
   height="28mm"
   viewBox="0 0 89 28"
   version="1.1"
   id="svg1"
   inkscape:version="1.4 (86a8ad7, 2024-10-11)"
   sodipodi:docname="WRS_name.svg"
   xmlns:inkscape="http://www.inkscape.org/namespaces/inkscape"
   xmlns:sodipodi="http://sodipodi.sourceforge.net/DTD/sodipodi-0.dtd"
   xmlns="http://www.w3.org/2000/svg"
   xmlns:svg="http://www.w3.org/2000/svg">
  <sodipodi:namedview
     id="namedview1"
     pagecolor="#ffffff"
     bordercolor="#000000"
     borderopacity="0.25"
     inkscape:showpageshadow="2"
     inkscape:pageopacity="0.0"
     inkscape:pagecheckerboard="0"
     inkscape:deskcolor="#d1d1d1"
     inkscape:document-units="mm"
     inkscape:zoom="2.0334082"
     inkscape:cx="170.89535"
     inkscape:cy="119.25791"
     inkscape:window-width="1920"
     inkscape:window-height="1009"
     inkscape:window-x="-8"
     inkscape:window-y="342"
     inkscape:window-maximized="1"
     inkscape:current-layer="layer1" />
  <defs
     id="defs1" />
  <g
     inkscape:label="Layer 1"
     inkscape:groupmode="layer"
     id="layer1">
    <path
       d="m 17.502402,9.9080919 q -1.256239,2.3589401 -2.735811,2.3589401 -0.774682,0 -1.242283,-0.565306 -0.4676,-0.57229 -0.4676,-1.507489 0,-1.0887384 0.774681,-3.308098 0.781661,-2.2193596 0.781661,-3.1406009 0,-0.4117674 -0.23729,-0.6839543 -0.230311,-0.2721868 -0.579266,-0.2721868 -0.537392,0 -1.067804,0.6560382 -0.530412,0.6560381 -0.530412,1.3399923 0,0.523432 0.474579,1.0887382 0.195415,0.2372871 0.195415,0.328019 0,0.1046901 -0.300102,0.4675998 -0.300101,0.3629187 -0.516454,0.3629187 -0.230311,0 -0.523434,-0.3350026 Q 11.23516,6.362707 11.23516,5.6996853 q 0,-1.3469668 0.94218,-2.449663 0.949159,-1.1027054 2.093734,-1.1027054 0.858431,0 1.451655,0.7118705 0.593224,0.7118704 0.593224,1.7726924 0,1.1166633 -0.718848,3.1615425 -0.71187,2.0379047 -0.71187,2.7288337 0,0.328019 0.1675,0.523431 0.167498,0.188439 0.446662,0.188439 0.607183,0 1.207386,-0.991032 0.600205,-0.9910403 1.095721,-2.8405066 l 0.656037,-2.4566466 q 0.383851,-1.4516479 0.858431,-2.5334116 0.04886,-0.118648 0.649057,-0.1814639 0.607183,-0.069745 0.879369,-0.069745 0.272185,0 0.272185,0.1116736 l -1.277178,4.8714192 q -0.55135,2.1425857 -0.55135,3.1336169 0,0.432709 0.181457,0.690929 0.181457,0.251254 0.488538,0.251254 0.453642,0 1.235303,-0.739786 0.78864,-0.7467701 1.326032,-1.8983241 0.537391,-1.1585285 0.537391,-2.3659148 0,-1.2911346 -0.628121,-2.5683111 -0.174477,-0.3698933 -0.174477,-0.4606252 0,-0.300103 0.572287,-0.6630127 0.579267,-0.3629188 0.830515,-0.3629188 0.23729,0 0.474579,0.6351056 0.244269,0.628113 0.244269,1.3190508 0,1.8355082 -0.858431,3.7617393 -0.858431,1.9192567 -2.135608,3.154559 -1.277178,1.235302 -2.310086,1.235302 -0.732807,0 -1.165511,-0.586248 -0.425727,-0.593222 -0.40479,-1.7726918 z M 29.86241,10.56413 q -1.751757,1.71686 -2.700916,1.71686 -0.425726,0 -0.718849,-0.355935 -0.293123,-0.36291 -0.293123,-0.893325 0,-0.984058 1.053846,-2.6381018 -0.516454,0.2652032 -1.130616,0.3698932 -0.453642,0.837493 -1.423739,1.8006086 H 24.488494 V 9.936008 Q 25.032865,9.3707018 25.472548,8.7216472 24.872345,8.456435 24.872345,7.933003 q 0,-0.5373901 0.362913,-1.1445705 0.369894,-0.6141639 1.011972,-0.6141639 0.544371,0 0.544371,0.5583317 0,0.4396836 -0.31406,1.2562349 1.158533,-0.1256226 2.023943,-1.7726924 l 0.635099,-0.027952 -0.649058,1.7866505 q -0.404789,1.1306214 -0.523433,1.5423888 -0.118646,0.4047839 -0.118646,0.7188449 0,0.293119 0.132604,0.4676 0.139582,0.17448 0.369893,0.17448 0.251248,0 0.481559,-0.167497 0.230311,-0.17448 1.032908,-0.9491662 z m 3.294142,-7.1047368 q 0,1.674986 -1.235303,1.674986 -0.600204,0 -1.02593,-0.3629097 0.404788,-0.6141639 0.62812,-1.3818666 0.55135,0.3419771 0.886347,0.3419771 0.376873,0 0.746766,-0.2721868 z m 0.139582,7.1047368 q -1.633112,1.71686 -2.442689,1.71686 -0.446664,0 -0.753745,-0.453642 -0.307081,-0.460625 -0.307081,-1.151554 0,-1.486547 1.004993,-4.1176741 l 1.772694,-0.3698932 h 0.08375 l -0.69791,2.1844599 Q 31.52344,9.726637 31.52344,10.305901 q 0,0.230313 0.09771,0.376877 0.104687,0.139581 0.258227,0.139581 0.272185,0 0.544371,-0.195413 0.279164,-0.202397 0.872389,-0.8654183 z m 4.019968,0 q -0.879369,0.872392 -1.521447,1.291134 -0.642078,0.411768 -1.221344,0.411768 -0.600204,0 -0.977076,-0.5025 -0.369893,-0.509474 -0.369893,-1.333008 0,-0.7258286 0.348955,-1.9192568 l 0.307082,-1.0538385 -0.537392,0.027952 0.223331,-1.0957218 0.663016,-0.027952 0.656037,-2.1774853 1.870402,-0.3838513 -0.71187,2.4287305 0.970097,-0.055814 -0.230311,1.0747801 -1.081762,0.083767 -0.467601,1.5633214 q -0.23729,0.8165604 -0.23729,1.2981177 0,0.32802 0.16052,0.537391 0.167499,0.202396 0.425726,0.202396 0.355935,0 0.70489,-0.223329 0.348956,-0.230313 1.02593,-0.9491666 z m 5.213398,0 q -0.886351,0.872392 -1.591238,1.291134 -0.704887,0.411768 -1.556347,0.411768 -0.949157,0 -1.5354,-0.607181 -0.579267,-0.60718 -0.579267,-1.59822 0,-1.4795735 1.025929,-2.6730016 1.025931,-1.2004027 2.275192,-1.2004027 0.649054,0 1.039889,0.3349936 0.390826,0.3350026 0.390826,0.8793671 0,1.4446824 -3.07081,2.3449822 0.27917,1.3609334 1.45864,1.3609334 0.460616,0 0.879367,-0.24427 0.418742,-0.251245 1.263219,-1.1027053 z M 38.872441,9.2729954 q 1.78666,-0.5024994 1.78666,-1.8564409 0,-0.6699961 -0.488542,-0.6699961 -0.460625,0 -0.879367,0.7048868 -0.418751,0.6979123 -0.418751,1.8215502 z"
       id="text26135"
       style="font-weight:bold;font-size:15.8005px;font-family:'Script MT Bold';-inkscape-font-specification:'Script MT Bold,  Bold';display:inline;fill:#3498db;fill-opacity:1;stroke-width:0.0337636"
       aria-label="Write" />
    <path
       style="font-weight:300;font-size:26.4537px;font-family:'Segoe UI';-inkscape-font-specification:'Segoe UI Light';display:inline;fill:#e74c3c;stroke-width:15.6171"
       d="m 1.3526775,25.994774 v -1.234447 q 1.9246875,1.070576 3.8993675,1.070576 2.0996595,0 3.1869837,-0.753771 1.0873235,-0.7647 1.0873235,-2.130226 0,-1.201675 -0.7373803,-1.911748 -0.7248832,-0.721 -3.1619877,-1.955446 Q 2.9024259,17.692331 2.1775437,16.76377 1.4526613,15.824283 1.4526613,14.600772 q 0,-1.660487 1.4747606,-2.818462 1.4747615,-1.157975 3.936862,-1.157975 1.59974,0 3.1994811,0.469748 v 1.136121 q -1.5747451,-0.622682 -3.3619546,-0.622682 -1.8247045,0 -2.8995298,0.808398 -1.0623282,0.80839 -1.0623282,2.053755 0,1.201673 0.7248822,1.911746 0.7373812,0.710081 3.1619876,1.933592 2.5120928,1.245365 3.336959,2.217625 0.8373638,0.961332 0.8373638,2.217624 0,1.802504 -1.4372668,2.938625 -1.424769,1.13613 -4.036845,1.13613 -0.9248498,0 -2.1371535,-0.251261 -1.1998056,-0.251259 -1.8372022,-0.578982 z m 21.4840165,0.557129 v -2.03191 h -0.05 q -1.337284,2.305024 -4.124331,2.305024 -4.536764,0 -4.536764,-4.992388 v -6.467167 h 1.162311 v 6.215907 q 0,2.272243 0.849862,3.299128 0.862359,1.026878 2.699563,1.026878 1.78721,0 2.887031,-1.147048 1.112319,-1.147048 1.112319,-3.058796 V 15.365462 H 23.9865 v 11.186441 z m 13.535303,-0.491585 q -1.424768,0.764699 -3.399447,0.764699 -2.612077,0 -4.211818,-1.56217 -1.599741,-1.573097 -1.599741,-4.107527 0,-2.665518 1.799708,-4.358777 1.799709,-1.704187 4.624251,-1.704187 1.462262,0 2.837039,0.524366 v 1.136121 q -1.374777,-0.742845 -3.012011,-0.742845 -2.249636,0 -3.649409,1.420154 -1.399772,1.409227 -1.399772,3.659624 0,2.173925 1.274793,3.495762 1.287291,1.321837 3.386951,1.321837 1.924688,0 3.349456,-0.895788 z m 11.36066,0 q -1.424771,0.764699 -3.39945,0.764699 -2.612076,0 -4.211817,-1.56217 -1.599739,-1.573097 -1.599739,-4.107527 0,-2.665518 1.799706,-4.358777 1.799709,-1.704187 4.624251,-1.704187 1.462263,0 2.83704,0.524366 v 1.136121 q -1.374777,-0.742845 -3.012012,-0.742845 -2.249635,0 -3.649408,1.420154 -1.399773,1.409227 -1.399773,3.659624 0,2.173925 1.274793,3.495762 1.287292,1.321837 3.386952,1.321837 1.924686,0 3.349457,-0.895788 z m 3.349457,-5.057932 q 0,2.305015 1.212304,3.605006 1.2248,1.299983 3.349456,1.299983 2.149651,0 4.199319,-1.387382 v 1.070577 q -1.987177,1.234447 -4.436781,1.234447 -2.474598,0 -3.999351,-1.551252 -1.524753,-1.551242 -1.524753,-4.380623 0,-2.447031 1.587243,-4.118445 1.59974,-1.682341 4.149328,-1.682341 2.387112,0 3.661905,1.463853 1.274794,1.463853 1.274794,3.998283 v 0.447894 z m 8.273657,-0.917642 q -0.07498,-1.933593 -1.062326,-3.004169 -0.98734,-1.070577 -2.724559,-1.070577 -1.799708,0 -2.987015,1.05965 -1.17481,1.048731 -1.449766,3.015096 z m 4.649244,0.917642 q 0,2.305015 1.212303,3.605006 1.224801,1.299983 3.349457,1.299983 2.149651,0 4.19932,-1.387382 v 1.070577 q -1.987179,1.234447 -4.436781,1.234447 -2.4746,0 -3.999352,-1.551252 -1.524753,-1.551242 -1.524753,-4.380623 0,-2.447031 1.587242,-4.118445 1.599742,-1.682341 4.149328,-1.682341 2.387112,0 3.661907,1.463853 1.274793,1.463853 1.274793,3.998283 v 0.447894 z m 8.273658,-0.917642 q -0.07498,-1.933593 -1.062327,-3.004169 -0.987341,-1.070577 -2.724559,-1.070577 -1.799708,0 -2.987016,1.05965 -1.174809,1.048731 -1.449765,3.015096 z m 13.460314,6.467159 v -2.03191 h -0.05003 q -0.624902,1.059659 -1.849702,1.682341 -1.224802,0.622683 -2.762053,0.622683 -2.362117,0 -3.861873,-1.507552 -1.487259,-1.507544 -1.487259,-4.162145 0,-2.709209 1.624736,-4.380623 1.637235,-1.682341 4.236813,-1.682341 2.874538,0 4.099338,2.064691 h 0.05003 V 9.9907345 h 1.149817 V 26.551903 Z m 0,-6.805809 q 0,-1.56217 -1.137316,-2.643674 -1.124814,-1.092422 -3.037004,-1.092422 -2.012173,0 -3.324461,1.354609 -1.312287,1.343683 -1.312287,3.703323 0,2.315943 1.17481,3.583153 1.187307,1.256292 3.049505,1.256292 2.187146,0 3.386947,-1.179821 1.199806,-1.190747 1.199806,-2.894925 z"
       id="text1"
       aria-label="Succeed" />
    <path
       style="font-size:42.6667px;font-family:'Comic Sans MS';-inkscape-font-specification:'Comic Sans MS';white-space:pre;display:inline;fill:#58ab6e;fill-opacity:0.764706;stroke-width:5.96258"
       d="m 57.554811,12.614442 q -0.246583,0 -0.460719,-0.207646 -2.147855,-2.1219 -4.775894,-2.8551562 l 0.05192,1.2718422 0.03244,1.278331 q 0,0.285516 -0.188181,0.473694 -0.181691,0.19467 -0.460716,0.19467 -0.279028,0 -0.467207,-0.19467 -0.181694,-0.188178 -0.181694,-0.473694 0,-0.512629 -0.05191,-1.524913 -0.04543,-1.0187692 -0.04543,-1.5314009 0,-0.5969875 0.129781,-1.7779835 0.12978,-1.1809927 0.12978,-1.7714923 0,-0.3309381 -0.0649,-0.9798385 -0.0584,-0.6488973 -0.0584,-0.9798354 0,-0.369872 0.207649,-0.6489003 0.246582,-0.3439141 0.681343,-0.3114713 l 1.563847,0.1232928 q 0.888992,0.1103106 1.498955,0.4347609 2.628041,1.3951323 2.628041,3.4067191 0,0.9863264 -0.89548,1.7455374 -0.72028,0.6099665 -1.79745,0.9279256 2.018074,1.0836614 3.01738,2.2841234 0.168711,0.207649 0.168711,0.441252 0,0.272538 -0.201157,0.473695 -0.194669,0.201158 -0.460718,0.201158 z m -4.133485,-8.5784399 -0.960371,-0.077867 0.0649,0.7851658 q 0.04542,0.4801858 0.04542,0.7851691 0,0.5191196 -0.08435,1.2913065 l -0.136269,1.2913097 q 0.09084,0 0.279025,0.00648 0.19467,0.00648 0.292004,0.00648 1.654691,0 2.478794,-0.4412519 0.363383,-0.2011575 0.674855,-0.5256077 0.343914,-0.3633841 0.343914,-0.6164544 0,-0.9019707 -1.025257,-1.6806487 -0.940905,-0.7137891 -1.972653,-0.8240998 z m 9.110538,8.8055549 q -1.466512,0 -2.37497,-0.733256 -0.992815,-0.811124 -0.992815,-2.271145 0,-1.6871366 0.817612,-2.8291986 0.888992,-1.2458848 2.374971,-1.2458848 1.07717,0 1.758517,0.3633841 0.837078,0.4477399 0.837078,1.3756655 0,0.6488972 -0.733256,1.1809928 -0.324449,0.2336064 -1.375665,0.7267681 l -2.478794,1.1745079 q 0.363384,0.538583 0.901971,0.811121 0.545075,0.27254 1.265351,0.27254 0.44774,0 1.051216,-0.168715 0.765702,-0.214136 0.986326,-0.558053 0.220625,-0.350405 0.473695,-0.350405 0.227115,0 0.402318,0.175203 0.181694,0.168714 0.181694,0.395826 0,0.720281 -1.161529,1.239397 -0.992817,0.441252 -1.93372,0.441252 z M 62.356662,6.9300895 q -0.791656,0 -1.317265,0.6164545 -0.525607,0.6099633 -0.785169,1.8428722 l 1.99212,-0.9473925 Q 63.420857,7.8709942 63.920509,7.4492093 63.362455,6.9300895 62.356662,6.9300895 Z m 9.49339,6.0412475 q -0.12329,0 -0.44774,-0.285516 -0.292004,-0.266049 -0.434764,-0.473694 -0.622943,0.337425 -1.096638,0.506141 -0.473697,0.175202 -0.791656,0.175202 -1.518422,0 -2.212744,-0.856546 -0.655389,-0.804636 -0.655389,-2.4658173 0,-1.5703349 1.07717,-2.6864389 1.083662,-1.1161072 2.582619,-1.1161072 0.564542,0 1.265353,0.2920042 0.882503,0.3633841 0.882503,0.8760127 0,0.1752025 -0.129781,0.3114712 -0.06489,0.2465824 -0.103822,0.8111239 -0.03245,0.5645415 -0.03894,1.4470453 -0.0065,0.8046361 0.110312,1.2718431 0.0649,0.285513 0.408806,1.142061 0.04543,0.116802 0.149247,0.343914 l 0.03893,0.110314 q 0,0.259559 -0.181691,0.428273 -0.181693,0.168714 -0.421784,0.168714 z M 70.500341,8.4614906 q 0,-0.2790252 0.03245,-0.6034755 0.03893,-0.3309381 0.110313,-0.7008101 -0.240094,-0.1232928 -0.415297,-0.1816936 -0.168714,-0.0584 -0.272537,-0.0584 -1.005794,0 -1.73905,0.8241029 -0.726764,0.8176119 -0.726764,1.8882941 0,1.0641946 0.37636,1.5962926 0.376363,0.532095 1.129086,0.532095 0.622942,0 1.057703,-0.227115 0.233601,-0.12329 0.655386,-0.493162 -0.20765,-1.7195827 -0.20765,-2.5761284 z m 9.058628,-1.6482027 q -0.07787,0.9538805 -0.07787,1.9077609 0,2.1608342 0.201157,3.2639622 0.01299,0.09085 0.01299,0.149248 0,0.259558 -0.18169,0.428273 -0.181693,0.168711 -0.421785,0.168711 -0.402318,0 -0.590499,-0.584008 -0.467207,0.343917 -0.973348,0.519119 -0.499652,0.175203 -1.044727,0.175203 -1.343219,0 -2.225724,-0.89548 -0.908458,-0.914946 -0.908458,-2.3490123 0,-1.7325615 0.91495,-2.7772889 0.921434,-1.0447272 2.387946,-1.0447272 0.752724,0 1.161529,0.2336064 l 0.609964,0.4477399 q 0.09085,-2.7318639 0.214137,-3.6792565 0.08435,-0.5775206 0.590499,-0.5775206 0.590496,0 0.590496,0.6294304 0,0.9019707 -0.259558,3.9842397 z m -2.881111,0.1687145 q -1.090149,0 -1.635224,0.6488973 -0.545074,0.6424093 -0.545074,1.940207 0,0.8370823 0.590496,1.4405573 0.596988,0.603475 1.395133,0.603475 0.545075,0 0.921438,-0.20116 0.220624,-0.116802 0.720276,-0.538584 0.09734,-0.08436 0.188182,-0.20116 l -0.01947,-1.1225952 0.0065,-0.7527201 0.01299,-0.765702 Q 78.066502,7.5076101 77.657696,7.2480487 77.248891,6.9820024 76.677858,6.9820024 Z"
       id="text2"
       aria-label="Read" />
  </g>
</svg>
