<?xml version="1.0" encoding="UTF-8" standalone="no"?>
<!-- Created with Inkscape (http://www.inkscape.org/) -->

<svg
   width="110mm"
   height="36mm"
   viewBox="0 0 110 36"
   version="1.1"
   id="svg1"
   inkscape:version="1.4 (86a8ad7, 2024-10-11)"
   sodipodi:docname="WRS_write.svg"
   xmlns:inkscape="http://www.inkscape.org/namespaces/inkscape"
   xmlns:sodipodi="http://sodipodi.sourceforge.net/DTD/sodipodi-0.dtd"
   xmlns="http://www.w3.org/2000/svg"
   xmlns:svg="http://www.w3.org/2000/svg">
  <sodipodi:namedview
     id="namedview1"
     pagecolor="#ffffff"
     bordercolor="#000000"
     borderopacity="0.25"
     inkscape:showpageshadow="2"
     inkscape:pageopacity="0.0"
     inkscape:pagecheckerboard="0"
     inkscape:deskcolor="#d1d1d1"
     inkscape:document-units="mm"
     inkscape:zoom="0.71891835"
     inkscape:cx="396.42889"
     inkscape:cy="561.25984"
     inkscape:window-width="1920"
     inkscape:window-height="1009"
     inkscape:window-x="-8"
     inkscape:window-y="-8"
     inkscape:window-maximized="1"
     inkscape:current-layer="layer1" />
  <defs
     id="defs1" />
  <g
     inkscape:label="Layer 1"
     inkscape:groupmode="layer"
     id="layer1">
    <path
       style="font-weight:bold;font-size:32.6781px;font-family:'Segoe Script';-inkscape-font-specification:'Segoe Script Bold';fill:#8b4513;stroke-width:2.72317"
       d="m 33.449522,5.8839602 q 0,0.398902 -0.06382,0.989278 -0.04787,0.57442 -0.159561,1.292445 -0.09574,0.702068 -0.239342,1.515829 -0.143605,0.7978058 -0.319122,1.6594348 -0.36699,1.739216 -0.749937,3.271002 -0.382946,1.515829 -0.797805,2.632757 -0.414859,1.100971 -0.749937,2.090249 -0.335078,0.973323 -0.686112,1.787084 -0.07978,0.207429 -0.335079,0.797805 -0.255297,0.57442 -0.590376,1.340313 -0.335078,0.765893 -0.718024,1.643478 -0.382947,0.86163 -0.718025,1.627523 -0.335078,0.765893 -0.590376,1.340313 -0.239341,0.558463 -0.319122,0.749937 -0.06382,0.159561 -0.271254,0.335078 -0.207429,0.175517 -0.478683,0.319122 -0.271253,0.143605 -0.574419,0.239341 -0.28721,0.07978 -0.510596,0.07978 -0.478683,0 -0.925454,-0.207429 -0.430819,-0.223385 -0.829721,-0.606331 -0.382947,-0.382947 -0.718025,-0.909498 -0.335078,-0.526552 -0.590376,-1.164796 l -3.717772,-9.126891 q -0.335078,0.765893 -0.797805,1.755171 -0.446771,0.973323 -0.957366,2.010469 -0.494639,1.021191 -1.005235,2.026426 -0.494639,1.005234 -0.925454,1.818995 -1.212664,2.313635 -2.265767,4.020938 v -0.01596 Q 10.712074,31.0946 9.9780926,31.0946 q -0.94141,0 -1.563698,-0.606332 Q 7.8080626,29.897896 7.3772476,28.892661 6.9464336,27.887427 6.6113546,26.594982 6.2922326,25.302538 5.9092866,23.914357 4.6806665,19.47856 3.3563098,13.032294 3.3243976,12.888689 3.1807927,12.378094 3.0371878,11.867499 2.8297584,11.069693 v 0.01596 Q 2.5904169,10.239976 2.4787241,9.6496002 2.3670314,9.0592242 2.3670314,8.6922342 q 0,-0.271254 0.1276488,-0.558464 0.143605,-0.303166 0.3669904,-0.542507 0.2393416,-0.239342 0.5425076,-0.398903 0.319122,-0.159561 0.6701563,-0.159561 0.3669904,0 0.7339808,0.271254 0.3669903,0.271254 0.7180243,0.829717 0.622288,0.989279 0.989279,2.2019428 0.127649,0.398902 0.271254,1.085015 0.159561,0.686112 0.36699,1.675391 0.223385,0.989278 0.510595,2.313635 0.303166,1.3084 0.702069,2.983791 0.36699,1.579654 0.622288,2.776362 0.255298,1.196708 0.446771,2.09025 0.191473,0.893542 0.335078,1.51583 0.143605,0.606332 0.2872104,1.02119 0.797805,-1.356269 1.467961,-2.568932 0.670157,-1.212664 1.196708,-2.233855 0.526552,-1.021191 0.925454,-1.834952 0.398903,-0.813761 0.6542,-1.356269 0.414859,-0.861629 0.86163,-1.946644 0.446771,-1.100972 1.14884,-2.600845 0.09574,-0.191474 0.271253,-0.382947 0.175517,-0.191473 0.414859,-0.335078 0.239342,-0.159561 0.510595,-0.255298 0.28721,-0.09574 0.558464,-0.09574 0.462727,0 0.957366,0.526551 0.494639,0.510595 0.957366,1.51583 0.04787,0.111693 0.20743,0.542508 0.175517,0.414858 0.398902,1.005234 0.223386,0.590376 0.478683,1.276488 0.271254,0.686113 0.510596,1.324357 0.255297,0.638244 0.446771,1.164796 0.207429,0.510595 0.319122,0.765893 0.893542,2.090249 1.388181,3.334825 0.494639,1.22862 0.781849,1.611567 0.606332,-1.100971 1.164795,-2.37746 0.558464,-1.292444 1.053103,-2.648713 0.49464,-1.372225 0.925454,-2.760406 0.430815,-1.388181 0.781849,-2.680625 0.366991,-1.324357 0.606332,-2.632757 0.255298,-1.308401 0.414859,-2.5370208 0.175517,-1.244576 0.271254,-2.361503 0.09574,-1.116928 0.143605,-2.074294 0.01596,-0.159561 0.159561,-0.398902 0.143605,-0.239342 0.382946,-0.462727 0.239342,-0.223386 0.526552,-0.382947 0.303166,-0.159561 0.606332,-0.159561 1.148839,0 1.547742,0.829717 0.351034,0.638245 0.351034,1.276489 z M 51.448008,16.287339 q -0.01596,0.542508 -0.207429,0.909498 -0.175517,0.366991 -0.462727,0.590376 -0.271254,0.20743 -0.622288,0.303166 -0.351035,0.07978 -0.702069,0.07978 -0.28721,0 -0.57442,-0.07978 -0.287209,-0.07978 -0.590375,-0.07978 -0.510596,0 -1.260533,0.319122 -0.73398,0.303166 -1.515829,0.797805 -0.78185,0.494639 -1.531786,1.100971 -0.749937,0.606332 -1.292445,1.196708 -0.303166,0.335078 -0.702068,0.813761 -0.398903,0.462727 -0.765893,0.973322 -0.351035,0.510596 -0.606332,1.021191 -0.239342,0.510595 -0.239342,0.925454 0,0.510595 0.09574,1.196708 0.111692,0.686112 0.111692,1.452005 0,0.271254 -0.01596,0.510596 0,0.223385 -0.06382,0.446771 -0.03191,0.191473 -0.207429,0.430814 -0.159561,0.223386 -0.414859,0.430815 -0.255298,0.223386 -0.558464,0.366991 -0.303166,0.143605 -0.622288,0.143605 -0.526551,0 -0.893542,-0.382947 -0.36699,-0.382946 -0.590375,-1.069059 -0.20743,-0.686112 -0.303166,-1.611566 -0.09574,-0.925454 -0.09574,-1.994513 0,-0.06383 0,-0.430815 0.01596,-0.366991 0.01596,-0.797805 0.01596,-0.430815 0.03191,-0.829718 0.01596,-0.398902 0.01596,-0.510595 0,-0.06383 0.01596,-0.414859 0.03191,-0.351034 0.06382,-0.845673 0.04787,-0.510596 0.07978,-1.085015 0.04787,-0.590376 0.07978,-1.116928 0.04787,-0.526551 0.07978,-0.925454 0.03191,-0.414858 0.04787,-0.542507 0.01596,-0.04787 0.03191,-0.319122 0.03191,-0.28721 0.06382,-0.654201 0.04787,-0.36699 0.111693,-0.749936 0.06383,-0.382947 0.127649,-0.638245 0.06382,-0.223385 0.255298,-0.526551 0.207429,-0.303166 0.510595,-0.57442 0.319122,-0.28721 0.702069,-0.478683 0.382946,-0.207429 0.813761,-0.207429 0.510595,0 0.813761,0.159561 0.319122,0.159561 0.494639,0.398902 0.191474,0.223386 0.255298,0.49464 0.06382,0.255297 0.06382,0.462727 0,0.127649 -0.09574,0.574419 -0.09574,0.430815 -0.255298,0.957367 -0.191473,0.702068 -0.335078,1.643478 -0.143605,0.925454 -0.223386,1.787084 0.877586,-0.989278 1.882821,-1.994513 1.005234,-1.021191 2.090249,-1.834952 1.085015,-0.829717 2.217899,-1.340313 1.132883,-0.526551 2.265766,-0.526551 0.558464,0 1.005235,0.191473 0.446771,0.175517 0.749937,0.478683 0.319122,0.28721 0.478683,0.654201 0.175517,0.351034 0.175517,0.718024 v 0.03191 z M 61.02167,6.2509502 q 0,0.526552 -0.159561,1.005235 -0.159561,0.462727 -0.462727,0.877585 -0.606332,0.845674 -1.866864,0.845674 -0.446771,0 -0.909498,-0.07978 -0.462727,-0.07978 -0.829717,-0.223385 -0.366991,-0.143605 -0.606332,-0.36699 -0.239342,-0.223386 -0.239342,-0.510596 0,-0.494639 0.255298,-1.037147 0.255298,-0.558463 0.6542,-1.02119 0.414859,-0.478683 0.893542,-0.781849 0.494639,-0.319122 0.94141,-0.319122 0.558464,0 0.989279,0.07978 0.430814,0.06383 0.718024,0.239342 0.303166,0.175517 0.462727,0.494639 0.159561,0.319122 0.159561,0.797804 z m 9.924697,13.1318738 q 0,0.36699 -0.28721,0.94141 -0.271254,0.558463 -0.765893,1.260532 -0.478683,0.686112 -1.148839,1.483918 -0.670157,0.781849 -1.452006,1.611566 -0.845673,0.909498 -1.834952,1.787084 -0.989278,0.877585 -2.106206,1.691347 -1.100971,0.797805 -2.17003,1.244576 -1.069059,0.430815 -2.026425,0.430815 -1.116927,0 -1.946644,-0.366991 -0.813762,-0.382946 -1.404138,-1.02119 -0.574419,-0.654201 -0.94141,-1.483918 -0.36699,-0.845674 -0.590376,-1.771128 -0.207429,-0.94141 -0.287209,-1.898776 -0.07978,-0.957366 -0.07978,-1.818996 0,-0.335078 0.04787,-1.005234 0.04787,-0.670157 0.127649,-1.404138 0.09574,-0.749936 0.191473,-1.436049 0.111693,-0.702068 0.223386,-1.100971 0.239341,-0.781849 1.100971,-1.483918 0.829717,-0.670156 1.850908,-0.670156 1.037147,0 1.037147,1.244576 0,0.590376 -0.111693,1.260532 -0.09574,0.654201 -0.223385,1.292445 -0.20743,1.164795 -0.28721,2.106205 -0.07978,0.925454 -0.07978,1.643479 0,0.813761 0.09574,1.579654 0.09574,0.765893 0.271254,1.372225 0.191473,0.590376 0.462727,0.957366 0.28721,0.366991 0.670156,0.366991 0.478683,0 0.989278,-0.07978 0.510596,-0.09574 1.22862,-0.478683 1.372225,-0.749937 2.919967,-2.026425 0.542508,-0.446771 1.22862,-1.053103 0.702069,-0.622288 1.388181,-1.260532 0.686113,-0.6542 1.292445,-1.276488 0.606332,-0.622288 0.957366,-1.069059 0.04787,-0.07978 0.127649,-0.191473 0.09574,-0.127649 0.207429,-0.255298 0.111693,-0.127649 0.239342,-0.20743 0.143605,-0.09574 0.271254,-0.09574 0.255297,0 0.36699,0.07978 0.127649,0.06383 0.271254,0.430815 0.175517,0.398903 0.175517,0.670157 z m -2.122163,5.425075 q 0,-0.733981 0.07978,-1.467962 0.09574,-0.749937 0.223385,-1.467961 0.143605,-0.733981 0.303166,-1.420093 0.159561,-0.686113 0.28721,-1.308401 0.175517,-0.829717 0.319122,-1.483918 0.143605,-0.6542 0.175517,-1.212664 -0.239341,0.04787 -0.542507,0.09574 -0.28721,0.03191 -0.590376,0.07978 -0.303166,0.03191 -0.590376,0.04787 -0.28721,0.01596 -0.478683,0.01596 -0.494639,0 -0.86163,-0.06382 -0.351034,-0.07978 -0.590375,-0.271254 -0.239342,-0.20743 -0.351035,-0.558464 -0.111692,-0.36699 -0.111692,-0.925454 0,-0.351034 0.159561,-0.590376 0.175517,-0.239341 0.44677,-0.382946 0.28721,-0.143605 0.622288,-0.191473 0.351035,-0.06383 0.686113,-0.06383 0.127649,0 0.494639,-0.03191 0.366991,-0.04787 0.781849,-0.09574 0.414859,-0.04787 0.813762,-0.09574 0.398902,-0.04787 0.590375,-0.06382 0.127649,0 0.239342,-0.191473 0.127649,-0.191473 0.223385,-0.446771 0.111693,-0.271254 0.191474,-0.542507 0.07978,-0.28721 0.111692,-0.478683 0.07978,-0.430815 0.223386,-1.053103 0.159561,-0.622288 0.335078,-1.2764888 0.191473,-0.6542 0.382947,-1.244576 0.207429,-0.606332 0.398902,-0.957366 0.255298,-0.494639 0.558464,-0.749937 0.303166,-0.255297 0.909498,-0.255297 0.845673,0 1.22862,0.398902 0.398902,0.398903 0.398902,1.22862 0,0.382947 -0.175517,0.989279 -0.159561,0.606331 -0.36699,1.3083998 -0.20743,0.686113 -0.398903,1.404137 -0.175517,0.702069 -0.191473,1.260532 0.319122,0 0.925454,-0.06382 0.606332,-0.06382 1.276488,-0.143605 0.670157,-0.09574 1.276488,-0.191473 0.622289,-0.09574 0.941411,-0.159561 0.670156,-0.143605 1.02119,-0.20743 0.366991,-0.07978 0.654201,-0.143605 0.303165,-0.06382 0.638244,-0.143604 0.351034,-0.09574 0.973322,-0.271254 0.239342,0.191473 0.382946,0.303166 0.143605,0.111692 0.20743,0.191473 0.07978,0.06382 0.09574,0.127649 0.03191,0.06382 0.03191,0.143605 0,0.622288 -0.57442,1.148839 -0.57442,0.510596 -1.452006,0.909498 -0.877585,0.398903 -1.914732,0.686113 -1.021191,0.271253 -1.930689,0.430814 -0.670156,0.111693 -1.212663,0.191474 -0.526552,0.07978 -0.925454,0.159561 -0.398903,0.06382 -0.654201,0.159561 -0.255297,0.07978 -0.382946,0.207429 -0.20743,0.718025 -0.478683,1.723259 -0.255298,0.989279 -0.49464,2.09025 -0.239341,1.100971 -0.398902,2.233854 -0.159561,1.116928 -0.159561,2.09025 0,1.100971 0.430815,1.643479 0.430814,0.542507 1.212664,0.542507 0.718024,0 1.404137,-0.09574 0.702068,-0.111693 1.452005,-0.382947 0.765893,-0.28721 1.611567,-0.765893 0.861629,-0.478683 1.914732,-1.22862 0.28721,-0.223385 0.590376,-0.494639 0.319122,-0.271254 0.638244,-0.510595 0.319122,-0.255298 0.6542,-0.414859 0.335078,-0.175517 0.686113,-0.175517 0.319122,0 0.494639,0.159561 0.191473,0.143605 0.191473,0.462727 0,0.239341 -0.159561,0.590376 -0.159561,0.335078 -0.446771,0.718024 -0.28721,0.382947 -0.686112,0.797806 -0.382947,0.398902 -0.86163,0.765892 -0.925454,0.733981 -1.946644,1.404138 -1.005235,0.6542 -2.058338,1.148839 -1.037147,0.494639 -2.090249,0.781849 -1.053103,0.28721 -2.09025,0.28721 -1.276488,0 -2.17003,-0.382946 -0.893542,-0.398903 -1.467962,-1.053103 -0.558463,-0.654201 -0.829717,-1.483918 -0.255298,-0.845673 -0.255298,-1.723259 z m 21.748169,-9.222628 q 0,-0.255298 -0.09574,-0.414859 -0.09574,-0.175517 -0.223386,-0.271254 -0.111692,-0.09574 -0.239341,-0.127648 -0.111693,-0.04787 -0.159561,-0.04787 -0.718025,0 -1.324357,0.558464 -0.606332,0.542507 -1.085015,1.404137 -0.478683,0.86163 -0.845673,1.898776 -0.351035,1.037147 -0.590376,2.010469 0.957366,-0.73398 1.787083,-1.356268 0.829718,-0.622288 1.43605,-1.212664 0.622288,-0.590376 0.973322,-1.180752 0.36699,-0.590376 0.36699,-1.260532 z m 7.738711,6.111188 q 0,0.590375 -0.46273,1.340312 -0.46272,0.749937 -1.24457,1.563699 -0.86163,0.877585 -1.89878,1.643478 -1.02119,0.749937 -2.138118,1.308401 -1.100971,0.542507 -2.24981,0.861629 -1.14884,0.303166 -2.233855,0.303166 -1.340313,0 -2.393415,-0.414858 -1.037147,-0.430815 -1.771128,-1.244577 -0.718025,-0.829717 -1.100971,-2.058337 -0.382947,-1.22862 -0.382947,-2.82423 0,-0.957367 0.175518,-1.946645 0.191473,-0.989278 0.542507,-1.962601 0.351034,-0.989278 0.877586,-1.898776 0.526551,-0.925454 1.196708,-1.739215 0.430814,-0.510596 0.973322,-1.021191 0.558464,-0.526551 1.22862,-0.94141 0.670156,-0.414859 1.467961,-0.670157 0.813762,-0.271253 1.755172,-0.271253 0.765893,0 1.356269,0.28721 0.606332,0.271253 1.02119,0.702068 0.414859,0.430815 0.638245,0.973323 0.223385,0.542507 0.223385,1.069058 0,1.244577 -0.542508,2.329592 -0.526551,1.069059 -1.483917,2.058337 -0.957366,0.973322 -2.313635,1.914732 -1.340313,0.941411 -2.967836,1.930689 -0.07978,0.03191 -0.255297,0.143605 -0.159561,0.111693 -0.159561,0.143605 0.01596,0.319122 0.159561,0.686112 0.143605,0.366991 0.446771,0.686113 0.303166,0.319122 0.765893,0.542507 0.478683,0.20743 1.132883,0.20743 1.005235,0 2.026425,-0.271254 1.021191,-0.28721 2.010469,-0.813761 0.989279,-0.526552 1.930689,-1.276489 0.941414,-0.749937 1.787084,-1.691347 0.31912,-0.36699 0.62229,-0.526551 0.31912,-0.159561 0.59037,-0.159561 0.27126,0 0.46273,0.223385 0.20743,0.223386 0.20743,0.813762 z m 8.903506,4.212411 q 0,0.351034 -0.15956,1.100971 -0.0479,0.223386 -0.33508,0.558464 -0.28721,0.335078 -0.84568,0.781849 -0.51059,0.414859 -0.94141,0.622288 -0.41485,0.207429 -0.70206,0.207429 -0.60634,0 -0.97333,-0.127649 -0.36699,-0.143604 -0.57442,-0.414858 -0.19147,-0.28721 -0.25529,-0.733981 -0.0638,-0.446771 -0.0638,-1.069059 0,-0.446771 0,-0.749937 0.016,-0.303166 0.0638,-0.526551 0.1436,-1.100971 2.79231,-1.100971 0.63825,0 1.00524,0.159561 0.38295,0.159561 0.68611,0.510595 0.30317,0.303166 0.30317,0.781849 z"
       id="text46"
       aria-label="Write." />
  </g>
</svg>
