<?xml version="1.0" encoding="UTF-8" standalone="no"?>
<!-- Created with Inkscape (http://www.inkscape.org/) -->

<svg
   width="95mm"
   height="33mm"
   viewBox="0 0 95 33"
   version="1.1"
   id="svg1"
   inkscape:version="1.4 (86a8ad7, 2024-10-11)"
   sodipodi:docname="WRS_read.svg"
   xmlns:inkscape="http://www.inkscape.org/namespaces/inkscape"
   xmlns:sodipodi="http://sodipodi.sourceforge.net/DTD/sodipodi-0.dtd"
   xmlns="http://www.w3.org/2000/svg"
   xmlns:svg="http://www.w3.org/2000/svg">
  <sodipodi:namedview
     id="namedview1"
     pagecolor="#ffffff"
     bordercolor="#000000"
     borderopacity="0.25"
     inkscape:showpageshadow="2"
     inkscape:pageopacity="0.0"
     inkscape:pagecheckerboard="0"
     inkscape:deskcolor="#d1d1d1"
     inkscape:document-units="mm"
     inkscape:zoom="0.71891835"
     inkscape:cx="396.42889"
     inkscape:cy="561.25984"
     inkscape:window-width="1920"
     inkscape:window-height="1009"
     inkscape:window-x="-8"
     inkscape:window-y="-8"
     inkscape:window-maximized="1"
     inkscape:current-layer="layer1" />
  <defs
     id="defs1" />
  <g
     inkscape:label="Layer 1"
     inkscape:groupmode="layer"
     id="layer1">
    <g
       id="text44"
       style="font-size:32.6781px;font-family:'Segoe UI';-inkscape-font-specification:'Segoe UI';fill:#228b22;stroke-width:2.72317"
       aria-label="Read."
       transform="translate(-11.040892,-3.3122677)">
      <path
         style="font-weight:bold;font-family:Serif;-inkscape-font-specification:'Serif Bold'"
         d="m 14.426108,32.561462 v -1.731939 h 1.37248 q 0.653562,0 1.143733,-0.326781 0.52285,-0.326781 0.52285,-1.633905 V 12.954602 q 0,-1.307124 -0.52285,-1.633905 -0.490171,-0.359459 -1.143733,-0.359459 h -1.37248 V 9.2292986 h 10.522348 q 4.64029,0 6.797045,1.5685484 2.156755,1.535871 2.156755,4.4769 0,1.73194 -0.653562,2.941029 -0.653562,1.20909 -1.666584,1.993364 -1.013021,0.784275 -2.124076,1.241768 l 3.888694,6.699011 q 0.84963,1.405158 1.601227,2.05872 0.751596,0.620884 1.666583,0.620884 h 0.130712 v 1.731939 h -1.078377 q -1.960686,0 -3.26781,-0.228746 Q 31.091939,32.103969 30.20963,31.483085 29.36,30.829523 28.673759,29.620433 l -3.888694,-7.189182 h -2.156754 v 6.437586 q 0,1.307124 0.490171,1.633905 0.52285,0.326781 1.176412,0.326781 h 1.405158 v 1.731939 z M 24.458284,20.535921 q 2.254789,0 3.10442,-1.209089 0.849631,-1.20909 0.849631,-3.594591 0,-2.483536 -0.914987,-3.529235 -0.914987,-1.045699 -3.10442,-1.045699 h -1.764617 v 9.378614 z m 22.155777,12.352322 q -4.150119,0 -6.306874,-2.352823 -2.156754,-2.385501 -2.156754,-6.633654 0,-4.607612 2.124076,-6.927758 2.124077,-2.352823 5.980093,-2.352823 3.561913,0 5.587955,1.993364 2.05872,1.993364 2.05872,5.882058 v 1.666584 H 43.18286 q 0.09804,3.26781 1.20909,4.771002 1.143733,1.503193 3.169776,1.503193 1.699261,0 2.875673,-0.751596 1.176411,-0.784275 1.731939,-1.89533 0.882309,0.490171 0.882309,1.601227 0,1.405158 -1.568549,2.450857 -1.568549,1.045699 -4.869037,1.045699 z m 2.287467,-10.816451 q 0,-2.516214 -0.588206,-3.921372 -0.588206,-1.405158 -1.993364,-1.405158 -1.37248,0 -2.189433,1.37248 -0.816952,1.339802 -0.882309,3.95405 z m 12.973181,10.816451 q -2.156755,0 -3.659948,-1.307124 -1.470514,-1.307124 -1.470514,-4.019406 0,-2.646926 1.829973,-3.921372 1.829974,-1.274446 5.489921,-1.405158 l 2.679604,-0.09803 v -1.797295 q 0,-1.633905 -0.359459,-2.679604 -0.326781,-1.0457 -1.666583,-1.0457 -1.241768,0 -1.731939,1.013021 -0.457493,0.980343 -0.457493,2.516214 -2.189433,0 -3.300489,-0.490171 -1.111055,-0.490172 -1.111055,-1.699262 0,-1.209089 0.914987,-1.928007 0.914987,-0.718919 2.450857,-1.0457 1.535871,-0.359459 3.365845,-0.359459 3.4312,0 5.130461,1.241768 1.73194,1.241768 1.73194,4.313509 v 8.332916 q 0,1.339802 0.424815,1.829974 0.424815,0.490171 1.535871,0.490171 h 0.130712 v 1.731939 h -6.078126 l -0.686241,-2.254789 h -0.294103 q -0.718918,0.882309 -1.37248,1.470515 -0.620884,0.555528 -1.437836,0.816953 -0.816953,0.294102 -2.05872,0.294102 z m 1.797295,-2.385501 q 1.405158,0 2.222111,-1.143733 0.84963,-1.143734 0.84963,-3.039064 v -2.450857 l -1.470514,0.09803 q -1.960686,0.09803 -2.712282,1.045699 -0.751597,0.914987 -0.751597,2.679604 0,2.810317 1.862652,2.810317 z m 19.345464,2.385501 q -3.202453,0 -4.934393,-2.156754 -1.731939,-2.189433 -1.731939,-6.895079 0,-4.738325 1.699261,-6.960436 1.731939,-2.222111 4.901715,-2.222111 1.829974,0 3.006386,0.751597 1.176411,0.718918 1.862651,1.862651 h 0.228747 q -0.130712,-0.914986 -0.196069,-2.05872 -0.06536,-1.143734 -0.06536,-1.928008 v -1.797295 q 0,-1.339803 -0.784274,-1.6665836 Q 86.219922,9.4580453 85.141545,9.4580453 H 84.88012 V 7.726106 h 7.875422 v 20.81595 q 0,0.980343 0.35946,1.470515 0.392137,0.490171 1.013021,0.653562 0.620884,0.16339 1.339802,0.16339 h 0.130712 v 1.731939 h -6.339551 l -0.914987,-2.548891 h -0.294103 q -0.718918,1.307124 -1.928008,2.091398 -1.176412,0.784274 -3.10442,0.784274 z m 1.405159,-2.450857 q 1.928008,0 2.646926,-1.633905 0.718918,-1.666583 0.718918,-5.032428 0,-3.235132 -0.718918,-4.967071 -0.718918,-1.731939 -2.646926,-1.731939 -1.633905,0 -2.352823,1.731939 -0.686241,1.731939 -0.686241,4.999749 0,3.333167 0.686241,4.99975 0.718918,1.633905 2.352823,1.633905 z"
         id="path1" />
      <path
         style="font-weight:bold;-inkscape-font-specification:'Segoe UI Bold'"
         d="m 100.42801,32.960365 q -1.244579,0 -2.074296,-0.765893 -0.829717,-0.765893 -0.829717,-1.88282 0,-1.14884 0.845673,-1.88282 0.86163,-0.733981 2.13812,-0.733981 1.29244,0 2.1062,0.749937 0.82972,0.73398 0.82972,1.866864 0,1.164795 -0.84567,1.914732 -0.82972,0.733981 -2.17003,0.733981 z"
         id="path2" />
    </g>
  </g>
</svg>
