<?xml version="1.0" encoding="UTF-8" standalone="no"?>
<!-- Created with Inkscape (http://www.inkscape.org/) -->

<svg
   width="206mm"
   height="34mm"
   viewBox="0 0 206 34"
   version="1.1"
   id="svg1"
   inkscape:version="1.4 (86a8ad7, 2024-10-11)"
   sodipodi:docname="WRS_succeed.svg"
   xmlns:inkscape="http://www.inkscape.org/namespaces/inkscape"
   xmlns:sodipodi="http://sodipodi.sourceforge.net/DTD/sodipodi-0.dtd"
   xmlns="http://www.w3.org/2000/svg"
   xmlns:svg="http://www.w3.org/2000/svg">
  <sodipodi:namedview
     id="namedview1"
     pagecolor="#ffffff"
     bordercolor="#000000"
     borderopacity="0.25"
     inkscape:showpageshadow="2"
     inkscape:pageopacity="0.0"
     inkscape:pagecheckerboard="0"
     inkscape:deskcolor="#d1d1d1"
     inkscape:document-units="mm"
     inkscape:zoom="0.71891835"
     inkscape:cx="396.42889"
     inkscape:cy="561.25984"
     inkscape:window-width="1920"
     inkscape:window-height="1009"
     inkscape:window-x="-8"
     inkscape:window-y="-8"
     inkscape:window-maximized="1"
     inkscape:current-layer="layer1" />
  <defs
     id="defs1" />
  <g
     inkscape:label="Layer 1"
     inkscape:groupmode="layer"
     id="layer1">
    <path
       style="font-stretch:ultra-expanded;font-size:28.0082px;font-family:'Wide Latin';-inkscape-font-specification:'Wide Latin Ultra-Expanded';fill:#d35400;stroke-width:2.80081"
       d="m 9.3614196,28.155715 v -9.704047 q 2.4124864,2.979312 6.6310404,4.653402 4.231738,1.674091 9.333553,1.674091 5.365475,0 5.365475,-1.546406 0,-0.723547 -0.725064,-0.96473 -0.711881,-0.255369 -3.440759,-0.482365 l -3.92853,-0.326305 q -6.855151,-0.553301 -9.689492,-1.7734 -4.5085813,-1.943647 -4.5085813,-5.504635 0,-3.348179 3.0189033,-5.2492645 3.032086,-1.9010854 8.34483,-1.9010854 5.114997,0 9.175356,1.5180306 l 0.75143,0.2837445 5.049083,-1.6740902 v 8.186016 Q 27.659402,10.37915 19.65733,10.37915 q -4.824972,0 -4.824972,1.546405 0,0.723547 1.173286,1.092415 1.173285,0.368867 4.416299,0.65261 l 3.823066,0.326307 q 7.197909,0.624236 9.636762,1.872711 4.086724,2.099705 4.086724,5.618132 0,3.149558 -3.243014,5.022269 -3.22983,1.858523 -8.687586,1.858523 -5.853245,0 -11.996516,-2.085518 z M 65.006797,13.500335 v 10.34247 l 5.101814,3.5468 H 57.505679 v -2.908376 q -2.478402,3.546801 -7.382471,3.546801 -2.939806,0 -5.035901,-1.276848 -2.096095,-1.276849 -2.096095,-3.078624 v -6.28493 L 37.889398,13.82664 50.49233,13.500335 v 7.760399 q 0,1.759214 0.645967,2.468574 0.659149,0.709359 2.267473,0.709359 1.806069,0 2.952988,-1.120789 1.146921,-1.120788 1.146921,-2.894189 V 17.387628 L 51.454688,13.82664 Z m 25.917747,6.99429 q 1.318297,1.205912 1.318297,2.454386 0,2.326701 -2.781609,3.759609 -2.781609,1.41872 -7.329739,1.41872 -4.930436,0 -8.529391,-2.113893 -3.585771,-2.128081 -3.585771,-5.050644 0,-3.263057 3.730784,-5.57557 3.743967,-2.312514 9.017162,-2.312514 3.7176,0 6.459661,1.248473 2.742061,1.234286 2.742061,2.908377 0,2.326701 -3.467124,2.326701 -0.935993,0 -2.214742,-0.297931 0.237294,-0.751922 0.237294,-1.248475 0,-0.978916 -1.081005,-1.61734 -1.067821,-0.652611 -2.676145,-0.652611 -4.600862,0 -4.600862,4.86621 0,4.468968 5.721415,4.468968 7.039714,0 7.039714,-4.582466 z m 23.663456,0 q 1.31829,1.205912 1.31829,2.454386 0,2.326701 -2.7816,3.759609 -2.78161,1.41872 -7.32974,1.41872 -4.93043,0 -8.529391,-2.113893 -3.585772,-2.128081 -3.585772,-5.050644 0,-3.263057 3.730785,-5.57557 3.743968,-2.312514 9.017168,-2.312514 3.71759,0 6.45966,1.248473 2.74206,1.234286 2.74206,2.908377 0,2.326701 -3.46713,2.326701 -0.93599,0 -2.21474,-0.297931 0.23729,-0.751922 0.23729,-1.248475 0,-0.978916 -1.081,-1.61734 -1.06783,-0.652611 -2.67614,-0.652611 -4.60086,0 -4.60086,4.86621 0,4.468968 5.72141,4.468968 7.03971,0 7.03971,-4.582466 z m 25.12677,0.851232 h -14.30354 q 0,3.745422 6.31465,3.745422 5.98508,0 7.87024,-2.440199 0.23729,0.581675 0.23729,0.950543 0,2.057144 -2.72887,3.305617 -2.71569,1.234287 -7.2111,1.234287 -5.61594,0 -9.08307,-2.042957 -3.45394,-2.042957 -3.45394,-5.362763 0,-3.220494 3.37485,-5.462072 3.37483,-2.241578 8.22617,-2.241578 4.38994,0 7.23746,2.213203 2.86071,2.199016 3.51986,6.100497 z m -6.48603,-2.426011 q 0,-3.220495 -3.7967,-3.220495 -1.67424,0 -2.80798,0.922168 -1.12055,0.922168 -1.12055,2.298327 z m 30.37359,2.426011 H 149.2988 q 0,3.745422 6.31465,3.745422 5.98507,0 7.87024,-2.440199 0.2373,0.581675 0.2373,0.950543 0,2.057144 -2.72888,3.305617 -2.7157,1.234287 -7.2111,1.234287 -5.61595,0 -9.08308,-2.042957 -3.45394,-2.042957 -3.45394,-5.362763 0,-3.220494 3.37485,-5.462072 3.37484,-2.241578 8.22618,-2.241578 4.38993,0 7.23746,2.213203 2.86071,2.199016 3.51985,6.100497 z m -6.48602,-2.426011 q 0,-3.220495 -3.7967,-3.220495 -1.67424,0 -2.80797,0.922168 -1.12056,0.922168 -1.12056,2.298327 z m 30.835,-11.8746886 V 23.842805 l 5.99825,3.5468 h -13.49938 v -2.582071 q -1.02827,1.83015 -2.3993,2.53951 -1.37103,0.695173 -3.90216,0.695173 -3.96808,0 -6.48603,-2.014583 -2.51795,-2.014583 -2.51795,-5.178329 0,-3.021874 2.79479,-5.348575 2.7948,-2.340888 6.40693,-2.340888 3.82306,0 6.10372,3.291431 v -5.533009 l -5.99825,-3.5468011 z m -11.41648,8.9663116 q -3.6385,0 -3.6385,4.681776 0,4.497344 3.42758,4.497344 3.83625,0 3.83625,-4.327097 0,-4.852023 -3.62533,-4.852023 z m 21.87059,6.171433 q 1.5424,0 2.74206,0.837046 1.21283,0.837044 1.21283,1.901084 0,1.078227 -1.21283,1.915272 -1.19966,0.837046 -2.74206,0.837046 -1.5556,0 -2.75524,-0.822858 -1.19966,-0.837045 -1.19966,-1.92946 0,-1.078227 1.19966,-1.901084 1.19964,-0.837046 2.75524,-0.837046 z"
       id="text41"
       aria-label="Succeed." />
  </g>
</svg>
